<svg width="342" height="186" viewBox="0 0 342 186" fill="none" xmlns="http://www.w3.org/2000/svg">
<path d="M0.5 146.5C4.88857 146.378 43.2976 147.04 50.3193 149.381C59.0965 152.307 82.5022 159.256 87.2564 159.621C92.0107 159.987 99.6907 160.719 99.6907 157.061C99.6907 153.404 94.5707 153.039 91.645 153.77C88.7193 154.501 81.7707 156.696 87.2564 161.45C92.7422 166.204 112.856 159.256 117.976 153.039C123.096 146.821 124.194 142.797 131.508 149.381C133.336 148.65 138.018 147.408 142.114 148.285C147.234 149.381 149.062 150.845 147.234 155.233C145.405 159.621 139.188 171.325 138.091 171.325C136.994 171.325 126.388 176.445 131.508 179.005C135.604 181.053 139.554 180.833 141.016 180.468C142.723 180.102 146.868 177.761 149.794 171.325C153.451 163.279 170.274 140.239 166.616 122.685C162.959 105.131 153.451 99.5315 135.531 103.668C121.268 106.96 121.999 108.423 125.291 107.691C126.022 105.497 113.003 107.252 109.199 109.885C104.445 113.177 93.8393 121.901 104.811 128.171C107.371 129.634 121.999 116.834 125.291 114.274C127.545 112.52 116.514 112.08 116.514 119.028C116.514 125.977 119.074 130.731 120.536 132.194C121.999 133.657 121.999 137.68 121.999 141.702C121.999 144.34 118.708 151.578 126.022 150.48C133.336 149.381 135.165 146.091 136.628 144.262C138.091 142.434 136.628 140.605 138.822 139.142C141.016 137.68 145.039 135.851 145.405 132.925C145.771 130 147.599 124.514 142.114 121.222C136.628 117.931 128.948 117.199 138.822 122.685C148.696 128.171 143.211 124.514 149.794 130.731C156.376 136.948 156.376 136.948 158.205 136.217C160.034 135.485 164.056 131.828 161.131 121.222C158.205 110.617 147.965 110.982 145.405 110.982C142.845 110.982 120.536 106.96 132.971 101.84C145.405 96.7196 141.382 101.84 158.205 99.2796C175.028 96.7196 174.662 91.5996 182.708 91.5996C190.754 91.5996 192.582 89.4053 193.314 85.7482C194.045 82.091 199.531 76.6053 180.879 49.1767C180.879 46.8605 182.123 43.2522 187.096 47.3482C193.314 52.4682 210.136 71.4855 200.994 96.354C204.651 99.5236 212.184 107.545 213.062 114.274C214.159 122.685 214.891 126.343 215.622 127.805C216.354 129.268 217.816 132.194 223.302 132.925C228.788 133.657 226.228 144.263 226.959 145.725C227.691 147.188 229.885 150.847 232.811 151.943C235.736 153.039 233.908 160.72 232.811 161.817C231.714 162.914 223.302 160.352 221.839 153.039C220.376 145.725 220.376 142.068 210.136 139.142C199.896 136.217 193.314 125.977 193.314 125.611C193.314 125.245 191.119 123.051 184.171 125.611C177.222 128.171 175.028 130 184.171 140.24C193.314 150.48 192.948 152.307 192.216 155.233C191.485 158.16 192.582 172.057 177.588 168.4C174.662 167.686 178.685 158.16 198.434 162.914C217.362 167.471 241.384 166.937 250.731 166.937C288.034 166.937 321.686 148.769 341.8 149.5" stroke="url(#paint0_linear_2000_20794)" stroke-width="2" stroke-linejoin="round"/>
<defs>
<linearGradient id="paint0_linear_2000_20794" x1="171.15" y1="45.4868" x2="171.15" y2="180.707" gradientUnits="userSpaceOnUse">
<stop stop-color="#A7CF48"/>
<stop offset="1" stop-color="#48CF8E"/>
</linearGradient>
</defs>
</svg>
