<svg width="21" height="21" viewBox="0 0 21 21" fill="none" xmlns="http://www.w3.org/2000/svg">
<path d="M11.7437 0.864258C12.8535 0.867217 13.4168 0.873136 13.9031 0.886947L14.0945 0.893852C14.3154 0.901744 14.5335 0.911609 14.7968 0.923446C15.8465 0.97277 16.5626 1.1385 17.191 1.38216C17.8421 1.63272 18.3906 1.97207 18.9391 2.51957C19.4407 3.0127 19.8288 3.60922 20.0765 4.2676C20.3201 4.89599 20.4859 5.61217 20.5352 6.66277C20.547 6.92517 20.5569 7.14318 20.5648 7.36514L20.5707 7.55652C20.5855 8.04186 20.5914 8.60514 20.5934 9.71493L20.5944 10.4508V11.7431C20.5968 12.4627 20.5892 13.1822 20.5717 13.9015L20.5658 14.0929C20.5579 14.3149 20.548 14.5329 20.5362 14.7953C20.4868 15.8459 20.3191 16.5611 20.0765 17.1904C19.8295 17.8492 19.4413 18.4459 18.9391 18.9385C18.4458 19.4399 17.8493 19.828 17.191 20.0759C16.5626 20.3196 15.8465 20.4853 14.7968 20.5346C14.5628 20.5456 14.3286 20.5555 14.0945 20.5642L13.9031 20.5701C13.4168 20.5839 12.8535 20.5908 11.7437 20.5928L11.0078 20.5938H9.71648C8.99661 20.5963 8.27675 20.5887 7.55709 20.5711L7.36571 20.5652C7.13153 20.5563 6.8974 20.5461 6.66334 20.5346C5.61373 20.4853 4.89754 20.3196 4.26817 20.0759C3.60987 19.8287 3.01359 19.4405 2.52112 18.9385C2.01905 18.4455 1.63055 17.849 1.38273 17.1904C1.13907 16.5621 0.973339 15.8459 0.924016 14.7953C0.913025 14.5612 0.90316 14.3271 0.894421 14.0929L0.889489 13.9015C0.87131 13.1822 0.863089 12.4627 0.864827 11.7431V9.71493C0.862074 8.99539 0.869309 8.27585 0.88653 7.55652L0.893435 7.36514C0.901327 7.14318 0.911191 6.92517 0.923029 6.66277C0.972353 5.61217 1.13808 4.89698 1.38174 4.2676C1.62946 3.60854 2.01873 3.01184 2.52211 2.51957C3.01445 2.01792 3.61033 1.62975 4.26817 1.38216C4.89754 1.1385 5.61274 0.97277 6.66334 0.923446C6.92574 0.911609 7.14474 0.901744 7.36571 0.893852L7.55709 0.887933C8.27642 0.870406 8.99596 0.862843 9.7155 0.865244L11.7437 0.864258ZM10.7296 5.79664C9.42145 5.79664 8.16687 6.3163 7.24187 7.2413C6.31687 8.16631 5.79721 9.42088 5.79721 10.729C5.79721 12.0372 6.31687 13.2917 7.24187 14.2167C8.16687 15.1418 9.42145 15.6614 10.7296 15.6614C12.0377 15.6614 13.2923 15.1418 14.2173 14.2167C15.1423 13.2917 15.662 12.0372 15.662 10.729C15.662 9.42088 15.1423 8.16631 14.2173 7.2413C13.2923 6.3163 12.0377 5.79664 10.7296 5.79664ZM10.7296 7.7696C11.1182 7.76953 11.5031 7.84601 11.8622 7.99468C12.2212 8.14335 12.5475 8.36128 12.8224 8.63604C13.0972 8.91081 13.3153 9.23702 13.4641 9.59605C13.6128 9.95508 13.6895 10.3399 13.6895 10.7285C13.6896 11.1172 13.6131 11.502 13.4644 11.8611C13.3158 12.2202 13.0978 12.5465 12.8231 12.8213C12.5483 13.0962 12.2221 13.3142 11.8631 13.463C11.504 13.6118 11.1192 13.6884 10.7306 13.6885C9.94569 13.6885 9.19295 13.3767 8.63795 12.8217C8.08295 12.2667 7.77115 11.5139 7.77115 10.729C7.77115 9.94414 8.08295 9.19139 8.63795 8.63639C9.19295 8.08139 9.94569 7.7696 10.7306 7.7696M15.9096 4.31693C15.5825 4.31693 15.2689 4.44684 15.0377 4.67809C14.8064 4.90934 14.6765 5.22299 14.6765 5.55002C14.6765 5.87706 14.8064 6.1907 15.0377 6.42195C15.2689 6.6532 15.5825 6.78312 15.9096 6.78312C16.2366 6.78312 16.5503 6.6532 16.7815 6.42195C17.0128 6.1907 17.1427 5.87706 17.1427 5.55002C17.1427 5.22299 17.0128 4.90934 16.7815 4.67809C16.5503 4.44684 16.2366 4.31693 15.9096 4.31693Z" fill="#0B0A0A"/>
</svg>
