<svg width="21" height="21" viewBox="0 0 21 21" fill="none" xmlns="http://www.w3.org/2000/svg">
<path d="M11.7427 0.864258C12.8525 0.867217 13.4158 0.873136 13.9021 0.886947L14.0935 0.893852C14.3145 0.901744 14.5325 0.911609 14.7959 0.923446C15.8455 0.97277 16.5617 1.1385 17.19 1.38216C17.8411 1.63272 18.3896 1.97207 18.9381 2.51957C19.4397 3.0127 19.8278 3.60922 20.0755 4.2676C20.3191 4.89599 20.4849 5.61217 20.5342 6.66277C20.546 6.92517 20.5559 7.14318 20.5638 7.36514L20.5697 7.55652C20.5845 8.04186 20.5904 8.60514 20.5924 9.71493L20.5934 10.4508V11.7431C20.5958 12.4627 20.5882 13.1822 20.5707 13.9015L20.5648 14.0929C20.5569 14.3149 20.547 14.5329 20.5352 14.7953C20.4859 15.8459 20.3182 16.5611 20.0755 17.1904C19.8286 17.8492 19.4403 18.4459 18.9381 18.9385C18.4448 19.4399 17.8483 19.828 17.19 20.0759C16.5617 20.3196 15.8455 20.4853 14.7959 20.5346C14.5618 20.5456 14.3277 20.5555 14.0935 20.5642L13.9021 20.5701C13.4158 20.5839 12.8525 20.5908 11.7427 20.5928L11.0068 20.5938H9.71551C8.99564 20.5963 8.27577 20.5887 7.55611 20.5711L7.36473 20.5652C7.13055 20.5563 6.89643 20.5461 6.66236 20.5346C5.61275 20.4853 4.89657 20.3196 4.2672 20.0759C3.60889 19.8287 3.01261 19.4405 2.52015 18.9385C2.01807 18.4455 1.62958 17.849 1.38175 17.1904C1.13809 16.5621 0.972363 15.8459 0.923039 14.7953C0.912048 14.5612 0.902184 14.3271 0.893445 14.0929L0.888512 13.9015C0.870334 13.1822 0.862112 12.4627 0.86385 11.7431V9.71493C0.861097 8.99539 0.868332 8.27585 0.885553 7.55652L0.892458 7.36514C0.90035 7.14318 0.910215 6.92517 0.922053 6.66277C0.971376 5.61217 1.1371 4.89698 1.38076 4.2676C1.62848 3.60854 2.01775 3.01184 2.52113 2.51957C3.01347 2.01792 3.60936 1.62975 4.2672 1.38216C4.89657 1.1385 5.61176 0.97277 6.66236 0.923446C6.92476 0.911609 7.14376 0.901744 7.36473 0.893852L7.55611 0.887933C8.27544 0.870406 8.99498 0.862843 9.71452 0.865244L11.7427 0.864258ZM10.7286 5.79664C9.42047 5.79664 8.1659 6.3163 7.2409 7.2413C6.3159 8.16631 5.79624 9.42088 5.79624 10.729C5.79624 12.0372 6.3159 13.2917 7.2409 14.2167C8.1659 15.1418 9.42047 15.6614 10.7286 15.6614C12.0368 15.6614 13.2913 15.1418 14.2163 14.2167C15.1413 13.2917 15.661 12.0372 15.661 10.729C15.661 9.42088 15.1413 8.16631 14.2163 7.2413C13.2913 6.3163 12.0368 5.79664 10.7286 5.79664ZM10.7286 7.7696C11.1173 7.76953 11.5021 7.84601 11.8612 7.99468C12.2203 8.14335 12.5465 8.36128 12.8214 8.63604C13.0963 8.91081 13.3143 9.23702 13.4631 9.59605C13.6119 9.95508 13.6885 10.3399 13.6885 10.7285C13.6886 11.1172 13.6121 11.502 13.4635 11.8611C13.3148 12.2202 13.0969 12.5465 12.8221 12.8213C12.5473 13.0962 12.2211 13.3142 11.8621 13.463C11.5031 13.6118 11.1182 13.6884 10.7296 13.6885C9.94472 13.6885 9.19197 13.3767 8.63697 12.8217C8.08197 12.2667 7.77018 11.5139 7.77018 10.729C7.77018 9.94414 8.08197 9.19139 8.63697 8.63639C9.19197 8.08139 9.94472 7.7696 10.7296 7.7696M15.9086 4.31693C15.5816 4.31693 15.2679 4.44684 15.0367 4.67809C14.8054 4.90934 14.6755 5.22299 14.6755 5.55002C14.6755 5.87706 14.8054 6.1907 15.0367 6.42195C15.2679 6.6532 15.5816 6.78312 15.9086 6.78312C16.2356 6.78312 16.5493 6.6532 16.7805 6.42195C17.0118 6.1907 17.1417 5.87706 17.1417 5.55002C17.1417 5.22299 17.0118 4.90934 16.7805 4.67809C16.5493 4.44684 16.2356 4.31693 15.9086 4.31693Z" fill="#0B0A0A"/>
</svg>
