<svg width="32" height="33" viewBox="0 0 32 33" fill="none" xmlns="http://www.w3.org/2000/svg">
<path fill-rule="evenodd" clip-rule="evenodd" d="M5.71229 12.4287C4.72045 11.9931 3.96802 11.2552 3.26229 10.5147C2.4579 9.67057 2.44737 8.6126 2.44737 8.05887C2.44737 7.17844 3.27149 6.48413 4.61127 6.45179C5.32095 6.43463 5.75438 6.61216 6.34567 7.04446C6.76925 7.35334 7.76174 8.36445 7.3191 9.19142C7.29608 9.23432 7.25859 9.28646 7.20531 9.34783C7.15285 9.40894 7.12356 9.48666 7.12259 9.56731C7.12163 9.64796 7.14906 9.72636 7.20005 9.78871C7.25114 9.85107 7.32444 9.89099 7.40439 9.89999C7.48434 9.90898 7.56464 9.88635 7.62822 9.83689L7.69794 9.78277C8.57271 9.11222 9.0489 8.86274 9.0489 7.86945C9.0489 6.00035 6.591 4.20451 4.21729 4.26193C1.84622 4.31935 0 6.03731 0 8.04039C0 9.13598 0.695868 10.6903 1.83372 11.8848C2.56121 12.6489 3.43956 13.2522 4.41264 13.6563C4.35081 13.7586 4.28701 13.8688 4.2219 13.9882C3.57734 15.167 3.66152 15.3102 3.57931 16.7827C3.49775 18.2558 3.93184 20.8891 3.76544 22.1867C3.59838 23.4836 2.76373 23.6281 2.58023 24.5626C2.46382 25.1547 2.17508 27.7247 1.71402 32.2714C1.70453 32.3634 1.71441 32.4564 1.74301 32.5443C1.77161 32.6323 1.81831 32.7132 1.88006 32.7819C1.94181 32.8506 2.01726 32.9055 2.1015 32.9431C2.18574 32.9806 2.27691 33 2.3691 33H3.72203C3.89612 33 4.06308 32.9306 4.18618 32.8071C4.30928 32.6836 4.37844 32.516 4.37844 32.3413V32.0133C4.37844 31.8054 4.28109 31.6094 4.11535 31.4853L3.90619 31.3276C3.80778 31.2536 3.732 31.1534 3.68748 31.0384C3.64295 30.9233 3.63145 30.7981 3.65429 30.6768C4.01406 28.7549 4.33042 27.598 4.60272 27.2059C4.80398 26.9155 5.71295 26.4423 6.885 25.5249C7.09482 25.3599 7.47235 25.0101 8.01628 24.4742C8.06004 24.4308 8.11507 24.4006 8.17511 24.387C8.23514 24.3734 8.29778 24.3769 8.35588 24.3973C8.41399 24.4177 8.46524 24.454 8.5038 24.5021C8.54237 24.5502 8.5667 24.6083 8.57403 24.6696C8.67268 25.4635 8.79633 26.1328 8.943 26.6773C9.12059 27.3333 9.6665 29.0447 10.5801 31.81C10.6235 31.9419 10.7073 32.0566 10.8195 32.1379C10.9317 32.2192 11.0665 32.2629 11.2049 32.2628H12.9268C13.0827 32.2626 13.2322 32.2004 13.3424 32.0898C13.4526 31.9792 13.5146 31.8292 13.5148 31.6728V31.6332C13.515 31.4785 13.461 31.3286 13.3623 31.2098C13.2636 31.091 13.1265 31.0107 12.9748 30.9831L12.2362 30.8471C11.7061 28.9041 11.4752 27.4811 11.5423 26.5776C11.5897 25.9387 12.0198 25.1956 12.4533 23.902C12.5434 23.6327 12.6703 23.0836 12.8334 22.252C12.8421 22.2078 12.8597 22.1659 12.8851 22.1288C12.9106 22.0917 12.9433 22.0602 12.9813 22.0363C13.0193 22.0124 13.0618 21.9965 13.1062 21.9897C13.1505 21.9829 13.1958 21.9852 13.2392 21.9966L17.6216 23.1357C17.6698 23.1482 17.7146 23.1715 17.7525 23.2039C17.7905 23.2363 17.8206 23.2769 17.8406 23.3227C17.8606 23.3684 17.87 23.4182 17.8681 23.4681C17.8661 23.518 17.8529 23.5669 17.8294 23.6109L17.7262 23.8063C17.5289 24.1772 17.4263 24.5917 17.4263 25.0121V31.1896C17.4263 31.3949 17.5216 31.5889 17.6841 31.7143L18.6029 32.4205C18.718 32.5092 18.859 32.5572 19.0041 32.5571H19.6638C19.8383 32.557 20.0056 32.4873 20.1289 32.3634C20.2523 32.2395 20.3215 32.0716 20.3215 31.8965V31.5599C20.3215 31.3203 20.1933 31.0992 19.9848 30.9824L19.5112 30.7171C19.4006 30.6553 19.3101 30.5627 19.2506 30.4506C19.1911 30.3384 19.1651 30.2114 19.1758 30.0848C19.2508 29.1932 19.3429 28.5147 19.4534 28.0501C19.5665 27.5709 19.8414 26.7155 20.2775 25.4853C20.2954 25.4347 20.3254 25.3892 20.3648 25.3529C20.4043 25.3165 20.452 25.2904 20.5037 25.2767C20.5555 25.263 20.6099 25.2623 20.662 25.2745C20.7142 25.2867 20.7626 25.3115 20.803 25.3467L20.9312 25.4576C21.2529 25.7368 21.6455 25.9196 22.0652 25.9876L26.1772 26.6476C26.2357 26.657 26.2906 26.6821 26.3361 26.7202C26.3816 26.7583 26.416 26.8081 26.4356 26.8642C26.4552 26.9204 26.4593 26.9808 26.4475 27.0391C26.4357 27.0973 26.4085 27.1513 26.3686 27.1954L25.9312 27.6785C25.8207 27.7999 25.7602 27.9583 25.7602 28.1227V28.5543C25.7603 28.6426 25.778 28.7301 25.8123 28.8114C25.8466 28.8928 25.8968 28.9664 25.96 29.0279C26.0231 29.0894 26.098 29.1376 26.18 29.1697C26.2621 29.2017 26.3497 29.2168 26.4377 29.2143L26.977 29.1984C27.0751 29.1956 27.1713 29.1707 27.2586 29.1257C27.3459 29.0807 27.422 29.0167 27.4815 28.9384L28.1616 28.0448C28.249 27.9297 28.2964 27.7889 28.2964 27.6442V26.3321C28.2964 26.1031 28.178 25.8899 27.984 25.7698C25.1748 24.0274 23.6516 23.0645 23.4141 22.879C23.1681 22.6876 23.0655 22.3675 23.1063 21.9194C23.5641 20.5552 24.2975 20.0721 24.627 19.2642C24.9558 18.4571 25.5675 15.9445 25.8701 14.9796C26.4784 13.0392 27.0125 12.0129 27.1566 11.706C27.4802 11.017 28.0511 10.9193 28.6542 10.6817C29.2573 10.4434 30.4037 10.4797 31.1496 9.82303C31.8948 9.16568 31.8264 8.47929 32 7.73217V6.81808C32 6.45311 31.7047 6.15743 31.341 6.15743H29.5546C29.3132 6.15743 29.0916 6.02543 28.9758 5.81225C28.7719 5.43672 28.4463 5.07768 27.9984 4.73581C27.4023 4.28374 26.723 3.95426 25.9996 3.76628C26.1641 1.71106 26.1641 0.550131 25.9996 0.283493C25.8352 0.0168563 25.3781 0.433972 24.627 1.53484C24.5198 0.238614 24.3106 -0.236581 23.9988 0.109255C23.7081 0.432652 23.2063 1.60744 22.494 3.63362C22.4006 3.89761 22.2658 4.14709 22.0948 4.36951C21.7955 4.75759 21.5258 5.22222 21.2844 5.76209C20.826 6.78904 20.2906 9.47125 19.3429 10.7906C18.3957 12.1099 17.8426 12.2181 16.4745 12.4623C15.5656 12.6247 12.4315 12.1059 9.86447 12.0056C7.88737 11.9277 6.297 12.2617 6.01024 12.3356C5.90697 12.3627 5.80832 12.393 5.71229 12.4287Z" fill="#908B8B"/>
</svg>
