<svg width="27" height="27" viewBox="0 0 27 27" fill="none" xmlns="http://www.w3.org/2000/svg">
<path fill-rule="evenodd" clip-rule="evenodd" d="M5.14124 10.1689C4.33537 9.81253 3.72402 9.20881 3.15061 8.60294C2.49704 7.91229 2.48849 7.04668 2.48849 6.59362C2.48849 5.87327 3.15809 5.30519 4.24666 5.27873C4.82327 5.26469 5.17544 5.40995 5.65586 5.76365C6.00001 6.01637 6.80642 6.84364 6.44677 7.52025C6.42806 7.55535 6.3976 7.59801 6.35432 7.64823C6.31169 7.69822 6.28789 7.76181 6.28711 7.8278C6.28633 7.89378 6.30861 7.95793 6.35004 8.00895C6.39155 8.05997 6.45111 8.09263 6.51607 8.09999C6.58103 8.10735 6.64627 8.08883 6.69793 8.04836L6.75458 8.00408C7.46533 7.45545 7.85223 7.25133 7.85223 6.43864C7.85223 4.90938 5.85519 3.44005 3.92655 3.48703C2.00005 3.53401 0.5 4.93962 0.5 6.5785C0.5 7.47489 1.06539 8.74658 1.9899 9.72397C2.58098 10.3491 3.29464 10.8427 4.08527 11.1733C4.03503 11.257 3.9832 11.3472 3.93029 11.4449C3.40658 12.4094 3.47499 12.5265 3.40819 13.7313C3.34192 14.9365 3.69462 17.0911 3.55942 18.1527C3.42369 19.2138 2.74553 19.3321 2.59644 20.0967C2.50185 20.5811 2.26725 22.6838 1.89264 26.4038C1.88493 26.4791 1.89296 26.5552 1.9162 26.6272C1.93944 26.6991 1.97737 26.7653 2.02755 26.8215C2.07772 26.8777 2.13902 26.9227 2.20747 26.9534C2.27592 26.9842 2.34999 27 2.4249 27H3.52415C3.6656 27 3.80125 26.9432 3.90127 26.8422C4.00129 26.7411 4.05748 26.604 4.05748 26.4611V26.1927C4.05748 26.0226 3.97839 25.8622 3.84372 25.7607L3.67378 25.6317C3.59382 25.5711 3.53225 25.4891 3.49607 25.395C3.45989 25.3009 3.45055 25.1984 3.46911 25.0992C3.76142 23.5268 4.01847 22.5801 4.23971 22.2594C4.40323 22.0218 5.14177 21.6346 6.09406 20.884C6.26454 20.749 6.57128 20.4628 7.01323 20.0244C7.04878 19.9888 7.0935 19.9641 7.14227 19.953C7.19105 19.9418 7.24194 19.9448 7.28916 19.9614C7.33637 19.9781 7.37801 20.0078 7.40934 20.0472C7.44067 20.0865 7.46044 20.134 7.4664 20.1842C7.54656 20.8338 7.64702 21.3814 7.76619 21.8269C7.91048 22.3636 8.35403 23.7638 9.09631 26.0264C9.13161 26.1343 9.19967 26.2281 9.29082 26.2946C9.38197 26.3611 9.49155 26.3969 9.60398 26.3968H11.003C11.1297 26.3967 11.2511 26.3458 11.3407 26.2553C11.4303 26.1648 11.4806 26.0421 11.4808 25.9141V25.8817C11.4809 25.7551 11.4371 25.6325 11.3569 25.5353C11.2767 25.4381 11.1653 25.3724 11.042 25.3498L10.4419 25.2385C10.0112 23.6488 9.82362 22.4846 9.87813 21.7453C9.9166 21.2226 10.2661 20.6146 10.6183 19.5562C10.6915 19.3359 10.7946 18.8866 10.9271 18.2062C10.9342 18.17 10.9485 18.1357 10.9692 18.1054C10.9898 18.075 11.0164 18.0493 11.0473 18.0297C11.0782 18.0101 11.1127 17.9972 11.1488 17.9916C11.1848 17.986 11.2216 17.9879 11.2569 17.9972L14.8176 18.9292C14.8567 18.9395 14.8931 18.9585 14.9239 18.985C14.9548 19.0115 14.9792 19.0447 14.9955 19.0822C15.0118 19.1196 15.0194 19.1603 15.0178 19.2012C15.0162 19.242 15.0055 19.282 14.9864 19.318L14.9025 19.4779C14.7422 19.7814 14.6588 20.1205 14.6588 20.4644V25.5188C14.6588 25.6867 14.7363 25.8455 14.8683 25.9481L15.6149 26.5259C15.7084 26.5984 15.823 26.6377 15.9409 26.6377H16.4769C16.6186 26.6375 16.7546 26.5805 16.8548 26.4792C16.955 26.3778 17.0113 26.2404 17.0113 26.0971V25.8217C17.0113 25.6257 16.907 25.4448 16.7376 25.3492L16.3529 25.1322C16.263 25.0816 16.1895 25.0059 16.1411 24.9141C16.0928 24.8223 16.0717 24.7184 16.0803 24.6148C16.1413 23.8853 16.2161 23.3302 16.3058 22.95C16.3978 22.558 16.6211 21.8582 16.9754 20.8516C16.99 20.8102 17.0144 20.773 17.0464 20.7432C17.0785 20.7135 17.1172 20.6921 17.1593 20.6809C17.2014 20.6698 17.2455 20.6691 17.2879 20.6791C17.3303 20.6891 17.3696 20.7094 17.4024 20.7382L17.5066 20.8289C17.768 21.0574 18.087 21.2069 18.4279 21.2626L21.769 21.8026C21.8165 21.8102 21.8612 21.8308 21.8981 21.862C21.9351 21.8932 21.963 21.9339 21.9789 21.9798C21.9948 22.0258 21.9982 22.0752 21.9886 22.1229C21.979 22.1706 21.9569 22.2147 21.9245 22.2508L21.5691 22.646C21.4793 22.7454 21.4302 22.875 21.4302 23.0094V23.3626C21.4302 23.4349 21.4446 23.5064 21.4725 23.573C21.5004 23.6395 21.5412 23.6998 21.5925 23.7501C21.6438 23.8005 21.7046 23.8399 21.7713 23.8661C21.8379 23.8923 21.9091 23.9047 21.9806 23.9026L22.4188 23.8896C22.4985 23.8873 22.5767 23.8669 22.6476 23.8301C22.7185 23.7933 22.7804 23.741 22.8287 23.6769L23.3813 22.9457C23.4523 22.8515 23.4908 22.7364 23.4908 22.6179V21.5444C23.4908 21.3571 23.3946 21.1826 23.237 21.0844C20.9546 19.6588 19.7169 18.8709 19.524 18.7192C19.3241 18.5626 19.2408 18.3007 19.2739 17.934C19.6458 16.8179 20.2417 16.4226 20.5094 15.7616C20.7766 15.1012 21.2736 13.0455 21.5194 12.256C22.0137 10.6684 22.4477 9.82873 22.5647 9.57763C22.8276 9.01387 23.2915 8.93396 23.7815 8.73956C24.2716 8.54462 25.203 8.57432 25.809 8.03703C26.4145 7.49919 26.3589 6.9376 26.5 6.32632V5.57843C26.5 5.27981 26.2601 5.0379 25.9645 5.0379H24.5131C24.317 5.0379 24.1369 4.9299 24.0428 4.75548C23.8772 4.44822 23.6127 4.15447 23.2487 3.87475C22.7643 3.50488 22.2124 3.23531 21.6247 3.0815C21.7583 1.39996 21.7583 0.450107 21.6247 0.231949C21.4911 0.0137915 21.1197 0.355068 20.5094 1.25578C20.4223 0.19523 20.2524 -0.193566 19.9991 0.0893907C19.7629 0.353988 19.3551 1.31518 18.7764 2.97296C18.7005 3.18896 18.5909 3.39307 18.452 3.57505C18.2088 3.89257 17.9897 4.27273 17.7936 4.71444C17.4211 5.55467 16.9861 7.74921 16.2161 8.82866C15.4465 9.9081 14.9971 9.99666 13.8856 10.1965C13.147 10.3293 10.6006 9.90487 8.51488 9.82279C6.90849 9.75907 5.61631 10.0323 5.38332 10.0928C5.29942 10.1149 5.21926 10.1398 5.14124 10.1689Z" fill="#908B8B"/>
</svg>
