<?xml version="1.0" standalone="no"?>
<!DOCTYPE svg PUBLIC "-//W3C//DTD SVG 20010904//EN"
 "http://www.w3.org/TR/2001/REC-SVG-20010904/DTD/svg10.dtd">
<svg version="1.0" xmlns="http://www.w3.org/2000/svg"
 width="500.000000pt" height="500.000000pt" viewBox="0 0 500.000000 500.000000"
 preserveAspectRatio="xMidYMid meet">

<g transform="translate(0.000000,500.000000) scale(0.100000,-0.100000)"
fill="#000000" stroke="none">
<path d="M2186 4185 c-9 -14 -13 -25 -8 -25 4 0 17 -6 27 -14 18 -13 18 -14
-4 -50 -16 -26 -30 -36 -49 -38 -15 0 -31 -2 -37 -3 -5 -2 -14 -4 -20 -5 -5
-1 -13 -2 -17 -1 -5 0 -8 -4 -8 -10 0 -8 -4 -8 -13 0 -17 13 -77 -7 -77 -26 0
-12 -6 -14 -50 -17 -8 -1 -21 -5 -27 -9 -7 -5 -13 -5 -14 0 -1 4 -4 -3 -8 -17
-4 -14 -15 -26 -24 -28 -22 -4 -77 -60 -77 -78 0 -8 -10 -15 -22 -15 -18 -1
-19 -2 -5 -6 16 -4 15 -6 -5 -23 -22 -17 -22 -19 -6 -37 14 -15 15 -22 5 -32
-10 -10 1 -12 57 -8 l69 6 -32 -30 c-31 -28 -49 -69 -30 -69 5 0 9 -7 9 -15 0
-8 4 -15 9 -15 6 0 8 -9 6 -20 -2 -11 0 -22 5 -25 4 -3 7 -16 5 -30 -2 -20 3
-27 22 -31 18 -5 21 -9 12 -15 -21 -13 -20 -42 1 -36 10 3 21 -1 24 -8 5 -15
48 -14 68 2 29 22 36 23 31 4 -4 -15 0 -18 21 -14 19 4 26 1 26 -11 0 -9 5
-16 11 -16 8 0 8 -5 -1 -15 -10 -12 -10 -15 4 -15 9 0 16 -5 16 -11 0 -6 7 -9
15 -5 8 3 15 0 15 -7 0 -13 43 -17 55 -5 4 4 14 4 23 1 20 -8 68 -43 58 -43
-4 0 -1 -7 8 -15 17 -18 63 -20 68 -3 6 17 39 2 45 -21 5 -19 63 -29 63 -10 0
6 5 7 10 4 13 -8 13 -105 0 -125 -7 -11 -10 -5 -10 24 0 33 -2 37 -15 26 -8
-7 -15 -9 -15 -5 0 5 -9 0 -19 -9 -13 -12 -21 -14 -26 -6 -5 8 -11 8 -19 1 -9
-7 -16 -7 -25 2 -9 9 -14 9 -19 0 -14 -22 -56 -32 -70 -17 -7 8 -10 19 -6 25
5 8 2 9 -11 1 -14 -7 -24 -4 -42 14 -13 13 -29 24 -34 24 -6 0 -17 7 -25 15
-9 8 -27 15 -41 15 -23 0 -25 3 -21 34 4 32 1 35 -34 45 -21 7 -38 17 -38 23
0 6 -12 8 -34 4 -28 -5 -34 -3 -39 13 -4 18 -9 19 -38 11 -26 -8 -35 -7 -42 5
-6 11 -13 13 -26 6 -12 -7 -22 -6 -29 1 -13 13 -32 2 -32 -18 0 -8 -12 -19
-27 -25 -22 -8 -24 -12 -13 -19 12 -8 11 -10 -6 -10 -24 0 -41 -30 -23 -40 6
-5 -8 -15 -35 -25 -30 -12 -45 -23 -42 -31 3 -7 -3 -16 -13 -19 -23 -7 -59
-45 -42 -45 6 0 11 -8 9 -17 -3 -21 -42 -63 -58 -63 -5 0 -10 -5 -10 -12 0 -9
-3 -9 -11 -1 -13 13 -39 -6 -39 -27 0 -7 -7 -9 -15 -6 -15 5 -18 1 -31 -43 -3
-10 -7 -11 -18 -2 -11 9 -17 8 -29 -4 -9 -8 -20 -15 -26 -15 -14 0 -14 -13 1
-28 8 -8 6 -16 -10 -29 -12 -10 -23 -31 -24 -48 -3 -27 0 -30 32 -35 l35 -5
-33 -24 c-18 -13 -31 -26 -28 -28 3 -3 0 -15 -6 -26 -9 -17 -8 -19 6 -14 13 5
18 -1 23 -24 4 -22 8 -27 14 -17 6 9 9 6 9 -11 0 -18 3 -21 13 -12 8 6 17 8
20 4 4 -3 7 0 7 8 1 8 7 3 15 -11 8 -14 14 -21 15 -16 0 5 8 -1 19 -12 10 -12
21 -19 25 -15 3 3 6 -1 6 -10 0 -22 6 -21 32 3 12 10 24 17 28 15 5 -3 11 3
15 13 6 15 8 14 20 -7 l13 -24 7 22 c5 18 13 21 46 19 31 -1 38 -5 34 -18 -4
-13 0 -16 17 -14 13 1 23 3 23 4 0 2 11 3 25 4 14 1 31 5 38 9 7 5 12 3 12 -3
0 -6 5 -8 10 -5 6 3 10 0 10 -7 0 -10 10 -13 33 -10 22 2 39 -2 49 -12 9 -8
18 -12 22 -9 3 4 6 1 6 -6 0 -8 7 -10 19 -6 12 4 21 0 25 -11 5 -12 9 -14 20
-5 7 6 16 8 19 4 4 -3 7 -2 7 3 0 5 12 11 26 12 14 1 39 10 54 19 25 14 33 15
57 4 16 -8 23 -16 16 -18 -7 -3 -13 -13 -13 -23 0 -10 -4 -22 -10 -25 -5 -3
-10 -17 -10 -30 0 -13 -10 -33 -22 -45 -24 -22 -30 -52 -16 -91 9 -28 34 -34
42 -12 3 8 10 11 16 8 5 -3 10 -1 10 4 0 6 12 11 28 11 15 0 37 7 48 15 24 16
34 11 34 -17 0 -10 7 -18 15 -18 8 0 15 -5 15 -11 0 -7 10 -9 26 -5 36 9 57
-9 41 -35 -9 -15 -9 -23 1 -39 6 -11 12 -24 12 -30 0 -18 58 -72 65 -61 19 31
25 0 25 -121 0 -72 3 -129 6 -125 4 3 6 45 5 93 -1 53 3 91 10 100 8 10 8 14
0 14 -7 0 -11 20 -11 53 l0 52 19 -25 c11 -13 17 -28 14 -33 -3 -5 -9 -3 -14
4 -7 11 -9 10 -9 -3 0 -24 13 -23 35 2 14 16 30 20 74 19 31 -1 61 -6 68 -11
8 -6 10 2 8 32 -2 22 1 40 6 40 6 0 7 5 4 10 -3 6 1 10 9 10 13 0 16 -15 16
-91 0 -66 -3 -88 -12 -83 -7 5 -8 3 -3 -6 6 -10 11 -9 21 5 7 10 15 23 18 29
3 7 8 6 14 -3 6 -8 25 -15 43 -16 17 -1 37 -8 43 -16 14 -17 36 -23 36 -8 0 6
9 8 20 4 20 -6 55 17 43 29 -4 3 1 6 10 6 10 0 17 8 17 19 0 11 4 22 9 26 6 3
8 25 6 50 -3 37 0 45 16 50 22 7 79 -12 79 -26 0 -15 24 -5 47 19 12 12 20 29
17 37 -9 21 22 19 47 -4 16 -15 18 -23 9 -45 -14 -37 -14 -37 25 -32 19 3 35
0 35 -5 0 -6 7 -17 15 -25 8 -9 15 -12 15 -8 0 4 9 -1 20 -11 19 -17 21 -17
40 0 11 10 17 22 14 26 -6 10 11 30 41 47 l20 11 -20 1 c-14 0 -16 3 -7 8 9 7
6 15 -13 36 -23 25 -24 29 -10 49 18 26 19 54 3 60 -10 4 -10 7 0 18 10 11 12
11 12 0 0 -9 10 -12 30 -9 17 3 30 1 30 -4 0 -10 46 -6 56 5 4 4 13 2 21 -4
23 -19 44 8 41 52 -3 40 15 60 20 22 3 -20 5 -20 35 12 22 23 37 31 46 26 7
-5 22 -6 32 -4 11 3 27 -1 36 -8 15 -13 16 -11 10 11 -6 23 -3 26 20 25 22 0
28 6 34 33 5 25 3 35 -7 39 -18 7 -46 58 -37 67 4 3 2 6 -3 6 -6 0 -8 16 -6
35 3 24 0 35 -9 36 -8 1 -25 3 -39 4 -13 1 -40 -6 -60 -16 -19 -10 -47 -21
-62 -25 -26 -6 -28 -4 -28 25 0 20 5 31 14 31 8 0 17 12 21 28 4 15 10 21 12
15 3 -7 12 -13 22 -13 9 0 24 6 33 13 14 10 14 16 2 44 -17 39 -73 56 -99 30
-8 -9 -24 -19 -35 -22 -11 -3 -20 -10 -20 -14 0 -15 -46 -29 -62 -20 -11 6
-19 5 -23 -1 -3 -5 -18 -10 -33 -10 -15 0 -36 -7 -46 -15 -15 -11 -22 -12 -27
-3 -8 12 19 78 36 90 6 4 18 13 28 20 9 7 17 19 17 27 0 12 3 12 12 3 22 -22
46 -14 43 13 -2 18 2 25 13 25 10 0 25 7 35 14 16 12 15 15 -17 30 -19 9 -36
20 -38 25 -5 16 -100 18 -153 5 -27 -8 -57 -11 -66 -8 -21 6 -55 -35 -64 -76
-4 -17 -10 -30 -15 -30 -4 0 -11 -11 -14 -25 -8 -32 -17 -32 -49 5 -15 16 -50
41 -78 55 -41 21 -48 29 -39 40 9 11 9 23 2 44 -9 25 -7 32 13 51 21 20 24 20
33 4 6 -11 14 -14 23 -8 8 5 22 7 32 6 9 -2 17 0 17 5 0 4 15 8 34 9 50 1 79
33 71 77 -6 30 -4 36 15 42 17 5 19 9 9 15 -10 7 -10 12 2 26 11 13 11 18 2
21 -10 4 -10 10 -2 25 10 18 9 20 -5 15 -11 -5 -16 -1 -16 12 0 27 -27 48 -42
33 -7 -7 -25 -12 -40 -12 -29 0 -37 20 -19 49 12 19 3 41 -14 35 -7 -3 -16 0
-20 5 -3 6 -11 9 -16 5 -5 -3 -26 -8 -46 -10 -21 -3 -41 -10 -45 -17 -4 -7 -8
-8 -8 -3 0 5 -6 4 -13 -2 -13 -11 -49 -10 -79 3 -11 4 -18 3 -18 -4 0 -6 -6
-8 -14 -5 -8 3 -19 -4 -26 -16 l-12 -22 -14 21 c-20 28 -42 26 -50 -4 -3 -14
-10 -23 -14 -20 -4 3 -10 -1 -13 -9 -4 -9 -14 -12 -25 -9 -11 2 -23 0 -26 -6
-4 -6 -12 -11 -18 -11 -7 0 -6 6 2 15 10 13 9 15 -8 15 -17 0 -20 6 -18 28 1
19 7 26 19 24 9 -2 17 2 17 8 0 19 37 51 52 45 10 -4 23 6 39 32 17 28 24 34
26 21 3 -9 10 -15 16 -13 30 11 67 13 67 4 0 -17 22 -9 45 15 17 18 26 21 34
13 6 -6 11 -7 11 -3 0 5 7 2 17 -5 14 -12 16 -12 11 1 -7 20 9 50 27 50 24 0
37 35 23 64 -6 14 -17 26 -24 26 -10 0 -12 11 -8 41 7 51 -8 64 -49 43 -26
-14 -31 -14 -46 0 -20 18 -47 21 -56 6 -3 -5 -12 -7 -20 -3 -9 3 -15 -1 -15
-8 0 -8 -11 -15 -25 -15 -13 -1 -32 -9 -40 -18 -9 -9 -21 -16 -27 -16 -5 0 -8
-6 -5 -13 6 -17 -43 -16 -61 1 -8 7 -18 10 -23 7 -5 -4 -9 0 -9 7 0 18 30 36
54 32 11 -1 27 8 38 21 10 13 27 27 38 30 21 7 28 45 9 45 -5 0 -7 5 -3 12 4
6 8 24 8 40 1 22 -3 28 -20 28 -29 0 -36 10 -19 27 12 12 12 16 -3 32 -14 15
-19 16 -28 5 -10 -13 -30 -14 -49 -3 -5 4 -21 5 -35 4 -14 -1 -34 4 -45 11
-17 12 -22 11 -42 -8 -13 -12 -23 -19 -23 -15 0 3 -14 1 -30 -5 -19 -6 -32
-19 -36 -34 l-6 -25 -14 27 c-8 14 -14 31 -14 38 0 6 -11 19 -24 29 -16 12
-26 33 -31 62 -4 29 -14 50 -28 60 -28 20 -32 19 -51 -10z m206 -275 c16 -16
38 -30 49 -30 23 0 25 -23 4 -40 -8 -7 -15 -19 -15 -28 0 -8 -7 -24 -17 -34
-15 -17 -15 -18 1 -18 25 0 32 -29 10 -44 -17 -13 -47 -6 -64 15 -3 3 -15 11
-28 18 -14 7 -20 17 -15 24 4 7 8 18 8 24 0 7 4 13 8 13 11 -1 37 27 37 38 0
6 5 12 12 14 8 3 5 13 -10 33 -40 50 -26 61 20 15z m88 -642 c0 -18 -2 -20 -9
-8 -6 8 -7 18 -5 22 9 14 14 9 14 -14z m72 -62 c4 -6 14 -4 24 5 16 13 16 12
6 -8 -16 -29 -51 -53 -78 -53 -26 0 -43 48 -22 62 16 10 61 6 70 -6z m228
-147 c14 -8 27 -16 30 -19 3 -3 21 -13 40 -23 48 -24 8 -14 -64 16 l-59 25
-56 -27 c-61 -30 -102 -54 -253 -148 -102 -65 -128 -74 -128 -48 0 17 23 33
252 164 154 89 175 98 193 87 11 -7 31 -19 45 -27z m221 -126 c13 -15 12 -15
-8 -4 -24 12 -29 21 -14 21 5 0 15 -7 22 -17z m93 -52 c4 -5 -3 -7 -14 -4 -23
6 -26 13 -6 13 8 0 17 -4 20 -9z m-344 -37 c0 -24 3 -26 29 -21 31 7 86 -14
94 -36 3 -9 -12 -11 -61 -9 -40 3 -67 0 -72 -7 -7 -12 -65 2 -84 20 -12 10 10
36 49 61 40 24 45 23 45 -8z m181 -101 c5 -14 7 -33 4 -41 -4 -12 -3 -12 9 -3
19 16 25 -4 36 -124 13 -144 12 -235 -2 -235 -6 0 -9 3 -5 6 3 4 0 18 -7 33
-7 14 -17 44 -21 66 -4 22 -10 44 -13 50 -3 5 -7 53 -7 105 -1 52 -6 112 -12
133 -12 43 2 51 18 10z m-381 2 c-9 -10 -9 -15 -1 -15 6 0 11 -7 11 -16 0 -8
5 -12 10 -9 6 3 10 -4 10 -17 0 -13 5 -29 10 -34 13 -13 3 -44 -14 -44 -7 0
-7 -3 2 -8 8 -5 14 -39 16 -93 4 -88 11 -119 28 -119 5 0 12 9 15 20 8 29 33
25 33 -5 0 -14 5 -25 10 -25 6 0 10 11 10 25 0 43 29 30 36 -15 9 -57 24 -60
24 -6 0 25 5 46 10 46 6 0 10 -7 10 -15 0 -8 4 -15 9 -15 5 0 11 7 15 15 3 9
17 15 33 14 18 0 23 -3 13 -7 -8 -4 -17 -23 -19 -42 -1 -19 -5 -38 -7 -41 -2
-4 -43 -7 -91 -9 -49 -1 -119 -3 -156 -5 -62 -3 -69 -1 -76 18 l-8 21 -5 -22
c-4 -15 -14 -22 -30 -22 l-23 0 -3 181 c-2 128 0 185 9 195 19 23 27 17 38
-28 8 -35 10 -37 9 -13 -1 68 1 73 40 88 47 20 47 20 32 2z m263 -86 l62 -1
-60 -10 c-33 -5 -64 -13 -69 -18 -14 -14 3 -80 24 -88 18 -7 18 -8 -4 -28 -23
-19 -24 -19 -35 -2 -8 13 -25 18 -64 19 l-52 1 48 8 c27 5 50 10 52 12 1 2 5
20 9 40 6 31 3 39 -15 49 -12 6 -39 9 -60 6 -22 -3 -39 -1 -39 4 0 5 23 9 51
9 43 0 52 3 56 20 l6 21 14 -21 c11 -16 26 -20 76 -21z m97 -319 c12 -8 9 -9
-12 -8 -15 1 -24 6 -22 10 7 10 16 10 34 -2z m-436 -46 c3 -9 4 -20 1 -25 -3
-5 -1 -19 5 -31 11 -22 11 -22 -4 -3 -8 11 -20 26 -27 33 -12 14 -6 42 10 42
5 0 12 -7 15 -16z"/>
<path d="M2550 2360 c0 -5 5 -10 10 -10 6 0 10 5 10 10 0 6 -4 10 -10 10 -5 0
-10 -4 -10 -10z"/>
<path d="M2775 2360 c3 -5 12 -7 20 -3 21 7 19 13 -6 13 -11 0 -18 -4 -14 -10z"/>
<path d="M2555 2202 c6 -11 -1 -13 -31 -10 l-39 3 0 -45 c0 -25 -4 -48 -9 -51
-5 -4 -5 -12 -1 -19 5 -7 9 -34 9 -59 1 -30 5 -46 14 -45 6 1 27 2 45 2 l32 2
-1 52 c-2 57 8 78 36 78 14 0 19 10 22 40 3 39 3 40 -27 40 -17 0 -37 6 -44
13 -11 10 -12 9 -6 -1z m15 -107 c-5 -6 -7 -15 -3 -18 3 -4 -12 -7 -34 -7 -22
0 -43 3 -46 7 -14 14 16 32 54 31 30 0 37 -3 29 -13z"/>
<path d="M2613 2093 c-20 -8 -15 -19 10 -20 12 0 16 1 9 4 -6 3 -10 9 -6 14 6
10 5 10 -13 2z"/>
<path d="M2470 1960 c0 -5 3 -10 8 -10 4 0 5 -22 4 -49 l-4 -49 50 -3 c78 -6
84 -3 77 39 -14 86 -14 86 -34 68 -22 -20 -67 -21 -75 -1 -6 17 -26 21 -26 5z"/>
<path d="M2520 1966 c0 -2 7 -7 16 -10 8 -3 12 -2 9 4 -6 10 -25 14 -25 6z"/>
<path d="M2630 1954 c0 -8 5 -12 10 -9 6 3 10 10 10 16 0 5 -4 9 -10 9 -5 0
-10 -7 -10 -16z"/>
<path d="M2627 1837 c3 -5 -4 -6 -18 -2 -17 4 -20 3 -10 -3 10 -7 10 -11 1
-17 -6 -4 -18 1 -26 11 -11 14 -14 15 -11 4 4 -12 -3 -16 -29 -17 -19 0 -34 4
-34 11 0 6 -5 4 -10 -4 -5 -8 -9 -39 -8 -68 1 -38 4 -49 10 -38 7 12 24 16 63
16 l55 0 0 45 c0 38 3 45 17 43 10 -2 19 4 21 13 1 9 -4 16 -12 16 -8 0 -13
-5 -9 -10z"/>
<path d="M2613 1713 c8 -12 -21 -20 -93 -25 l-35 -3 -3 -57 -3 -58 33 -1 c18
-1 50 0 72 1 23 1 42 -4 48 -12 12 -18 3 58 -11 95 -13 34 -7 48 17 40 18 -7
17 -5 -12 17 -11 8 -17 10 -13 3z"/>
<path d="M2484 1531 c-2 -2 -4 -24 -4 -48 l0 -43 48 -1 c26 -1 55 0 65 1 10 1
24 -3 31 -9 9 -8 12 2 11 46 l-2 56 -72 1 c-40 0 -75 -1 -77 -3z"/>
<path d="M2513 1402 c-31 -3 -33 -5 -33 -45 l0 -42 75 0 c41 0 75 2 76 5 6 26
3 73 -4 77 -11 7 -69 9 -114 5z"/>
<path d="M2625 1290 c-3 -5 -37 -10 -76 -10 l-69 0 0 -45 c0 -38 3 -45 20 -45
11 0 20 -5 20 -12 0 -9 3 -9 12 0 14 14 88 16 88 2 0 -5 4 -10 9 -10 6 0 8 10
6 22 -3 12 1 26 8 30 7 5 8 8 1 8 -6 0 -10 15 -9 35 2 37 0 41 -10 25z"/>
<path d="M2657 1211 c-3 -12 -1 -19 4 -15 8 5 11 -212 2 -228 -7 -13 -29 3
-30 22 -1 13 2 18 10 13 8 -4 8 -1 -1 9 -9 11 -10 18 -2 23 5 3 10 1 10 -6 0
-7 3 -10 6 -6 3 3 3 11 -1 17 -5 8 -11 7 -22 -2 -19 -16 -111 -20 -137 -6 -12
7 -16 7 -12 0 3 -6 -1 -18 -10 -26 -8 -9 -11 -16 -5 -16 6 0 11 -7 11 -15 0
-8 -9 -15 -20 -15 -11 0 -20 5 -20 11 0 5 5 7 12 3 7 -5 8 -3 3 5 -5 9 -15 5
-37 -16 -16 -15 -46 -33 -66 -39 l-37 -11 40 -11 c22 -7 57 -12 78 -12 34 0
37 -2 37 -30 0 -16 3 -30 6 -30 3 0 45 14 94 30 94 32 162 37 234 19 52 -13
142 -8 111 6 -56 26 -145 90 -173 125 -39 47 -47 69 -56 140 -8 66 -21 92 -29
61z"/>
<path d="M2489 1172 c9 -7 10 -12 2 -16 -6 -4 -11 -27 -11 -52 l0 -44 71 0
c50 0 68 -3 63 -12 -4 -7 -3 -8 4 -4 7 4 12 14 12 22 0 8 5 14 11 14 5 0 7 -5
3 -12 -5 -7 -3 -8 6 -3 10 6 9 11 -4 21 -10 7 -16 22 -15 36 2 13 0 24 -5 25
-5 1 -13 7 -17 15 -7 11 -9 11 -9 -1 0 -11 -3 -11 -17 0 -10 8 -14 9 -10 2 6
-9 -4 -12 -32 -10 -22 0 -39 5 -38 10 1 5 -5 12 -13 14 -12 4 -12 3 -1 -5z"/>
</g>
</svg>
