<svg width="770" height="186" viewBox="0 0 770 186" fill="none" xmlns="http://www.w3.org/2000/svg">
<path d="M1 143.5C101 128.171 250.5 149.5 259 149.5C279.004 149.508 298.244 149.75 299.971 149.75C302.165 149.75 309.114 151.578 311.308 153.041C313.503 154.504 314.234 155.601 314.6 151.212C314.892 147.702 314.722 64.9039 314.6 23.9439C314.234 20.2867 315.185 15.1667 321.914 23.9439C330.325 34.9153 334.348 34.549 324.474 18.4575C314.6 2.36612 310.211 2.36732 308.748 23.9439C307.578 41.2051 308.261 119.882 308.748 157.063C307.895 160.72 309.187 165.621 321.182 155.966C332.931 146.51 332.775 140.491 331.16 138.53M337.64 149.017C334.714 148.285 328.497 146.091 324.474 140.971C321.256 136.875 327.522 137.558 331.057 138.411C331.092 138.449 331.126 138.488 331.16 138.53M337.64 149.017C340.565 149.75 342.394 150.482 344.223 151.212C346.051 151.943 346.783 150.846 347.148 149.017M337.64 149.017C334.592 149.261 328.277 150.261 327.4 152.309C326.522 154.357 327.034 158.038 327.4 159.623H463.811C461.007 155.112 458.764 146.091 472.223 146.091C474.173 146.945 477.708 141.63 476.245 113.543C474.783 85.456 474.417 45.0324 474.417 28.3314C475.148 24.3086 474.929 18.6766 468.2 28.3314C467.157 29.9002 463.793 32.6533 457.96 32.8498M347.148 149.017C347.514 147.189 347.514 144.994 349.342 143.897C351.171 142.8 354.462 139.143 357.388 139.509C360.314 139.874 369.823 137.314 370.92 136.583C372.017 135.851 380.794 131.463 382.257 123.051C383.427 116.322 391.765 123.661 395.788 128.171C400.177 133.413 413.342 143.897 430.897 143.897C452.84 143.897 441.868 122.686 445.16 116.834C447.793 112.153 448.207 109.276 448.085 108.423M347.148 149.017C347.88 148.286 352.268 146.53 363.971 145.36C378.6 143.897 392.863 143.897 399.445 143.897C404.712 143.897 441.137 143.41 458.691 143.166L457.96 32.8498M448.085 108.423C450.889 109.154 456.789 110.178 457.96 108.423C459.148 106.64 458.107 92.7915 455.765 86.48M448.085 108.423C444.202 106.824 435.459 103.469 429.8 102.09M430.897 95.2571C434.926 95.1352 444.225 94.9646 449.182 95.2571C455.379 95.6229 453.205 101.474 453.205 100.011C453.205 98.5486 448.085 98.1829 445.16 96.72C442.234 95.2571 442.234 93.7943 442.234 87.5771C442.234 84.0748 444.787 82.5454 447.54 82.2699M430.897 95.2571C428.459 94.2819 429.947 94.599 421.388 92.6971C419.194 92.2095 418.097 93.0629 417 93.7943C415.745 94.6307 417 95.2571 415.902 95.2571C415.171 95.2571 412.611 95.9886 411.88 96.72C410.782 98.5486 419.194 96.72 412.977 98.5486M430.897 95.2571C428.299 96.712 424.496 99.6196 426.874 101.171M412.977 98.5486C412.626 98.6518 414.357 100.093 415.171 100.011C418.828 99.6457 416.268 101.596 416.268 101.84M412.977 98.5486C412.27 98.5486 411.542 98.9143 410.417 98.9143M416.268 101.84L417.731 102.937C420.291 103.669 419.267 99.6457 421.022 99.6457C422.778 99.6457 425.655 100.663 426.874 101.171M416.268 101.84L417 102.937C417 103.669 417 105.57 417 107.326C417 109.52 417 110.617 415.537 112.08C414.144 113.473 412.611 113.543 411.148 113.543C409.685 113.543 405.297 111.86 405.297 115.006C405.297 115.737 405.647 116.465 408.257 116.108M426.874 101.171C427.285 101.439 427.882 101.667 428.703 101.84C429.053 101.914 429.419 101.998 429.8 102.09M429.8 102.09C430.287 103.47 431.116 106.814 430.531 109.154C429.8 112.08 430.531 111.714 431.262 113.543C431.994 115.371 431.628 116.469 430.165 117.931C428.703 119.394 427.244 119.208 426.551 119.394M411.88 125.977C412.611 124.88 413.342 124.149 415.902 122.32C418.462 120.491 419.194 120.857 422.851 120.126C424.959 119.704 425.609 119.647 426.551 119.394M411.88 125.977C410.597 127.902 410.417 129.269 411.148 130.366M411.88 125.977C412.367 125.611 413.805 125.169 415.537 124.88C417.731 124.514 419.194 124.149 421.388 123.051C423.582 121.954 425.777 119.576 426.551 119.394M411.148 130.366C411.733 131.243 412.977 132.56 411.88 134.023C411.148 134.267 409.32 134.315 407.857 132.56M411.148 130.366C410.904 131.843 409.905 134.35 407.857 132.56M407.857 132.56C406.627 131.084 405.231 130.766 404.56 129.269M404.56 129.269C404.234 128.54 404.693 127.457 404.2 125.977C402.737 121.589 404.99 119.945 406.394 119.394C408.257 118.663 408.954 118.663 411.148 118.297C413.313 117.936 421.022 116.469 421.022 112.446C419.803 113.543 416.415 115.737 412.611 115.737C411.052 115.737 409.532 115.934 408.257 116.108M404.56 129.269C402.977 126.952 401.284 122.84 402.005 120.857C403.468 116.834 407.195 116.247 408.257 116.108M455.765 86.48C455.224 85.0219 453.754 83.9661 453.205 83.5543C451.928 82.5961 449.674 82.0564 447.54 82.2699M455.765 86.48C457.287 85.7486 458.179 83.1886 453.205 78.8C446.988 73.3143 449.548 73.68 449.914 68.9257C450.28 64.1714 447.699 54.8698 438.943 56.4914C427.605 58.5909 431.262 60.5143 431.628 61.6114M455.765 86.48C451.257 85.8676 443.301 84.1681 447.54 82.2699M431.628 61.6114C432.091 62.9992 429.94 66.5062 432.725 69.2914C433.091 69.6571 432.315 73.3143 433.822 73.3143C434.188 73.3143 434.92 75.8743 436.017 77.3371C436.623 78.1458 437.23 77.8369 437.774 77.3371M431.628 61.6114C436.017 60.1486 439.308 60.88 442.234 67.4629C444.041 71.5285 443.331 72.5829 442.234 74.0457C441.137 75.5086 439.674 75.8743 438.943 76.24C438.615 76.4036 438.215 76.9328 437.774 77.3371M437.774 77.3371C438.651 77.7029 440.259 78.7269 439.674 79.8971C438.943 81.36 438.211 81.36 436.017 82.8229C433.822 84.2857 429.434 86.8457 428.337 88.6743C427.24 90.5029 429.068 93.4286 427.24 91.9657C425.411 90.5029 420.657 86.8457 418.462 86.48C416.52 86.1562 417.237 84.6514 416.871 84.2857C416.505 83.92 415.69 83.4605 416.268 81.7257C416.634 80.6286 416.634 79.8971 416.268 78.8C415.751 77.2484 413.342 75.1429 412.977 74.7771C412.718 74.5185 412.245 71.12 411.88 70.7543C411.514 70.3886 409.32 72.5829 409.685 73.68C407.857 73.68 406.76 73.68 404.931 75.1429C403.712 74.2895 401.42 72.8023 400.542 73.68C400.908 74.6552 401.786 76.752 402.371 77.3371C403.102 78.0686 402.371 86.1143 407.125 86.1143C406.638 87.2114 406.248 89.3326 408.588 89.04C411.514 88.6743 417.731 85.3829 417 83.1886C416.268 80.9943 407.857 85.3829 405.297 89.4057C404.509 90.6442 403.688 91.6731 401.64 91.9657C399.08 92.3314 397.982 92.3314 397.251 93.0629C396.52 93.7943 395.538 95.4116 396.52 96.72C397.617 98.1829 398.714 96.72 399.445 95.6229C400.177 94.5257 399.811 94.16 403.468 94.5257C407.125 94.8914 408.588 94.16 408.588 94.5257C408.588 94.8914 409.685 95.6229 407.857 96.3543C406.028 97.0857 404.2 96.72 403.468 97.4514C402.737 98.1829 402.005 99.5834 402.371 100.377C402.737 101.171 403.103 101.84 404.2 101.109C405.297 100.377 404.931 98.9143 406.76 98.9143C407.57 98.9143 409.018 98.9143 410.417 98.9143M410.417 98.9143C410.051 99.28 409.539 100.962 410.417 104.766C411.294 108.569 412.002 110.495 412.245 110.983C411.758 110.373 410.417 109.447 408.954 110.617C407.125 112.08 406.028 112.187 406.76 112.811C407.491 113.436 410.121 113.543 408.257 112.08C406.394 110.617 392.862 101.109 386.28 102.937C379.697 104.766 373.114 108.789 366.531 116.834C359.948 124.88 350.805 129.269 350.074 132.194C349.342 135.12 354.462 140.606 355.925 140.606C357.388 140.606 355.56 134.389 353.731 133.291C351.903 132.194 348.977 132.194 347.148 133.291C345.32 134.389 340.2 137.314 339.834 138.411C339.468 139.509 347.148 146.823 348.245 146.091C349.343 145.36 339.834 138.411 338.371 138.411C337.201 138.411 333.076 138.49 331.16 138.53M331.16 138.53L331.057 46.2514C331.057 38.0594 333.007 33.8171 333.983 32.72C371.042 32.3543 447.099 31.8423 454.857 32.72C455.96 32.8447 456.993 32.8823 457.96 32.8498M457.96 32.8498C459.788 29.1494 465.201 20.7246 472.223 16.6286C481 11.5086 483.194 10.4114 483.56 28.3314C483.852 42.6674 482.219 117.444 481.365 153.041C480.756 154.138 475.221 153.625 462.348 145.726C459.422 143.531 459.057 141.557 476.611 148.286C484.901 149.139 505.715 153.449 521.594 150.846C542 147.5 719 142 769 144" stroke="url(#paint0_linear_3899_4581)" stroke-width="2" stroke-linejoin="round"/>
<defs>
<linearGradient id="paint0_linear_3899_4581" x1="385" y1="7" x2="385" y2="161.603" gradientUnits="userSpaceOnUse">
<stop stop-color="#A7CF48"/>
<stop offset="1" stop-color="#48CF8E"/>
</linearGradient>
</defs>
</svg>
