<svg width="400" height="400" viewBox="0 0 400 400" fill="none" xmlns="http://www.w3.org/2000/svg">
<path d="M83.4086 85.635C83.4086 85.635 -27.108 182.674 59.1491 307.567C59.1491 307.567 95.538 368.569 185.389 368.842C185.389 368.842 254.125 375.508 311.63 303.128C311.63 303.128 297.255 293.725 271.196 320.411C245.665 346.564 188.86 348.169 171.367 319.906C170.895 319.142 171.517 318.172 172.407 318.283C175.438 318.656 182.229 319.892 195.497 323.964C215.265 330.028 234.582 327.783 238.625 302.4C238.625 302.4 209.874 303.972 199.315 296.336C188.759 288.697 163.151 267.134 143.384 268.033C123.617 268.931 96.4366 274.097 80.7133 259.945C64.9897 245.794 11.2282 215.919 83.4086 85.635Z" fill="#094915"/>
<path d="M209.799 372.258C209.799 372.258 265.823 366.461 314.342 311.35C314.342 311.35 322.411 304.719 328.414 311.703C328.414 311.703 332.145 314.306 324.334 319.983C319.184 323.728 249.632 382.142 209.799 372.258Z" fill="#308A28"/>
<path d="M246.487 373.378C246.487 373.378 295.606 349.797 323.086 328.294C323.086 328.294 330.797 324.339 333.195 327.333C335.589 330.328 329.331 335.719 329.331 335.719C329.331 335.719 305.639 356.383 246.487 373.378Z" fill="#308A28"/>
<path d="M285.989 130.132C287.995 131.241 289.603 132.82 291.27 134.342C292.684 135.692 292.906 136.984 291.598 138.546C289.978 140.482 289.781 142.378 290.323 144.857C291.225 148.983 290.85 153.154 288.931 157.051V157.05C288.434 158.478 287.761 159.796 286.625 160.833C285.47 162.459 283.839 163.543 282.231 164.647C280.611 166.143 278.856 167.451 276.89 168.462C272.645 171.918 266.651 172.018 263.62 168.1C261.94 165.932 260.74 166.224 258.733 167.05C256.343 168.034 253.773 168.479 251.156 168.462L251.029 168.457C250.81 168.449 250.591 168.44 250.374 168.43C250.136 168.456 249.901 168.481 249.663 168.507C249.338 168.514 249.014 168.516 248.69 168.521C246.323 168.95 243.928 168.74 241.545 168.779C241.388 168.882 241.259 169.029 241.185 169.255C240.948 169.975 241.029 170.707 241.713 171.236C242.448 171.804 243.256 172.258 244.054 172.724C249.563 175.933 255.035 179.207 260.253 182.875C263.28 185.001 266.26 187.218 268.636 190.11C269.704 191.411 270.449 192.847 270.442 194.619C270.436 195.956 271.349 196.784 272.479 197.222C274.482 197.999 276.412 198.912 278.303 199.923C278.314 199.929 278.328 199.936 278.342 199.944L278.35 199.774C280.57 200.655 282.525 201.952 284.27 203.575C285.67 204.353 286.742 205.492 287.523 206.85C288.778 209.031 287.525 211.188 285.02 211.259C282.05 211.342 279.581 209.91 277.079 208.595C273.843 206.892 270.813 204.802 267.406 203.427C264.553 202.277 262.894 203.228 262.366 206.231L262.364 206.244C262.305 206.576 262.245 206.911 262.237 207.245C262.195 209.097 261.668 210.8 260.727 212.384L260.725 212.386H260.727C260.397 213.427 259.756 214.157 258.665 214.433C257.968 214.955 257.25 215.44 256.385 215.648C254.126 216.83 251.668 217.073 249.183 217.161C242.421 217.404 235.902 216.314 229.695 213.55C227.665 212.739 225.783 211.668 224.244 210.104C222.5 208.336 221.324 208.21 219.316 209.725C218.515 210.33 217.81 211.108 216.719 211.202C215.152 211.957 214.189 212.852 214.646 214.936C215.077 216.907 214.267 218.89 213.575 220.768C212.576 223.487 211.235 226.029 209.367 228.268C208.312 229.533 208.248 230.874 208.973 232.354C211.825 238.179 213.211 244.374 213.513 250.831C213.533 251.267 213.445 251.758 213.803 252.079C215.148 253.293 215.152 254.971 215.266 256.545C215.541 260.304 215.311 264.058 214.869 267.798C214.497 270.952 214.834 274.021 215.908 277.014C216.505 278.683 216.725 280.422 216.741 282.189C216.799 288.633 216.993 295.083 216.126 301.5C215.853 301.883 215.455 301.839 215.065 301.794C210.986 301.322 206.948 300.669 203.134 299.039C202.686 298.847 202.21 298.694 201.826 298.392L201.679 298.275C198.671 295.897 195.663 293.519 192.81 290.956C192.677 290.73 192.528 290.522 192.369 290.328L180.472 281.961C180.446 281.944 180.42 281.925 180.392 281.903C177.227 280.1 174.06 278.294 170.895 276.49C171.298 276.251 171.333 275.877 171.25 275.473C170.803 273.278 170.481 271.055 169.666 268.95C168.93 268.403 169.008 267.487 168.752 266.751C167.72 263.789 166.208 261.086 164.568 258.442C162.188 255.331 161.262 251.894 162.244 248.035C162.389 247.467 162.481 246.902 162.531 246.315C162.787 243.231 166.038 241.251 169.024 242.18C171.693 243.009 174.461 243.108 177.236 242.734C178.865 242.514 180.486 242.407 182.04 241.684C184.903 240.349 187.432 238.559 189.494 236.218C191.706 233.705 193.963 231.211 195.867 228.442C198.037 225.286 198.551 220.043 196.527 216.576C195.978 215.634 195.563 214.582 195.045 213.601C193.694 212.021 191.807 211.195 190.125 210.078C188.23 208.818 187.671 207.632 188.361 205.558C189.325 202.671 189.346 199.893 188.065 197.122L188.068 197.134C186.499 195.367 184.931 193.602 183.363 191.836L183.376 191.852C181.551 190.971 180.123 189.504 178.391 188.477C177.77 188.109 176.854 188.063 176.606 187.164C174.96 187.064 173.758 185.864 172.237 185.392C170.805 184.948 169.397 184.473 167.908 184.249C163.991 183.662 161.37 181.327 159.52 177.972C159.332 177.63 159.154 177.286 158.972 176.943C158.726 176.492 158.539 176.033 158.39 175.564C157.774 173.981 157.62 172.311 157.69 170.584C157.538 168.301 157.565 166.014 157.547 163.73C157.46 162.273 157.382 160.816 157.39 159.359C157.357 158.899 157.315 158.439 157.263 157.979C157.09 156.451 155.95 156.83 155.219 156.881C151.103 157.174 147.584 158.911 144.527 161.635C144.203 161.924 143.928 162.294 143.42 162.244V162.245C141.433 163.869 139.916 165.935 138.211 167.821C138.01 168.044 137.843 168.3 137.652 168.53C137.525 168.727 137.402 168.926 137.283 169.131C135.555 171.942 133.366 174.423 131.52 177.156C130.138 179.2 128.697 181.212 127.251 183.217C127.019 183.498 126.803 183.791 126.595 184.087C125.877 185.551 124.856 186.819 123.803 188.067C123.448 188.624 123.093 189.18 122.738 189.736L122.322 190.389C121.116 193.06 119.529 195.495 117.759 197.82C117.729 197.889 117.681 197.956 117.609 198.019C116.739 199.235 115.955 200.501 115.3 201.843C114.763 203.354 114.196 204.845 112.936 205.937C112.753 207.118 112.134 208.115 111.514 209.084C110.12 211.259 109.349 213.746 107.978 215.926C107.95 216 107.934 216.078 107.93 216.156V216.157C107.972 217.219 107.443 218.125 107.124 219.089C106.425 221.214 106.054 223.414 105.562 225.587C104.902 228.5 105.105 231.399 105.051 234.311C105.032 235.339 104.555 235.946 103.549 236.143C102.321 237.214 101.291 238.507 100.925 240.061C100.382 242.373 98.804 243.539 96.9304 244.488C96.7423 244.611 96.5529 244.731 96.3604 244.851C96.2056 244.948 96.0506 245.048 95.8959 245.146C93.2309 247.053 90.5604 248.956 87.9026 250.877C86.644 251.787 85.4156 252.743 84.1743 253.679C84.1729 253.679 84.1729 253.681 84.1729 253.681C84.1295 253.775 84.0773 253.829 84.0195 253.859C82.8881 255.189 81.6223 256.369 80.1031 257.26C80.1054 257.433 80.1093 257.607 80.1129 257.78L80.1145 257.86C80.1031 258.264 80.0898 258.679 80.0798 259.081C79.8412 259.054 79.6315 258.976 79.5215 258.738C79.2451 258.736 79.167 258.611 78.9443 258.355C74.9209 255.927 71.3806 252.886 68.0429 249.612C61.9331 243.618 57.0606 236.753 53.7098 228.847C53.4004 228.627 53.4262 228.287 53.3945 227.967C55.3173 225.961 56.6454 223.494 58.4595 221.401C59.1279 220.629 59.6618 219.701 60.4431 219.076C62.5945 217.355 63.1456 215.082 63.4581 212.467C64.0759 207.283 65.6645 202.532 69.5895 198.65C74.8109 193.484 79.7023 187.983 84.7443 182.634C85.3056 182.04 85.8626 181.425 86.6206 181.059C87.9937 180.023 88.9312 178.462 90.5862 177.766C92.3601 177.183 93.1154 175.767 93.8126 174.152C95.3187 170.667 97.3398 167.455 99.4679 164.316C100.46 162.247 101.758 160.424 103.661 159.084C103.827 158.873 103.992 158.662 104.158 158.449C104.786 157.131 105.771 156.167 107.066 155.509C107.39 155.224 107.715 154.939 108.039 154.654C110.78 152.257 113.731 150.136 116.651 147.967C120.416 145.171 121.091 141.314 118.61 137.331C117.043 134.813 115.981 132.137 115.913 129.129C115.245 121.178 119.18 115.055 126.676 112.383C128.857 111.112 131.071 109.893 133.212 108.561C136.176 106.716 139.144 104.862 141.692 102.438C142.175 101.82 142.57 101.095 143.473 100.997V101.001C144.073 100.014 144.919 99.3258 145.963 98.8339C147.348 98.1828 148.416 98.4041 149.118 99.7686C149.608 100.723 150.196 100.79 150.997 100.364C151.897 99.8872 152.778 99.3822 153.57 98.7197C158.879 94.2708 165.09 91.7622 171.812 90.4455C176.385 89.55 181.001 88.9136 185.683 88.9641C190.562 88.9655 195.447 88.7933 200.316 89.0119C207.544 89.3375 214.795 89.4386 221.978 90.4383C227.123 91.1544 232.001 92.7228 236.613 95.1361C238.274 96.0041 240.105 96.5797 241.355 98.0975C241.681 98.3572 242.007 98.6164 242.333 98.875L242.814 99.2578C243.91 99.5239 244.558 100.246 244.893 101.289V101.285C246.016 102.069 246.498 103.202 246.648 104.514C247.172 105.43 247.295 106.425 247.236 107.457C247.431 107.649 247.628 107.841 247.823 108.032C249.155 107.985 250.452 108.212 251.739 108.514C251.826 108.501 251.911 108.519 251.994 108.574C255.799 109.509 257.105 112.501 257.791 115.859C258.326 118.481 258.542 121.163 258.389 123.851C258.328 124.902 258.711 125.344 259.814 125.34C263.178 125.324 266.553 125.13 269.899 125.605C272.139 125.922 274.472 125.725 276.58 126.785C279.834 127.575 283.031 128.495 285.989 130.132Z" fill="#F8BF18"/>
</svg>
