<svg width="141" height="140" viewBox="0 0 141 140" fill="none" xmlns="http://www.w3.org/2000/svg">
<path fill-rule="evenodd" clip-rule="evenodd" d="M90.169 27.0653C90.169 34.8334 83.3494 41.1306 74.937 41.1306C66.5246 41.1306 59.705 34.8334 59.705 27.0653C59.705 19.2973 66.5246 13 74.937 13C83.3494 13 90.169 19.2973 90.169 27.0653ZM45.2793 48.961C46.2628 45.5981 117.443 30.9273 124.301 82.8357H124.284C124.284 82.8357 127.394 87.8187 137.017 86.3704C137.017 86.3704 135.927 92.3598 124.062 89.8806C124.062 89.8806 117.602 116.988 109.122 126.676L96.1943 127.298L91.4094 115.982C91.4094 115.982 85.446 118.159 58.2517 117.381L56.577 127.306L37.1006 126.529L35.0892 116.064C35.0892 116.064 25.0231 111.335 18.723 102.653C18.723 102.653 17.2964 100.174 10.3316 99.2411C10.3316 99.2411 5.60876 91.0752 4.62519 78.2372C4.61371 78.0934 4.59928 77.9437 4.58433 77.7886C4.43767 76.2676 4.24138 74.2317 6.29991 72.1823C6.29991 72.1823 19.3964 71.5687 22.1699 66.2175C24.1902 62.3227 30.0561 55.2941 34.0879 52.8885C35.3199 46.9839 36.096 43.5699 36.7052 40.8901C37.0643 39.3104 37.3654 37.9859 37.6677 36.5567C37.6677 36.5567 45.0577 44.6163 45.2793 48.961ZM31.8992 70.6932C31.8992 73.9988 33.7777 76.6826 36.0993 76.6826C38.4209 76.6826 40.2994 73.9988 40.2994 70.6932C40.2994 67.3875 38.4209 64.7037 36.0993 64.7037C33.7777 64.7037 31.8992 67.3875 31.8992 70.6932ZM88.9283 52.3158C75.8318 47.0055 57.4808 50.6302 56.7099 50.7857C55.5225 51.023 54.8136 51.9967 55.1238 52.9622C55.4339 53.9277 56.6479 54.5168 57.8264 54.2795C58.0036 54.2386 75.3888 50.8266 86.9878 55.5314C87.2625 55.646 87.5637 55.7032 87.8561 55.7196C88.7157 55.7605 89.5486 55.3923 89.9473 54.7295C90.4878 53.8459 90.0271 52.7658 88.9283 52.3158ZM88.6448 90.3306C88.6448 90.3306 90.603 88.6369 91.1701 87.9987H91.1613C92.4018 86.6159 92.9157 84.7258 92.9157 82.7947C92.9157 77.7299 88.4853 73.6306 83.0092 73.6306C77.5331 73.6306 73.0849 77.7299 73.0849 82.7947C73.0849 77.7299 68.6544 73.6306 63.1784 73.6306C57.7023 73.6306 53.2541 77.7299 53.2541 82.7947C53.2541 84.6767 53.8124 86.4604 54.9288 87.8841L73.1115 104.674L88.6448 90.3306Z" fill="url(#paint0_linear_866_4899)"/>
<defs>
<linearGradient id="paint0_linear_866_4899" x1="70.7584" y1="13" x2="70.7584" y2="127.306" gradientUnits="userSpaceOnUse">
<stop stop-color="#A7CF48"/>
<stop offset="1" stop-color="#48CF8E"/>
</linearGradient>
</defs>
</svg>
