<svg width="343" height="186" viewBox="0 0 343 186" fill="none" xmlns="http://www.w3.org/2000/svg">
<path d="M1 144.874C19.4076 145.728 93.5257 149.963 102.303 152.304C113.274 155.229 126.806 157.789 130.463 157.789C134.12 157.789 143.994 156.692 143.263 150.475C142.531 144.258 137.777 155.595 130.463 141.698C126.684 142.551 118.614 144.404 116.566 144.989C114.006 145.721 105.229 140.966 107.423 135.846C109.617 130.726 111.811 145.355 117.663 146.086C123.514 146.818 127.903 145.72 133.023 140.235C138.143 134.749 140.337 132.189 145.091 130.726C149.846 129.263 161.183 121.949 164.109 113.538C167.034 105.126 167.4 91.5947 134.851 93.789C102.303 95.9833 111.446 102.2 92.0629 101.103C76.5566 100.225 88.5276 88.0594 96.4514 82.086C106.448 76.7222 127.757 65.2632 133.023 62.3374C139.606 58.6803 156.429 46.6117 140.337 40.3946C124.246 34.1774 100.84 52.8289 96.4514 55.0232C92.0629 57.2174 79.6286 69.2864 88.04 84.2807C96.4514 99.275 149.114 56.1207 149.48 50.2692C149.846 44.4178 151.309 40.7599 156.063 55.0232C160.817 69.2864 168.131 73.675 172.886 72.2121C177.64 70.7492 176.177 69.2864 168.497 59.7778C160.817 50.2692 158.989 37.1035 165.206 30.5207C171.423 23.9378 184.846 23.4995 197.754 40.3946C202.509 46.6171 184.629 38.9319 182.029 40.3946C176.177 43.6862 176.177 45.5148 175.811 46.6119C175.446 47.7091 173.983 48.4405 172.886 48.0748C171.789 47.7091 172.154 44.4176 171.057 44.0519C169.96 43.6862 169.594 43.3205 168.497 44.0519C167.619 44.6371 165.937 46.9776 165.206 48.0748C164.95 48.3605 164.893 48.7547 165.206 50.2692C163.743 46.612 161.695 38.4198 165.206 34.9091C169.594 30.5207 178.371 25.7662 184.223 31.9834C190.074 38.2005 194.097 40.0289 191.903 45.1491C189.709 50.2692 188.611 47.7094 188.246 50.2692C187.88 52.8291 188.246 53.5601 188.246 55.0232C188.246 56.1936 187.758 57.2176 187.514 57.5834H184.223C184.467 58.3148 184.662 59.9239 183.491 60.5091C182.321 61.0942 182.029 61.9718 182.029 62.3374L180.566 64.1662C181.175 64.8976 179.469 65.838 178.737 65.6291C176.177 64.8976 167.766 63.4348 163.011 52.8291C158.257 42.2234 159.354 40.7605 159.72 38.9319C160.086 37.1034 146.189 38.2007 148.749 46.6119C150.797 53.3409 162.28 63.069 167.766 67.0919C167.644 78.9167 170.765 103.59 184.223 107.686C197.681 111.782 211.773 110.368 217.137 109.149L224.873 91.5948M270.897 94.1548C269.922 94.2767 271.19 97.4462 284.063 109.149C296.936 120.852 298.448 138.65 297.594 146.086C318.074 148.281 327.217 141.332 328.68 139.869C330.143 138.406 338.348 127.893 335.629 138.777C333.8 146.096 318.44 150.109 313.686 151.206C309.882 152.084 299.91 150.109 295.4 149.012C295.156 150.109 294.157 152.084 292.109 151.206C289.549 150.109 251.149 153.766 229.937 151.206C208.726 148.646 182.029 152.304 175.811 152.304C169.594 152.304 135.949 153.766 129.366 153.766C122.783 153.766 105.594 150.475 104.131 148.281C102.669 146.086 102.303 146.086 105.594 137.675C108.886 129.263 109.983 140.235 110.349 134.749C110.714 129.263 150.211 103.298 148.383 107.686C146.554 112.075 120.589 123.778 102.303 123.778C84.0171 123.778 82.1886 101.835 84.7486 104.395C86.7966 106.443 98.5238 101.591 104.131 98.9091C112.421 95.13 130.682 86.5479 137.411 82.4519C144.141 78.3559 146.554 82.6957 146.92 85.3776C148.992 89.8881 153.43 99.4942 154.6 101.835C158.257 109.149 171.089 121.704 182.029 124.875C195.926 128.903 205.8 125.241 208.36 123.778C210.408 122.607 209.457 112.811 208.36 113.538C205.434 113.538 206.751 119.609 207.629 120.486C208.726 121.583 213.846 118.658 216.406 118.292C218.966 117.926 224.817 112.075 225.549 110.978C226.28 109.881 226.646 106.223 226.646 102.932C226.646 99.6405 226.646 97.0805 228.474 92.3262C229.937 88.5228 227.865 87.5719 226.646 87.5719L224.873 91.5948M270.897 94.1548C270.62 93.0639 270.274 91.8224 269.868 90.4977M270.897 94.1548C270.531 94.1548 267.971 93.7891 262.851 94.1548C257.731 94.5205 255.537 94.1548 254.074 94.8862C252.611 95.6176 250.417 96.3491 249.32 97.0805C248.223 97.8119 246.76 100.372 246.76 101.835C246.76 103.298 247.491 106.589 248.589 106.955C249.466 107.247 250.417 107.808 250.783 108.052C251.392 106.589 251.075 103.298 244.931 101.835C238.787 100.372 233.35 94.3986 231.4 91.5948C231.4 90.7415 231.254 88.8154 230.669 87.9376C230.083 87.0599 227.743 86.8405 226.646 86.8405C225.83 87.9376 224.332 90.4245 224.873 91.5948M250.051 93.4234C246.029 88.6691 250.417 73.3091 257.731 72.2119C262.752 71.4589 267.413 82.4966 269.868 90.4977M250.051 93.4234C254.074 98.1776 259.56 86.2798 259.56 79.5314C259.56 76.6057 258.097 72.2119 255.903 71.4805C253.709 70.7491 250.051 70.0176 248.954 70.7491C248.077 71.3342 246.394 73.1872 245.663 74.0405L238.349 74.6765M250.051 93.4234C249.174 93.1308 248.467 89.6443 248.223 87.9376C248.101 87.9376 247.345 87.9376 245.297 87.9376C242.737 87.9376 241.274 87.9376 239.811 87.9376C238.349 87.9376 237.617 86.1091 237.617 85.3776C237.617 84.6462 238.349 85.0119 239.811 85.0119C241.274 85.0119 243.469 85.3776 244.566 85.0119C245.663 84.6462 245.663 82.8176 245.663 82.4519C245.663 82.0862 243.834 81.7205 243.103 82.4519C242.371 83.1834 240.543 83.5491 238.714 83.1834C236.886 82.8176 236.886 81.7205 235.789 80.6234C234.911 79.7456 235.423 77.8196 235.789 76.9662M235.789 76.9662C234.618 76.9662 236.276 75.5034 237.251 74.7719L238.349 74.6765M235.789 76.9662C237.251 76.9662 239.446 75.6783 238.349 74.6765M255.424 91.5948C257.618 91.2291 257.366 90.4977 262.12 90.4977C266.874 90.4977 268.78 89.7662 269.434 90.4977C269.958 91.0828 269.941 90.7415 269.868 90.4977M224.873 91.5948C226.317 93.0576 229.498 96.4222 230.669 98.1777C232.131 100.372 229.937 101.103 231.4 101.103C232.863 101.103 235.057 101.835 235.789 102.932C236.52 104.029 240.909 108.783 242.006 109.881C243.103 110.978 245.663 115.366 247.491 115.732C249.32 116.098 256.269 117.195 257.366 115.732C258.463 114.269 251.149 113.172 249.32 115.001C247.491 116.829 247.857 120.121 250.051 121.949C252.246 123.778 254.074 127.806 255.903 130.361C256.967 131.847 255.537 137.309 254.806 139.503C254.074 141.698 253.343 144.623 253.343 145.355C253.343 146.086 252.977 146.818 251.88 147.549C250.783 148.281 249.686 149.012 248.589 149.743C247.491 150.475 248.223 153.766 245.663 153.401C243.615 153.108 240.909 153.279 239.811 153.401C239.08 151.45 238.349 147.549 241.274 147.549C244.2 147.549 245.419 147.061 245.663 146.818C246.882 144.867 249.32 139.796 249.32 135.115C249.32 129.263 250.563 125.167 250.783 124.875C251.88 123.417 254.074 126.338 254.44 126.703C254.806 127.069 259.926 130.726 262.851 132.189C265.777 133.652 269.593 136.123 271.629 136.943C273.457 137.68 274.554 137.68 274.92 137.68V129.263C274.92 127.069 275.801 123.379 278.943 122.681C282.234 121.949 283.697 122.32 286.257 123.046C285.404 121.218 281.137 117.931 276.749 119.755C270.019 122.551 269.805 132.56 272.726 135.481C273.603 136.358 277.236 141.21 278.943 143.526C277.48 144.38 274.115 146.159 272.36 146.452C270.166 146.818 268.703 148.281 266.509 147.549C264.314 146.818 263.217 146.818 261.389 146.818C259.56 146.818 257.366 146.818 257 148.281C256.701 149.478 255.666 152.388 256.304 153.651C257.803 155.359 302.67 155.064 315.514 152.188C340.017 146.703 337.546 146.5 342.3 146.5" stroke="url(#paint0_linear_2000_20795)" stroke-width="2" stroke-linejoin="round"/>
<defs>
<linearGradient id="paint0_linear_2000_20795" x1="171.65" y1="26.2856" x2="171.65" y2="157.789" gradientUnits="userSpaceOnUse">
<stop stop-color="#A7CF48"/>
<stop offset="1" stop-color="#48CF8E"/>
</linearGradient>
</defs>
</svg>
