<svg width="342" height="186" viewBox="0 0 342 186" fill="none" xmlns="http://www.w3.org/2000/svg">
<path d="M0 149.5C20.3581 149.5 40.2156 149.75 41.971 149.75C44.1653 149.75 51.1139 151.578 53.3082 153.041C55.5025 154.504 56.2339 155.601 56.5996 151.212C56.8922 147.702 56.7215 64.9039 56.5996 23.9439C56.2339 20.2867 57.1848 15.1667 63.9139 23.9439C72.3253 34.9153 76.3482 34.549 66.4739 18.4575C56.5996 2.36612 52.211 2.36732 50.7482 23.9439C49.5779 41.2051 50.2606 119.882 50.7482 157.063C49.8948 160.72 51.187 165.621 63.1825 155.966C74.931 146.51 74.7752 140.491 73.1604 138.53M79.6396 149.017C76.7139 148.285 70.4967 146.091 66.4739 140.971C63.2556 136.875 69.5215 137.558 73.0568 138.411C73.0919 138.449 73.1264 138.488 73.1604 138.53M79.6396 149.017C82.5653 149.75 84.3939 150.482 86.2225 151.212C88.051 151.943 88.7825 150.846 89.1482 149.017M79.6396 149.017C76.592 149.261 70.2773 150.261 69.3996 152.309C68.5219 154.357 69.0339 158.038 69.3996 159.623H205.811C203.007 155.112 200.764 146.091 214.222 146.091C216.173 146.945 219.708 141.63 218.245 113.543C216.782 85.456 216.417 45.0324 216.417 28.3314C217.148 24.3086 216.929 18.6766 210.2 28.3314C209.157 29.9002 205.793 32.6533 199.96 32.8498M89.1482 149.017C89.5139 147.189 89.5139 144.994 91.3425 143.897C93.171 142.8 96.4625 139.143 99.3882 139.509C102.314 139.874 111.822 137.314 112.92 136.583C114.017 135.851 122.794 131.463 124.257 123.051C125.427 116.322 133.765 123.661 137.788 128.171C142.177 133.413 155.342 143.897 172.897 143.897C194.84 143.897 183.868 122.686 187.16 116.834C189.793 112.153 190.207 109.276 190.085 108.423M89.1482 149.017C89.8796 148.286 94.2682 146.53 105.971 145.36C120.6 143.897 134.862 143.897 141.445 143.897C146.712 143.897 183.137 143.41 200.691 143.166L199.96 32.8498M190.085 108.423C192.889 109.154 198.789 110.178 199.96 108.423C201.148 106.64 200.107 92.7915 197.765 86.48M190.085 108.423C186.202 106.824 177.459 103.469 171.8 102.09M172.897 95.2571C176.926 95.1352 186.225 94.9646 191.182 95.2571C197.379 95.6229 195.205 101.474 195.205 100.011C195.205 98.5486 190.085 98.1829 187.16 96.72C184.234 95.2571 184.234 93.7943 184.234 87.5771C184.234 84.0748 186.787 82.5454 189.54 82.2699M172.897 95.2571C170.459 94.2819 171.947 94.599 163.388 92.6971C161.194 92.2095 160.097 93.0629 159 93.7943C157.745 94.6307 159 95.2571 157.902 95.2571C157.171 95.2571 154.611 95.9886 153.88 96.72C152.782 98.5486 161.194 96.72 154.977 98.5486M172.897 95.2571C170.299 96.712 166.496 99.6196 168.874 101.171M154.977 98.5486C154.626 98.6518 156.357 100.093 157.171 100.011C160.828 99.6457 158.268 101.596 158.268 101.84M154.977 98.5486C154.27 98.5486 153.542 98.9143 152.417 98.9143M158.268 101.84L159.731 102.937C162.291 103.669 161.267 99.6457 163.022 99.6457C164.778 99.6457 167.655 100.663 168.874 101.171M158.268 101.84L159 102.937C159 103.669 159 105.57 159 107.326C159 109.52 159 110.617 157.537 112.08C156.144 113.473 154.611 113.543 153.148 113.543C151.685 113.543 147.297 111.86 147.297 115.006C147.297 115.737 147.647 116.465 150.257 116.108M168.874 101.171C169.285 101.439 169.882 101.667 170.702 101.84C171.053 101.914 171.419 101.998 171.8 102.09M171.8 102.09C172.287 103.47 173.116 106.814 172.531 109.154C171.8 112.08 172.531 111.714 173.262 113.543C173.994 115.371 173.628 116.469 172.165 117.931C170.702 119.394 169.244 119.208 168.551 119.394M153.88 125.977C154.611 124.88 155.342 124.149 157.902 122.32C160.462 120.491 161.194 120.857 164.851 120.126C166.959 119.704 167.609 119.647 168.551 119.394M153.88 125.977C152.597 127.902 152.417 129.269 153.148 130.366M153.88 125.977C154.367 125.611 155.805 125.169 157.537 124.88C159.731 124.514 161.194 124.149 163.388 123.051C165.582 121.954 167.777 119.576 168.551 119.394M153.148 130.366C153.733 131.243 154.977 132.56 153.88 134.023C153.148 134.267 151.32 134.315 149.857 132.56M153.148 130.366C152.904 131.843 151.905 134.35 149.857 132.56M149.857 132.56C148.626 131.084 147.231 130.766 146.56 129.269M146.56 129.269C146.234 128.54 146.693 127.457 146.2 125.977C144.737 121.589 146.99 119.945 148.394 119.394C150.257 118.663 150.954 118.663 153.148 118.297C155.313 117.936 163.022 116.469 163.022 112.446C161.803 113.543 158.414 115.737 154.611 115.737C153.052 115.737 151.532 115.934 150.257 116.108M146.56 129.269C144.977 126.952 143.284 122.84 144.005 120.857C145.468 116.834 149.195 116.247 150.257 116.108M197.765 86.48C197.224 85.0219 195.754 83.9661 195.205 83.5543C193.928 82.5961 191.674 82.0564 189.54 82.2699M197.765 86.48C199.287 85.7486 200.179 83.1886 195.205 78.8C188.988 73.3143 191.548 73.68 191.914 68.9257C192.28 64.1714 189.699 54.8698 180.942 56.4914C169.605 58.5909 173.262 60.5143 173.628 61.6114M197.765 86.48C193.257 85.8676 185.3 84.1681 189.54 82.2699M173.628 61.6114C174.091 62.9992 171.94 66.5062 174.725 69.2914C175.091 69.6571 174.315 73.3143 175.822 73.3143C176.188 73.3143 176.92 75.8743 178.017 77.3371C178.623 78.1458 179.23 77.8369 179.774 77.3371M173.628 61.6114C178.017 60.1486 181.308 60.88 184.234 67.4629C186.041 71.5285 185.331 72.5829 184.234 74.0457C183.137 75.5086 181.674 75.8743 180.942 76.24C180.615 76.4036 180.215 76.9328 179.774 77.3371M179.774 77.3371C180.651 77.7029 182.259 78.7269 181.674 79.8971C180.942 81.36 180.211 81.36 178.017 82.8229C175.822 84.2857 171.434 86.8457 170.337 88.6743C169.24 90.5029 171.068 93.4286 169.24 91.9657C167.411 90.5029 162.657 86.8457 160.462 86.48C158.52 86.1562 159.237 84.6514 158.871 84.2857C158.505 83.92 157.69 83.4605 158.268 81.7257C158.634 80.6286 158.634 79.8971 158.268 78.8C157.751 77.2484 155.342 75.1429 154.977 74.7771C154.718 74.5185 154.245 71.12 153.88 70.7543C153.514 70.3886 151.32 72.5829 151.685 73.68C149.857 73.68 148.76 73.68 146.931 75.1429C145.712 74.2895 143.42 72.8023 142.542 73.68C142.908 74.6552 143.786 76.752 144.371 77.3371C145.102 78.0686 144.371 86.1143 149.125 86.1143C148.638 87.2114 148.248 89.3326 150.588 89.04C153.514 88.6743 159.731 85.3829 159 83.1886C158.268 80.9943 149.857 85.3829 147.297 89.4057C146.509 90.6442 145.688 91.6731 143.64 91.9657C141.08 92.3314 139.982 92.3314 139.251 93.0629C138.52 93.7943 137.538 95.4116 138.52 96.72C139.617 98.1829 140.714 96.72 141.445 95.6229C142.177 94.5257 141.811 94.16 145.468 94.5257C149.125 94.8914 150.588 94.16 150.588 94.5257C150.588 94.8914 151.685 95.6229 149.857 96.3543C148.028 97.0857 146.2 96.72 145.468 97.4514C144.737 98.1829 144.005 99.5834 144.371 100.377C144.737 101.171 145.102 101.84 146.2 101.109C147.297 100.377 146.931 98.9143 148.76 98.9143C149.57 98.9143 151.018 98.9143 152.417 98.9143M152.417 98.9143C152.051 99.28 151.539 100.962 152.417 104.766C153.294 108.569 154.002 110.495 154.245 110.983C153.758 110.373 152.417 109.447 150.954 110.617C149.125 112.08 148.028 112.187 148.76 112.811C149.491 113.436 152.121 113.543 150.257 112.08C148.394 110.617 134.862 101.109 128.28 102.937C121.697 104.766 115.114 108.789 108.531 116.834C101.948 124.88 92.8053 129.269 92.0739 132.194C91.3425 135.12 96.4625 140.606 97.9253 140.606C99.3882 140.606 97.5596 134.389 95.731 133.291C93.9025 132.194 90.9767 132.194 89.1482 133.291C87.3196 134.389 82.1996 137.314 81.8339 138.411C81.4682 139.509 89.1482 146.823 90.2453 146.091C91.3425 145.36 81.8339 138.411 80.371 138.411C79.2008 138.411 75.0763 138.49 73.1604 138.53M73.1604 138.53L73.0568 46.2514C73.0568 38.0594 75.0072 33.8171 75.9825 32.72C113.042 32.3543 189.099 31.8423 196.857 32.72C197.96 32.8447 198.993 32.8823 199.96 32.8498M199.96 32.8498C201.788 29.1494 207.201 20.7246 214.222 16.6286C223 11.5086 225.194 10.4114 225.56 28.3314C225.852 42.6674 224.219 117.444 223.365 153.041C222.756 154.138 217.221 153.625 204.348 145.726C201.422 143.531 201.057 141.557 218.611 148.286C226.901 149.139 247.502 150.846 263.594 150.846C279.685 150.846 335.083 148 341.3 148" stroke="url(#paint0_linear_2000_20793)" stroke-width="2" stroke-linejoin="round"/>
<defs>
<linearGradient id="paint0_linear_2000_20793" x1="170.65" y1="7" x2="170.65" y2="161.603" gradientUnits="userSpaceOnUse">
<stop stop-color="#A7CF48"/>
<stop offset="1" stop-color="#48CF8E"/>
</linearGradient>
</defs>
</svg>
