<svg width="228" height="255" viewBox="0 0 228 255" fill="none" xmlns="http://www.w3.org/2000/svg">
    <path d="M82.4589 64.3974C94.2263 88.9743 90.3316 115.361 73.7597 123.335C57.1878 131.308 34.2142 117.848 22.4467 93.2712C10.6793 68.6943 14.574 42.3071 31.1459 34.3338C47.7178 26.3606 70.6914 39.8205 82.4589 64.3974Z" fill="#22D695"/>
    <path d="M149.048 32.3595C160.815 56.9364 156.92 83.3235 140.348 91.2968C123.777 99.2701 100.803 85.8102 89.0355 61.2332C77.2681 36.6563 81.1628 10.2691 97.7347 2.29587C114.307 -5.6774 137.28 7.78252 149.048 32.3595Z" fill="#22D695"/>
    <path d="M215.017 83.9561C213.95 105.297 201.346 122.007 186.866 121.279C172.386 120.551 161.513 102.661 162.581 81.3202C163.648 59.9796 176.252 43.2697 190.732 43.9976C205.212 44.7255 216.085 62.6155 215.017 83.9561Z" fill="#22D695"/>
    <path d="M19.4905 177.506C36.7678 190.02 57.6573 190.615 66.1485 178.835C74.6397 167.055 67.5171 147.361 50.2398 134.847C32.9624 122.332 12.0729 121.737 3.58171 133.517C-4.90947 145.297 2.21311 164.992 19.4905 177.506Z" fill="#22D695"/>
    <path d="M101.299 133.466C105.159 129.712 109.876 125.73 114.338 123.583C118.741 121.465 124.69 120.269 129.974 119.595C138.137 118.553 146.328 119.949 154.013 122.899C177.316 131.843 227.473 154.342 227.995 182.458C228.351 201.633 209.037 207.295 202.692 208.827C185.329 213.02 173.488 205.766 157.149 212.996C139.275 220.905 139.654 235.608 121.306 247.985C113.277 253.401 101.409 260.267 88.2574 248.677C67.2882 230.197 81.3462 177.439 88.9947 153.962C91.506 146.253 95.4947 139.114 101.299 133.466Z" fill="#22D695"/>
</svg>
