<svg width="129" height="46" viewBox="0 0 129 46" fill="none" xmlns="http://www.w3.org/2000/svg">
<path d="M9.56777 3.05273C9.56777 3.05273 -6.40486 17.0774 6.06163 35.1279C6.06163 35.1279 11.3208 43.9444 24.3067 43.9837C24.3067 43.9837 34.2409 44.9473 42.552 34.4863C42.552 34.4863 40.4744 33.1274 36.7082 36.9842C33.0183 40.764 24.8084 40.9961 22.2802 36.9112C22.212 36.8008 22.3019 36.6606 22.4305 36.6767C22.8686 36.7305 23.8501 36.9091 25.7677 37.4977C28.6245 38.3741 31.4164 38.0497 32.0008 34.3811C32.0008 34.3811 27.8455 34.6084 26.3195 33.5047C24.7937 32.4007 21.0927 29.2842 18.2358 29.4141C15.379 29.5439 11.4507 30.2906 9.17823 28.2452C6.90575 26.2001 -0.86424 21.8822 9.56777 3.05273Z" fill="#094915"/>
<path d="M27.835 44.4768C27.835 44.4768 35.932 43.6389 42.9443 35.6739C42.9443 35.6739 44.1105 34.7156 44.9781 35.7249C44.9781 35.7249 45.5172 36.101 44.3883 36.9216C43.644 37.4628 33.592 45.9052 27.835 44.4768Z" fill="#308A28"/>
<path d="M33.1377 44.6389C33.1377 44.6389 40.2366 41.2308 44.2083 38.1231C44.2083 38.1231 45.3228 37.5514 45.6692 37.9842C46.0153 38.417 45.1108 39.1962 45.1108 39.1962C45.1108 39.1962 41.6867 42.1827 33.1377 44.6389Z" fill="#308A28"/>
<path d="M38.8467 9.48336C39.1366 9.64374 39.369 9.87185 39.6099 10.0918C39.8142 10.2869 39.8463 10.4736 39.6572 10.6995C39.4232 10.9792 39.3947 11.2533 39.473 11.6115C39.6035 12.2079 39.5493 12.8107 39.2718 13.374V13.3738C39.2 13.5802 39.1028 13.7707 38.9386 13.9206C38.7716 14.1556 38.536 14.3122 38.3035 14.4717C38.0695 14.688 37.8157 14.877 37.5316 15.0232C36.9181 15.5227 36.0518 15.5371 35.6137 14.9708C35.371 14.6574 35.1974 14.6997 34.9074 14.8191C34.562 14.9613 34.1906 15.0256 33.8124 15.0232L33.7939 15.0224C33.7624 15.0212 33.7308 15.0199 33.6993 15.0185C33.665 15.0223 33.6309 15.0258 33.5966 15.0296C33.5496 15.0307 33.5027 15.0309 33.4559 15.0317C33.1138 15.0936 32.7678 15.0633 32.4233 15.0689C32.4006 15.0838 32.382 15.1051 32.3713 15.1377C32.337 15.2418 32.3487 15.3477 32.4476 15.424C32.5538 15.5062 32.6705 15.5718 32.786 15.6391C33.5822 16.1029 34.373 16.5761 35.1272 17.1062C35.5646 17.4135 35.9953 17.7338 36.3387 18.1518C36.493 18.3398 36.6007 18.5475 36.5997 18.8036C36.5988 18.9968 36.7307 19.1164 36.8941 19.1798C37.1836 19.292 37.4626 19.424 37.7358 19.5701C37.7374 19.571 37.7395 19.572 37.7415 19.5731L37.7427 19.5486C38.0634 19.6759 38.3461 19.8633 38.5982 20.0979C38.8005 20.2104 38.9555 20.375 39.0683 20.5713C39.2498 20.8864 39.0687 21.1982 38.7066 21.2084C38.2774 21.2205 37.9205 21.0135 37.559 20.8235C37.0912 20.5773 36.6534 20.2752 36.1609 20.0766C35.7486 19.9103 35.5088 20.0477 35.4325 20.4818L35.4322 20.4836C35.4236 20.5316 35.4151 20.5801 35.4139 20.6284C35.4078 20.896 35.3317 21.1421 35.1956 21.3711L35.1953 21.3713H35.1956C35.1479 21.5219 35.0553 21.6272 34.8976 21.6671C34.7968 21.7427 34.6931 21.8127 34.5681 21.8428C34.2417 22.0137 33.8864 22.0488 33.5272 22.0615C32.5499 22.0966 31.6077 21.939 30.7107 21.5396C30.4173 21.4223 30.1453 21.2676 29.9228 21.0415C29.6708 20.786 29.5009 20.7678 29.2106 20.9867C29.0948 21.0741 28.993 21.1867 28.8353 21.2002C28.6088 21.3094 28.4696 21.4386 28.5357 21.7399C28.598 22.0247 28.4809 22.3114 28.3809 22.5828C28.2364 22.9757 28.0426 23.3431 27.7727 23.6668C27.6202 23.8495 27.611 24.0433 27.7158 24.2572C28.1279 25.0991 28.3282 25.9944 28.3719 26.9276C28.3749 26.9907 28.3621 27.0616 28.4138 27.108C28.6082 27.2835 28.6088 27.526 28.6253 27.7535C28.6651 28.2968 28.6318 28.8393 28.5679 29.3799C28.5141 29.8357 28.5628 30.2792 28.718 30.7118C28.8044 30.9531 28.8361 31.2044 28.8384 31.4597C28.8468 32.3911 28.8748 33.3233 28.7496 34.2507C28.71 34.3061 28.6525 34.2997 28.5963 34.2933C28.0066 34.225 27.423 34.1307 26.8719 33.895C26.8071 33.8673 26.7383 33.8452 26.6829 33.8015L26.6616 33.7846C26.2269 33.441 25.792 33.0973 25.3798 32.7268C25.3605 32.6942 25.339 32.6641 25.316 32.636L23.5966 31.4268C23.5928 31.4244 23.5891 31.4216 23.5851 31.4184C23.1276 31.1578 22.6699 30.8969 22.2124 30.6361C22.2707 30.6016 22.2757 30.5474 22.2638 30.4891C22.1992 30.1719 22.1526 29.8505 22.0349 29.5463C21.9284 29.4673 21.9397 29.3349 21.9027 29.2285C21.7536 28.8005 21.5351 28.4099 21.298 28.0277C20.954 27.5781 20.8202 27.0813 20.9622 26.5236C20.9831 26.4414 20.9965 26.3599 21.0036 26.275C21.0406 25.8292 21.5104 25.5432 21.942 25.6774C22.3278 25.7972 22.7278 25.8115 23.1289 25.7575C23.3643 25.7257 23.5987 25.7103 23.8233 25.6057C24.2371 25.4127 24.6026 25.154 24.9005 24.8157C25.2202 24.4525 25.5464 24.092 25.8216 23.6919C26.1352 23.2358 26.2094 22.478 25.9169 21.9768C25.8377 21.8407 25.7777 21.6887 25.7028 21.5469C25.5075 21.3186 25.2349 21.1992 24.9917 21.0378C24.7178 20.8557 24.6371 20.6842 24.7368 20.3846C24.8761 19.9672 24.8792 19.5658 24.6939 19.1653L24.6944 19.167C24.4677 18.9117 24.241 18.6566 24.0144 18.4013L24.0163 18.4036C23.7526 18.2763 23.5462 18.0642 23.2959 17.9158C23.206 17.8627 23.0737 17.856 23.0379 17.7261C22.7999 17.7117 22.6262 17.5381 22.4064 17.47C22.1994 17.4058 21.996 17.3372 21.7808 17.3048C21.2146 17.2199 20.8359 16.8824 20.5685 16.3975C20.5413 16.3482 20.5156 16.2984 20.4892 16.2489C20.4537 16.1836 20.4267 16.1173 20.4052 16.0496C20.3161 15.8208 20.2939 15.5793 20.304 15.3299C20.282 14.9999 20.286 14.6693 20.2833 14.3392C20.2707 14.1286 20.2594 13.9181 20.2607 13.7075C20.2559 13.641 20.2498 13.5745 20.2423 13.508C20.2172 13.2872 20.0524 13.342 19.9468 13.3493C19.352 13.3918 18.8434 13.6427 18.4016 14.0364C18.3548 14.0782 18.3151 14.1317 18.2416 14.1244V14.1246C17.9543 14.3593 17.7352 14.6579 17.4887 14.9305C17.4596 14.9627 17.4356 14.9997 17.408 15.033C17.3896 15.0614 17.3718 15.0902 17.3547 15.1198C17.1048 15.526 16.7885 15.8846 16.5216 16.2796C16.322 16.5751 16.1137 16.8659 15.9048 17.1557C15.8712 17.1963 15.84 17.2385 15.8099 17.2814C15.7061 17.493 15.5585 17.6762 15.4063 17.8566C15.3551 17.937 15.3038 18.0174 15.2525 18.0978L15.1924 18.1922C15.018 18.5782 14.7886 18.9301 14.5329 19.2661C14.5285 19.2761 14.5216 19.2858 14.5112 19.295C14.3855 19.4706 14.2722 19.6536 14.1775 19.8476C14.0999 20.0659 14.0179 20.2815 13.8358 20.4394C13.8094 20.61 13.7199 20.7541 13.6303 20.8941C13.4289 21.2084 13.3174 21.5678 13.1192 21.8829C13.1153 21.8936 13.1129 21.9049 13.1123 21.9162V21.9164C13.1184 22.0699 13.0419 22.2008 12.9959 22.34C12.8949 22.6472 12.8411 22.9652 12.77 23.2793C12.6747 23.7002 12.704 24.1192 12.6962 24.5401C12.6935 24.6886 12.6245 24.7764 12.4792 24.8049C12.3017 24.9596 12.1528 25.1465 12.0999 25.3711C12.0215 25.7052 11.7934 25.8738 11.5226 26.0109C11.4954 26.0287 11.468 26.046 11.4402 26.0634C11.4178 26.0774 11.3954 26.0918 11.3731 26.1061C10.9879 26.3817 10.6019 26.6566 10.2178 26.9343C10.0359 27.0658 9.85839 27.204 9.67897 27.3393C9.67877 27.3393 9.67877 27.3395 9.67877 27.3395C9.67251 27.3531 9.66496 27.361 9.65661 27.3652C9.49309 27.5576 9.31015 27.728 9.09058 27.8568C9.09091 27.8818 9.09147 27.907 9.09199 27.932L9.09223 27.9436C9.09059 28.0019 9.08866 28.0619 9.08721 28.1201C9.05273 28.1161 9.02242 28.1048 9.00652 28.0705C8.96657 28.0701 8.95529 28.0521 8.92309 28.0151C8.34161 27.6643 7.82995 27.2247 7.34755 26.7515C6.46453 25.8852 5.76032 24.8931 5.27604 23.7504C5.23131 23.7186 5.23505 23.6694 5.23047 23.6232C5.50836 23.3332 5.7003 22.9767 5.9625 22.6742C6.05909 22.5627 6.13625 22.4285 6.24918 22.3382C6.56012 22.0895 6.63977 21.761 6.68493 21.383C6.77422 20.6338 7.00382 19.9472 7.57108 19.3861C8.32572 18.6395 9.03265 17.8445 9.76135 17.0714C9.84249 16.9855 9.92298 16.8966 10.0325 16.8437C10.231 16.694 10.3665 16.4684 10.6057 16.3678C10.862 16.2836 10.9712 16.0788 11.072 15.8455C11.2896 15.3418 11.5817 14.8776 11.8893 14.4239C12.0328 14.1249 12.2203 13.8614 12.4953 13.6678C12.5193 13.6373 12.5432 13.6067 12.5672 13.576C12.658 13.3855 12.8004 13.2462 12.9875 13.1511C13.0343 13.1099 13.0812 13.0687 13.128 13.0275C13.5242 12.6811 13.9508 12.3745 14.3728 12.0611C14.9168 11.6569 15.0145 11.0994 14.6559 10.5238C14.4294 10.16 14.2759 9.77317 14.2661 9.33847C14.1695 8.18928 14.7383 7.30437 15.8216 6.91816C16.1369 6.73457 16.4568 6.55833 16.7663 6.36575C17.1947 6.09914 17.6236 5.83128 17.9918 5.48084C18.0616 5.39156 18.1187 5.28681 18.2492 5.2726V5.2732C18.3359 5.1306 18.4583 5.03108 18.6091 4.95998C18.8093 4.86588 18.9637 4.89788 19.0651 5.09507C19.136 5.23306 19.2208 5.24269 19.3367 5.18119C19.4667 5.11222 19.5941 5.03923 19.7085 4.94348C20.4759 4.3005 21.3735 3.93793 22.345 3.74764C23.0059 3.61821 23.6731 3.52623 24.3497 3.53354C25.0548 3.53374 25.7609 3.50885 26.4645 3.54045C27.5092 3.5875 28.5572 3.60211 29.5954 3.7466C30.3389 3.85009 31.044 4.07676 31.7106 4.42555C31.9506 4.55101 32.2151 4.63419 32.3958 4.85355C32.4429 4.89109 32.49 4.92855 32.5371 4.96592L32.6067 5.02125C32.765 5.05971 32.8587 5.16405 32.9072 5.31484V5.31419C33.0695 5.42753 33.1391 5.59124 33.1608 5.7809C33.2366 5.91326 33.2543 6.0571 33.2457 6.20621C33.274 6.23399 33.3024 6.26181 33.3306 6.28943C33.5232 6.28252 33.7106 6.31532 33.8966 6.35904C33.9092 6.35716 33.9215 6.35969 33.9335 6.36763C34.4834 6.50289 34.6722 6.9353 34.7713 7.42063C34.8487 7.7995 34.8798 8.18715 34.8577 8.57569C34.8489 8.72748 34.9043 8.79147 35.0636 8.79083C35.5498 8.78854 36.0376 8.76052 36.5212 8.82909C36.8449 8.8749 37.1822 8.84643 37.4869 8.99971C37.957 9.11389 38.4191 9.24685 38.8467 9.48336Z" fill="#F8BF18"/>
<path d="M58.468 11.642C58.4167 11.726 58.363 11.789 58.307 11.831C58.251 11.8683 58.181 11.887 58.097 11.887C58.0083 11.887 57.908 11.8497 57.796 11.775C57.6887 11.7003 57.5533 11.6187 57.39 11.53C57.2313 11.4367 57.0423 11.3527 56.823 11.278C56.6037 11.1987 56.3423 11.159 56.039 11.159C55.759 11.159 55.5117 11.194 55.297 11.264C55.087 11.334 54.9097 11.432 54.765 11.558C54.6203 11.684 54.5107 11.8333 54.436 12.006C54.366 12.174 54.331 12.3583 54.331 12.559C54.331 12.8157 54.3987 13.0303 54.534 13.203C54.6693 13.371 54.8467 13.5157 55.066 13.637C55.29 13.7583 55.5443 13.8657 55.829 13.959C56.1137 14.0477 56.403 14.1433 56.697 14.246C56.9957 14.3487 57.2873 14.4653 57.572 14.596C57.8567 14.7267 58.1087 14.8923 58.328 15.093C58.552 15.2937 58.7317 15.5387 58.867 15.828C59.0023 16.1173 59.07 16.4697 59.07 16.885C59.07 17.333 58.993 17.753 58.839 18.145C58.685 18.537 58.461 18.88 58.167 19.174C57.8777 19.4633 57.5183 19.692 57.089 19.86C56.6643 20.028 56.179 20.112 55.633 20.112C55.311 20.112 54.996 20.0793 54.688 20.014C54.3847 19.9533 54.093 19.867 53.813 19.755C53.5377 19.6383 53.2787 19.4983 53.036 19.335C52.7933 19.1717 52.5763 18.9897 52.385 18.789L52.861 18.005C52.903 17.9397 52.9567 17.8883 53.022 17.851C53.0873 17.8137 53.1597 17.795 53.239 17.795C53.3463 17.795 53.4653 17.8463 53.596 17.949C53.7267 18.047 53.883 18.1567 54.065 18.278C54.2517 18.3947 54.4757 18.5043 54.737 18.607C54.9983 18.705 55.311 18.754 55.675 18.754C56.2677 18.754 56.725 18.6093 57.047 18.32C57.3737 18.0307 57.537 17.6317 57.537 17.123C57.537 16.8383 57.4693 16.6073 57.334 16.43C57.1987 16.248 57.019 16.0963 56.795 15.975C56.5757 15.8537 56.3237 15.751 56.039 15.667C55.7543 15.583 55.465 15.4943 55.171 15.401C54.877 15.303 54.5877 15.191 54.303 15.065C54.0183 14.9343 53.764 14.7663 53.54 14.561C53.3207 14.351 53.1433 14.0943 53.008 13.791C52.8727 13.483 52.805 13.1003 52.805 12.643C52.805 12.279 52.875 11.9267 53.015 11.586C53.1597 11.2453 53.3673 10.9443 53.638 10.683C53.9133 10.417 54.2517 10.2047 54.653 10.046C55.0543 9.88733 55.5117 9.808 56.025 9.808C56.6037 9.808 57.1333 9.899 57.614 10.081C58.0993 10.263 58.517 10.522 58.867 10.858L58.468 11.642ZM70.3106 14.96C70.3106 15.7067 70.1892 16.395 69.9466 17.025C69.7039 17.655 69.3609 18.1987 68.9176 18.656C68.4789 19.1087 67.9492 19.4633 67.3286 19.72C66.7126 19.9767 66.0266 20.105 65.2706 20.105C64.5192 20.105 63.8332 19.9767 63.2126 19.72C62.5966 19.4633 62.0669 19.1087 61.6236 18.656C61.1802 18.1987 60.8372 17.655 60.5946 17.025C60.3519 16.395 60.2306 15.7067 60.2306 14.96C60.2306 14.2133 60.3519 13.525 60.5946 12.895C60.8372 12.265 61.1802 11.7213 61.6236 11.264C62.0669 10.8067 62.5966 10.4497 63.2126 10.193C63.8332 9.93633 64.5192 9.808 65.2706 9.808C66.0266 9.808 66.7126 9.93633 67.3286 10.193C67.9492 10.4497 68.4789 10.8067 68.9176 11.264C69.3609 11.7213 69.7039 12.265 69.9466 12.895C70.1892 13.525 70.3106 14.2133 70.3106 14.96ZM68.6376 14.96C68.6376 14.3813 68.5582 13.861 68.3996 13.399C68.2456 12.937 68.0216 12.545 67.7276 12.223C67.4382 11.901 67.0859 11.6537 66.6706 11.481C66.2552 11.3083 65.7886 11.222 65.2706 11.222C64.7572 11.222 64.2929 11.3083 63.8776 11.481C63.4622 11.6537 63.1076 11.901 62.8136 12.223C62.5196 12.545 62.2932 12.937 62.1346 13.399C61.9759 13.861 61.8966 14.3813 61.8966 14.96C61.8966 15.5433 61.9759 16.066 62.1346 16.528C62.2932 16.99 62.5196 17.382 62.8136 17.704C63.1076 18.0213 63.4622 18.2663 63.8776 18.439C64.2929 18.607 64.7572 18.691 65.2706 18.691C65.7886 18.691 66.2552 18.607 66.6706 18.439C67.0859 18.2663 67.4382 18.0213 67.7276 17.704C68.0216 17.382 68.2456 16.99 68.3996 16.528C68.5582 16.066 68.6376 15.5433 68.6376 14.96ZM77.3762 11.642C77.3249 11.726 77.2712 11.789 77.2152 11.831C77.1592 11.8683 77.0892 11.887 77.0052 11.887C76.9165 11.887 76.8162 11.8497 76.7042 11.775C76.5969 11.7003 76.4615 11.6187 76.2982 11.53C76.1395 11.4367 75.9505 11.3527 75.7312 11.278C75.5119 11.1987 75.2505 11.159 74.9472 11.159C74.6672 11.159 74.4199 11.194 74.2052 11.264C73.9952 11.334 73.8179 11.432 73.6732 11.558C73.5285 11.684 73.4189 11.8333 73.3442 12.006C73.2742 12.174 73.2392 12.3583 73.2392 12.559C73.2392 12.8157 73.3069 13.0303 73.4422 13.203C73.5775 13.371 73.7549 13.5157 73.9742 13.637C74.1982 13.7583 74.4525 13.8657 74.7372 13.959C75.0219 14.0477 75.3112 14.1433 75.6052 14.246C75.9039 14.3487 76.1955 14.4653 76.4802 14.596C76.7649 14.7267 77.0169 14.8923 77.2362 15.093C77.4602 15.2937 77.6399 15.5387 77.7752 15.828C77.9105 16.1173 77.9782 16.4697 77.9782 16.885C77.9782 17.333 77.9012 17.753 77.7472 18.145C77.5932 18.537 77.3692 18.88 77.0752 19.174C76.7859 19.4633 76.4265 19.692 75.9972 19.86C75.5725 20.028 75.0872 20.112 74.5412 20.112C74.2192 20.112 73.9042 20.0793 73.5962 20.014C73.2929 19.9533 73.0012 19.867 72.7212 19.755C72.4459 19.6383 72.1869 19.4983 71.9442 19.335C71.7015 19.1717 71.4845 18.9897 71.2932 18.789L71.7692 18.005C71.8112 17.9397 71.8649 17.8883 71.9302 17.851C71.9955 17.8137 72.0679 17.795 72.1472 17.795C72.2545 17.795 72.3735 17.8463 72.5042 17.949C72.6349 18.047 72.7912 18.1567 72.9732 18.278C73.1599 18.3947 73.3839 18.5043 73.6452 18.607C73.9065 18.705 74.2192 18.754 74.5832 18.754C75.1759 18.754 75.6332 18.6093 75.9552 18.32C76.2819 18.0307 76.4452 17.6317 76.4452 17.123C76.4452 16.8383 76.3775 16.6073 76.2422 16.43C76.1069 16.248 75.9272 16.0963 75.7032 15.975C75.4839 15.8537 75.2319 15.751 74.9472 15.667C74.6625 15.583 74.3732 15.4943 74.0792 15.401C73.7852 15.303 73.4959 15.191 73.2112 15.065C72.9265 14.9343 72.6722 14.7663 72.4482 14.561C72.2289 14.351 72.0515 14.0943 71.9162 13.791C71.7809 13.483 71.7132 13.1003 71.7132 12.643C71.7132 12.279 71.7832 11.9267 71.9232 11.586C72.0679 11.2453 72.2755 10.9443 72.5462 10.683C72.8215 10.417 73.1599 10.2047 73.5612 10.046C73.9625 9.88733 74.4199 9.808 74.9332 9.808C75.5119 9.808 76.0415 9.899 76.5222 10.081C77.0075 10.263 77.4252 10.522 77.7752 10.858L77.3762 11.642ZM88.1033 16.22L86.7173 12.538C86.6053 12.2533 86.4909 11.8917 86.3743 11.453C86.3229 11.6723 86.2669 11.8753 86.2063 12.062C86.1456 12.244 86.0896 12.405 86.0383 12.545L84.6523 16.22H88.1033ZM91.2043 20H89.9373C89.7926 20 89.6759 19.965 89.5873 19.895C89.4986 19.8203 89.4309 19.7293 89.3843 19.622L88.5443 17.396H84.2043L83.3643 19.622C83.3269 19.7153 83.2616 19.8017 83.1683 19.881C83.0749 19.9603 82.9583 20 82.8183 20H81.5513L85.5483 9.92H87.2073L91.2043 20ZM93.4803 13.805C93.6343 13.6463 93.7929 13.504 93.9563 13.378C94.1243 13.2473 94.3016 13.1353 94.4883 13.042C94.6749 12.9487 94.8733 12.8763 95.0833 12.825C95.2933 12.7737 95.5219 12.748 95.7693 12.748C96.1613 12.748 96.5043 12.8133 96.7983 12.944C97.0969 13.0747 97.3466 13.259 97.5473 13.497C97.7526 13.735 97.9066 14.022 98.0093 14.358C98.1119 14.6893 98.1633 15.0557 98.1633 15.457V20H96.6653V15.457C96.6653 14.9763 96.5533 14.603 96.3293 14.337C96.1099 14.071 95.7739 13.938 95.3213 13.938C94.9853 13.938 94.6726 14.015 94.3833 14.169C94.0986 14.323 93.8303 14.533 93.5783 14.799V20H92.0733V12.86H92.9833C93.1886 12.86 93.3193 12.9557 93.3753 13.147L93.4803 13.805ZM101.489 12.86V20H99.9839V12.86H101.489ZM101.741 10.704C101.741 10.8393 101.713 10.9677 101.657 11.089C101.606 11.2103 101.533 11.3177 101.44 11.411C101.347 11.4997 101.237 11.572 101.111 11.628C100.99 11.6793 100.859 11.705 100.719 11.705C100.584 11.705 100.455 11.6793 100.334 11.628C100.217 11.572 100.115 11.4997 100.026 11.411C99.9372 11.3177 99.8649 11.2103 99.8089 11.089C99.7576 10.9677 99.7319 10.8393 99.7319 10.704C99.7319 10.564 99.7576 10.4333 99.8089 10.312C99.8649 10.1907 99.9372 10.0857 100.026 9.997C100.115 9.90367 100.217 9.83133 100.334 9.78C100.455 9.724 100.584 9.696 100.719 9.696C100.859 9.696 100.99 9.724 101.111 9.78C101.237 9.83133 101.347 9.90367 101.44 9.997C101.533 10.0857 101.606 10.1907 101.657 10.312C101.713 10.4333 101.741 10.564 101.741 10.704ZM103.38 20V12.86H104.29C104.495 12.86 104.626 12.9557 104.682 13.147L104.78 13.77C104.911 13.6207 105.046 13.4853 105.186 13.364C105.326 13.238 105.475 13.1307 105.634 13.042C105.797 12.9487 105.97 12.8763 106.152 12.825C106.339 12.7737 106.539 12.748 106.754 12.748C106.983 12.748 107.193 12.7807 107.384 12.846C107.575 12.9113 107.743 13.0047 107.888 13.126C108.037 13.2473 108.166 13.3943 108.273 13.567C108.38 13.7397 108.469 13.9333 108.539 14.148C108.646 13.9007 108.782 13.6883 108.945 13.511C109.108 13.3337 109.29 13.189 109.491 13.077C109.692 12.965 109.904 12.8833 110.128 12.832C110.357 12.776 110.588 12.748 110.821 12.748C111.204 12.748 111.544 12.8087 111.843 12.93C112.146 13.0513 112.401 13.2287 112.606 13.462C112.816 13.6907 112.975 13.973 113.082 14.309C113.189 14.645 113.243 15.0277 113.243 15.457V20H111.738V15.457C111.738 14.953 111.628 14.575 111.409 14.323C111.194 14.0663 110.875 13.938 110.45 13.938C110.259 13.938 110.079 13.9707 109.911 14.036C109.743 14.1013 109.596 14.197 109.47 14.323C109.344 14.449 109.244 14.6077 109.169 14.799C109.099 14.9857 109.064 15.205 109.064 15.457V20H107.559V15.457C107.559 14.9343 107.454 14.5517 107.244 14.309C107.034 14.0617 106.726 13.938 106.32 13.938C106.04 13.938 105.781 14.0103 105.543 14.155C105.305 14.295 105.086 14.4887 104.885 14.736V20H103.38ZM118.816 16.878C118.279 16.8967 117.827 16.941 117.458 17.011C117.089 17.0763 116.791 17.1627 116.562 17.27C116.333 17.3727 116.168 17.4963 116.065 17.641C115.967 17.7857 115.918 17.9443 115.918 18.117C115.918 18.285 115.944 18.4297 115.995 18.551C116.051 18.6677 116.126 18.7657 116.219 18.845C116.317 18.9197 116.429 18.9757 116.555 19.013C116.686 19.0457 116.828 19.062 116.982 19.062C117.374 19.062 117.71 18.9897 117.99 18.845C118.275 18.6957 118.55 18.481 118.816 18.201V16.878ZM114.826 13.854C115.633 13.1027 116.595 12.727 117.71 12.727C118.121 12.727 118.485 12.7947 118.802 12.93C119.124 13.0607 119.392 13.2473 119.607 13.49C119.826 13.7327 119.992 14.022 120.104 14.358C120.221 14.6893 120.279 15.058 120.279 15.464V20H119.607C119.462 20 119.353 19.979 119.278 19.937C119.203 19.8903 119.14 19.7993 119.089 19.664L118.942 19.083C118.76 19.2463 118.58 19.3933 118.403 19.524C118.226 19.65 118.041 19.7573 117.85 19.846C117.663 19.9347 117.46 20 117.241 20.042C117.026 20.0887 116.788 20.112 116.527 20.112C116.238 20.112 115.967 20.0723 115.715 19.993C115.468 19.9137 115.253 19.7947 115.071 19.636C114.889 19.4727 114.744 19.272 114.637 19.034C114.534 18.796 114.483 18.516 114.483 18.194C114.483 17.9187 114.555 17.6503 114.7 17.389C114.849 17.1277 115.092 16.8943 115.428 16.689C115.769 16.479 116.214 16.3063 116.765 16.171C117.32 16.0357 118.004 15.9587 118.816 15.94V15.464C118.816 14.9507 118.706 14.568 118.487 14.316C118.268 14.064 117.946 13.938 117.521 13.938C117.232 13.938 116.989 13.9753 116.793 14.05C116.597 14.12 116.427 14.197 116.282 14.281C116.137 14.365 116.009 14.4443 115.897 14.519C115.785 14.589 115.666 14.624 115.54 14.624C115.437 14.624 115.349 14.5983 115.274 14.547C115.204 14.491 115.146 14.4233 115.099 14.344L114.826 13.854ZM123.575 9.64V20H122.07V9.64H123.575ZM54.842 28.243V31.47H58.783V32.793H54.842V37H53.197V26.92H59.483V28.243H54.842ZM61.6798 31.183C61.9038 30.7303 62.1745 30.3757 62.4918 30.119C62.8091 29.8577 63.1895 29.727 63.6328 29.727C63.7868 29.727 63.9315 29.7457 64.0668 29.783C64.2021 29.8157 64.3235 29.867 64.4308 29.937L64.3258 31.071C64.3071 31.1503 64.2768 31.2063 64.2348 31.239C64.1975 31.267 64.1461 31.281 64.0808 31.281C64.0108 31.281 63.9105 31.2693 63.7798 31.246C63.6491 31.218 63.5115 31.204 63.3668 31.204C63.1568 31.204 62.9701 31.2343 62.8068 31.295C62.6481 31.3557 62.5035 31.4443 62.3728 31.561C62.2468 31.6777 62.1348 31.82 62.0368 31.988C61.9388 32.156 61.8478 32.3473 61.7638 32.562V37H60.2588V29.86H61.1338C61.2925 29.86 61.4021 29.8903 61.4628 29.951C61.5235 30.007 61.5655 30.1073 61.5888 30.252L61.6798 31.183ZM69.1324 33.878C68.5957 33.8967 68.1431 33.941 67.7744 34.011C67.4057 34.0763 67.1071 34.1627 66.8784 34.27C66.6497 34.3727 66.4841 34.4963 66.3814 34.641C66.2834 34.7857 66.2344 34.9443 66.2344 35.117C66.2344 35.285 66.2601 35.4297 66.3114 35.551C66.3674 35.6677 66.4421 35.7657 66.5354 35.845C66.6334 35.9197 66.7454 35.9757 66.8714 36.013C67.0021 36.0457 67.1444 36.062 67.2984 36.062C67.6904 36.062 68.0264 35.9897 68.3064 35.845C68.5911 35.6957 68.8664 35.481 69.1324 35.201V33.878ZM65.1424 30.854C65.9497 30.1027 66.9111 29.727 68.0264 29.727C68.4371 29.727 68.8011 29.7947 69.1184 29.93C69.4404 30.0607 69.7087 30.2473 69.9234 30.49C70.1427 30.7327 70.3084 31.022 70.4204 31.358C70.5371 31.6893 70.5954 32.058 70.5954 32.464V37H69.9234C69.7787 37 69.6691 36.979 69.5944 36.937C69.5197 36.8903 69.4567 36.7993 69.4054 36.664L69.2584 36.083C69.0764 36.2463 68.8967 36.3933 68.7194 36.524C68.5421 36.65 68.3577 36.7573 68.1664 36.846C67.9797 36.9347 67.7767 37 67.5574 37.042C67.3427 37.0887 67.1047 37.112 66.8434 37.112C66.5541 37.112 66.2834 37.0723 66.0314 36.993C65.7841 36.9137 65.5694 36.7947 65.3874 36.636C65.2054 36.4727 65.0607 36.272 64.9534 36.034C64.8507 35.796 64.7994 35.516 64.7994 35.194C64.7994 34.9187 64.8717 34.6503 65.0164 34.389C65.1657 34.1277 65.4084 33.8943 65.7444 33.689C66.0851 33.479 66.5307 33.3063 67.0814 33.171C67.6367 33.0357 68.3204 32.9587 69.1324 32.94V32.464C69.1324 31.9507 69.0227 31.568 68.8034 31.316C68.5841 31.064 68.2621 30.938 67.8374 30.938C67.5481 30.938 67.3054 30.9753 67.1094 31.05C66.9134 31.12 66.7431 31.197 66.5984 31.281C66.4537 31.365 66.3254 31.4443 66.2134 31.519C66.1014 31.589 65.9824 31.624 65.8564 31.624C65.7537 31.624 65.6651 31.5983 65.5904 31.547C65.5204 31.491 65.4621 31.4233 65.4154 31.344L65.1424 30.854ZM78.502 29.86L74.568 39.03C74.5167 39.1373 74.4537 39.2213 74.379 39.282C74.309 39.3427 74.1993 39.373 74.05 39.373H72.937L74.253 36.517L71.341 29.86H72.65C72.776 29.86 72.8717 29.8903 72.937 29.951C73.007 30.007 73.0583 30.0747 73.091 30.154L74.792 34.207C74.834 34.3237 74.8713 34.4403 74.904 34.557C74.9413 34.669 74.9763 34.7857 75.009 34.907C75.0463 34.7857 75.0837 34.6667 75.121 34.55C75.1583 34.4333 75.2003 34.3167 75.247 34.2L76.878 30.154C76.9107 30.07 76.9643 30 77.039 29.944C77.1183 29.888 77.2047 29.86 77.298 29.86H78.502ZM86.574 35.705C86.9427 35.705 87.253 35.663 87.505 35.579C87.7617 35.4903 87.9693 35.3713 88.128 35.222C88.2913 35.0727 88.408 34.8977 88.478 34.697C88.5527 34.4917 88.59 34.2723 88.59 34.039C88.59 33.563 88.4267 33.1897 88.1 32.919C87.778 32.6437 87.267 32.506 86.567 32.506H84.544V35.705H86.574ZM84.544 28.201V31.351H86.182C86.882 31.351 87.4047 31.2157 87.75 30.945C88.0953 30.6743 88.268 30.2847 88.268 29.776C88.268 29.2207 88.1047 28.8193 87.778 28.572C87.456 28.3247 86.9497 28.201 86.259 28.201H84.544ZM86.259 26.92C86.903 26.92 87.4537 26.983 87.911 27.109C88.3683 27.2303 88.744 27.4053 89.038 27.634C89.332 27.8627 89.5467 28.1427 89.682 28.474C89.822 28.8007 89.892 29.1693 89.892 29.58C89.892 29.818 89.8547 30.049 89.78 30.273C89.71 30.4923 89.598 30.7 89.444 30.896C89.2947 31.0873 89.1057 31.26 88.877 31.414C88.6483 31.568 88.3777 31.6963 88.065 31.799C89.493 32.1023 90.207 32.8607 90.207 34.074C90.207 34.5033 90.1253 34.8977 89.962 35.257C89.8033 35.6117 89.57 35.9197 89.262 36.181C88.9587 36.4377 88.583 36.6383 88.135 36.783C87.687 36.9277 87.176 37 86.602 37H82.906V26.92H86.259ZM96.3461 32.625C96.3461 32.373 96.3088 32.1397 96.2341 31.925C96.1641 31.7057 96.0591 31.5167 95.9191 31.358C95.7791 31.1947 95.6041 31.0687 95.3941 30.98C95.1888 30.8867 94.9508 30.84 94.6801 30.84C94.1341 30.84 93.7048 30.9963 93.3921 31.309C93.0794 31.6217 92.8811 32.0603 92.7971 32.625H96.3461ZM92.7551 33.549C92.7738 33.955 92.8368 34.3073 92.9441 34.606C93.0514 34.9 93.1938 35.145 93.3711 35.341C93.5531 35.537 93.7678 35.684 94.0151 35.782C94.2671 35.8753 94.5471 35.922 94.8551 35.922C95.1491 35.922 95.4034 35.8893 95.6181 35.824C95.8328 35.754 96.0194 35.6793 96.1781 35.6C96.3368 35.516 96.4721 35.4413 96.5841 35.376C96.6961 35.306 96.7988 35.271 96.8921 35.271C97.0134 35.271 97.1068 35.3177 97.1721 35.411L97.5991 35.964C97.4218 36.174 97.2211 36.3513 96.9971 36.496C96.7731 36.6407 96.5351 36.7597 96.2831 36.853C96.0311 36.9417 95.7721 37.0047 95.5061 37.042C95.2401 37.084 94.9811 37.105 94.7291 37.105C94.2344 37.105 93.7748 37.0233 93.3501 36.86C92.9301 36.692 92.5638 36.447 92.2511 36.125C91.9431 35.803 91.7004 35.404 91.5231 34.928C91.3504 34.452 91.2641 33.9037 91.2641 33.283C91.2641 32.7883 91.3411 32.3263 91.4951 31.897C91.6538 31.4677 91.8778 31.0943 92.1671 30.777C92.4611 30.4597 92.8158 30.21 93.2311 30.028C93.6511 29.8413 94.1248 29.748 94.6521 29.748C95.0908 29.748 95.4968 29.8203 95.8701 29.965C96.2434 30.105 96.5654 30.3127 96.8361 30.588C97.1068 30.8633 97.3168 31.2017 97.4661 31.603C97.6201 31.9997 97.6971 32.4523 97.6971 32.961C97.6971 33.1943 97.6714 33.3507 97.6201 33.43C97.5688 33.5093 97.4754 33.549 97.3401 33.549H92.7551ZM100.508 30.805C100.662 30.6463 100.82 30.504 100.984 30.378C101.152 30.2473 101.329 30.1353 101.516 30.042C101.702 29.9487 101.901 29.8763 102.111 29.825C102.321 29.7737 102.549 29.748 102.797 29.748C103.189 29.748 103.532 29.8133 103.826 29.944C104.124 30.0747 104.374 30.259 104.575 30.497C104.78 30.735 104.934 31.022 105.037 31.358C105.139 31.6893 105.191 32.0557 105.191 32.457V37H103.693V32.457C103.693 31.9763 103.581 31.603 103.357 31.337C103.137 31.071 102.801 30.938 102.349 30.938C102.013 30.938 101.7 31.015 101.411 31.169C101.126 31.323 100.858 31.533 100.606 31.799V37H99.1006V29.86H100.011C100.216 29.86 100.347 29.9557 100.403 30.147L100.508 30.805ZM109.142 37.112C108.549 37.112 108.092 36.9463 107.77 36.615C107.452 36.279 107.294 35.8077 107.294 35.201V31.043H106.51C106.426 31.043 106.353 31.0173 106.293 30.966C106.232 30.91 106.202 30.8283 106.202 30.721V30.112L107.357 29.944L107.686 27.879C107.709 27.7997 107.749 27.7367 107.805 27.69C107.861 27.6387 107.935 27.613 108.029 27.613H108.799V29.958H110.78V31.043H108.799V35.096C108.799 35.3527 108.862 35.5487 108.988 35.684C109.114 35.8193 109.282 35.887 109.492 35.887C109.608 35.887 109.709 35.873 109.793 35.845C109.877 35.8123 109.949 35.7797 110.01 35.747C110.07 35.7097 110.122 35.677 110.164 35.649C110.21 35.6163 110.255 35.6 110.297 35.6C110.381 35.6 110.448 35.6467 110.5 35.74L110.948 36.475C110.714 36.6803 110.439 36.839 110.122 36.951C109.804 37.0583 109.478 37.112 109.142 37.112ZM114.998 29.748C115.525 29.748 116.001 29.8343 116.426 30.007C116.855 30.1797 117.219 30.4247 117.518 30.742C117.821 31.0593 118.055 31.4443 118.218 31.897C118.381 32.3497 118.463 32.8583 118.463 33.423C118.463 33.9877 118.381 34.4963 118.218 34.949C118.055 35.4017 117.821 35.789 117.518 36.111C117.219 36.4283 116.855 36.6733 116.426 36.846C116.001 37.0187 115.525 37.105 114.998 37.105C114.466 37.105 113.985 37.0187 113.556 36.846C113.131 36.6733 112.767 36.4283 112.464 36.111C112.161 35.789 111.927 35.4017 111.764 34.949C111.601 34.4963 111.519 33.9877 111.519 33.423C111.519 32.8583 111.601 32.3497 111.764 31.897C111.927 31.4443 112.161 31.0593 112.464 30.742C112.767 30.4247 113.131 30.1797 113.556 30.007C113.985 29.8343 114.466 29.748 114.998 29.748ZM114.998 35.929C115.642 35.929 116.12 35.7143 116.433 35.285C116.75 34.851 116.909 34.2327 116.909 33.43C116.909 32.6273 116.75 32.009 116.433 31.575C116.12 31.1363 115.642 30.917 114.998 30.917C114.345 30.917 113.859 31.1363 113.542 31.575C113.225 32.009 113.066 32.6273 113.066 33.43C113.066 34.2327 113.225 34.851 113.542 35.285C113.859 35.7143 114.345 35.929 114.998 35.929ZM124.172 31.155C124.135 31.2203 124.093 31.267 124.046 31.295C124 31.323 123.941 31.337 123.871 31.337C123.792 31.337 123.706 31.3137 123.612 31.267C123.519 31.2157 123.409 31.1597 123.283 31.099C123.157 31.0383 123.008 30.9847 122.835 30.938C122.667 30.8867 122.469 30.861 122.24 30.861C122.054 30.861 121.883 30.8843 121.729 30.931C121.58 30.973 121.452 31.036 121.344 31.12C121.242 31.1993 121.162 31.295 121.106 31.407C121.05 31.5143 121.022 31.631 121.022 31.757C121.022 31.925 121.074 32.065 121.176 32.177C121.279 32.289 121.414 32.387 121.582 32.471C121.75 32.5503 121.942 32.6227 122.156 32.688C122.371 32.7533 122.59 32.8233 122.814 32.898C123.038 32.9727 123.258 33.059 123.472 33.157C123.687 33.255 123.878 33.3763 124.046 33.521C124.214 33.661 124.35 33.8337 124.452 34.039C124.555 34.2397 124.606 34.4847 124.606 34.774C124.606 35.11 124.546 35.4203 124.424 35.705C124.303 35.9897 124.126 36.237 123.892 36.447C123.659 36.657 123.367 36.8203 123.017 36.937C122.672 37.0537 122.275 37.112 121.827 37.112C121.58 37.112 121.34 37.0887 121.106 37.042C120.878 37 120.658 36.9417 120.448 36.867C120.243 36.7877 120.049 36.6943 119.867 36.587C119.69 36.4797 119.531 36.363 119.391 36.237L119.741 35.663C119.783 35.593 119.835 35.5393 119.895 35.502C119.961 35.46 120.04 35.439 120.133 35.439C120.231 35.439 120.327 35.4717 120.42 35.537C120.518 35.5977 120.63 35.6653 120.756 35.74C120.887 35.8147 121.043 35.8847 121.225 35.95C121.407 36.0107 121.634 36.041 121.904 36.041C122.128 36.041 122.322 36.0153 122.485 35.964C122.649 35.908 122.784 35.8333 122.891 35.74C122.999 35.6467 123.078 35.5417 123.129 35.425C123.181 35.3037 123.206 35.1753 123.206 35.04C123.206 34.858 123.155 34.7087 123.052 34.592C122.95 34.4753 122.812 34.375 122.639 34.291C122.471 34.207 122.278 34.1323 122.058 34.067C121.844 34.0017 121.624 33.9317 121.4 33.857C121.176 33.7823 120.955 33.696 120.735 33.598C120.521 33.5 120.327 33.3763 120.154 33.227C119.986 33.073 119.851 32.8887 119.748 32.674C119.646 32.4547 119.594 32.1887 119.594 31.876C119.594 31.5913 119.65 31.3207 119.762 31.064C119.879 30.8073 120.047 30.581 120.266 30.385C120.49 30.189 120.763 30.035 121.085 29.923C121.412 29.8063 121.788 29.748 122.212 29.748C122.693 29.748 123.129 29.825 123.521 29.979C123.913 30.133 124.242 30.343 124.508 30.609L124.172 31.155Z" fill="#1A6B1D"/>
</svg>
