<svg width="54" height="54" viewBox="0 0 54 54" fill="none" xmlns="http://www.w3.org/2000/svg">
<path d="M11.2584 11.5605C11.2584 11.5605 -3.66137 24.6608 7.98334 41.5213C7.98334 41.5213 12.8958 49.7567 25.0257 49.7934C25.0257 49.7934 34.305 50.6934 42.0683 40.9221C42.0683 40.9221 40.1277 39.6527 36.6097 43.2553C33.1631 46.7859 25.4943 47.0027 23.1328 43.1871C23.0691 43.0839 23.1531 42.9531 23.2732 42.9681C23.6824 43.0183 24.5992 43.1852 26.3904 43.7349C29.0589 44.5536 31.6668 44.2506 32.2127 40.8238C32.2127 40.8238 28.3312 41.0361 26.9058 40.0052C25.4806 38.9739 22.0236 36.0629 19.355 36.1842C16.6865 36.3055 13.0172 37.0029 10.8945 35.0924C8.77182 33.182 1.51402 29.1488 11.2584 11.5605Z" fill="#094915"/>
<path d="M28.3242 50.2552C28.3242 50.2552 35.8875 49.4725 42.4375 42.0325C42.4375 42.0325 43.5269 41.1374 44.3373 42.0802C44.3373 42.0802 44.8409 42.4315 43.7864 43.198C43.0912 43.7035 33.7018 51.5894 28.3242 50.2552Z" fill="#308A28"/>
<path d="M33.2773 50.4063C33.2773 50.4063 39.9083 47.2229 43.6182 44.3201C43.6182 44.3201 44.6592 43.7861 44.9828 44.1903C45.3061 44.5946 44.4612 45.3224 44.4612 45.3224C44.4612 45.3224 41.2628 48.1121 33.2773 50.4063Z" fill="#308A28"/>
<path d="M22.7266 8.07405C22.7426 7.80998 22.6219 7.55764 22.4516 7.32345C22.1104 6.8541 21.6607 6.49688 21.2178 6.1332C21.0139 5.96603 20.809 5.80568 20.6961 5.55195C20.5226 5.16252 20.6453 4.78028 21.0223 4.57872C21.3514 4.40277 21.6811 4.40198 22.0029 4.58558C22.1457 4.66703 22.2877 4.70528 22.4519 4.70412C22.659 4.70277 22.707 4.78107 22.6203 4.96174C22.5289 5.15254 22.4111 5.32834 22.2463 5.46447C22.1059 5.58049 21.9916 5.54532 21.9291 5.37364C21.9043 5.30588 21.8834 5.23575 21.8701 5.16488C21.8379 4.99242 21.7248 4.90275 21.5647 4.86994C21.426 4.84144 21.3004 4.87677 21.2199 5.00352C21.131 5.14317 21.1328 5.29182 21.2092 5.43518C21.2906 5.58848 21.4195 5.70432 21.5438 5.82188C21.9744 6.22932 22.4221 6.61935 22.8121 7.06778C22.9996 7.2834 23.1545 7.51564 23.236 7.79513C23.3584 8.21524 23.2508 8.56778 22.9229 8.84258C22.5941 9.11839 22.2236 9.11348 21.848 8.93985C21.692 8.86778 21.5543 8.76447 21.4242 8.65197C21.2756 8.52345 21.1383 8.38362 20.918 8.37559C20.8014 8.37132 20.7637 8.27562 20.8037 8.17208C20.9002 7.92345 21.0817 7.74533 21.3033 7.60433C21.3767 7.55764 21.4279 7.57523 21.4543 7.65705C21.4826 7.74473 21.5105 7.83263 21.5334 7.92169C21.6205 8.26174 21.8453 8.48479 22.1549 8.61897C22.5141 8.77444 22.7307 8.57539 22.7266 8.07405ZM14.3978 11.3535C14.0723 11.35 13.8023 11.2274 13.543 11.082C13.4074 11.0061 13.2767 10.9483 13.1156 10.965C12.9432 10.9832 12.8894 10.8836 12.9275 10.7301C12.9826 10.5077 13.1051 10.3207 13.257 10.1524C13.332 10.0694 13.4039 10.0715 13.4617 10.1702C13.5115 10.2553 13.5568 10.3432 13.6014 10.4311C13.7561 10.7354 14.159 10.9656 14.4973 10.9428C14.6822 10.9305 14.7922 10.8358 14.8057 10.6493C14.832 10.2869 14.7131 9.97639 14.4586 9.71663C14.1072 9.3582 13.6711 9.12443 13.2371 8.88848C13.0291 8.77523 12.8154 8.67285 12.6062 8.56174C12.2149 8.35392 12.0006 7.9377 12.1109 7.60684C12.2496 7.1916 12.7012 6.9174 13.1424 6.99143C13.3795 7.03107 13.6061 7.12287 13.8568 7.03399C13.9783 6.99083 14.043 7.09279 14.018 7.21035C13.9695 7.43693 13.8895 7.65413 13.7451 7.83927C13.6326 7.98342 13.5178 7.97385 13.4174 7.81722C13.3824 7.76232 13.3576 7.70059 13.331 7.64063C13.259 7.47814 13.1283 7.39515 12.9576 7.3959C12.8189 7.39688 12.7006 7.45725 12.6514 7.60238C12.5933 7.77364 12.623 7.92735 12.7535 8.05587C12.9293 8.22893 13.1471 8.34102 13.3562 8.46488C13.7703 8.70998 14.1854 8.95275 14.5777 9.23224C14.8102 9.39788 15.0207 9.58459 15.173 9.82969C15.3764 10.1568 15.4092 10.5002 15.2326 10.8432C15.0574 11.1834 14.7598 11.3436 14.3978 11.3535ZM47.6562 16.7631C47.5594 16.7696 47.5189 16.7049 47.5193 16.6285C47.5238 15.9955 47.0997 15.5524 46.8225 15.0444C46.7438 14.9004 46.6523 14.8797 46.5072 14.9825C46.0864 15.2801 46.0864 15.2719 46.3373 15.7137C46.4487 15.9098 46.5979 16.0598 46.7929 16.167C46.9178 16.2358 46.9351 16.3143 46.8181 16.4063C46.7355 16.4713 46.6553 16.541 46.5664 16.5959C46.3958 16.7012 46.3073 16.6672 46.2826 16.4696C46.2391 16.1272 46.0437 15.8783 45.8198 15.6399C45.7583 15.5738 45.7174 15.5699 45.6394 15.6233C45.1782 15.9399 44.7136 16.252 44.2459 16.5594C44.0026 16.7193 43.8218 16.928 43.6894 17.1863C43.5874 17.3856 43.5068 17.3973 43.3407 17.2498C43.2076 17.1315 43.0804 17.0061 42.9874 16.8518C42.9237 16.7453 42.9139 16.6403 43.0594 16.6035C44.1758 16.3203 44.9794 15.5426 45.8367 14.8504C46.0519 14.6768 46.2642 14.4994 46.4986 14.3518C46.7112 14.2182 46.7434 14.2231 46.8721 14.4328C47.0509 14.7248 47.2399 15.0121 47.3963 15.3158C47.5482 15.6102 47.7477 15.8481 48.0121 16.0471C48.3376 16.292 48.3184 16.4319 47.9637 16.6412C47.8669 16.6983 47.7709 16.7553 47.6562 16.7631ZM46.3268 34.934C46.7498 34.9334 47.1466 35.0561 47.5328 35.208C47.7113 35.2784 47.7694 35.2039 47.8111 35.0573C47.8448 34.9387 47.8287 34.8244 47.799 34.707C47.7649 34.5725 47.8111 34.4916 47.9652 34.4903C48.1264 34.4885 48.2802 34.5143 48.4227 34.5906C48.5817 34.6762 48.5907 34.7582 48.4448 34.8678C48.2925 34.9823 48.1752 35.1147 48.1324 35.3069C48.1156 35.3828 48.1268 35.4254 48.2022 35.4615C48.5176 35.6123 48.8089 35.8043 49.1014 35.994C49.251 36.0908 49.4161 36.1137 49.5908 36.1172C49.9167 36.1238 49.9891 36.2526 49.8398 36.5416C49.7491 36.7176 49.6576 36.8943 49.4832 37.0053C49.2904 37.128 49.1464 37.061 49.1359 36.834C49.1281 36.6617 49.0598 36.5342 48.9308 36.427C48.6814 36.2201 48.4148 36.0418 48.1283 35.8899C48.0076 35.8258 47.9652 35.8488 47.9269 35.978C47.8759 36.1481 47.8501 36.3129 47.9183 36.4797C47.9746 36.6172 47.9119 36.6623 47.7874 36.6674C47.5966 36.6752 47.4207 36.6166 47.2598 36.5243C47.1045 36.435 47.1109 36.2918 47.2714 36.1555C47.3982 36.0479 47.5182 35.9416 47.5598 35.7688C47.5763 35.7006 47.5842 35.6584 47.5039 35.6338C47.1151 35.5135 46.7322 35.3662 46.3159 35.3678C46.1697 35.3684 46.0272 35.3934 45.8955 35.459C45.6882 35.5625 45.6308 35.7127 45.7103 35.9327C45.7279 35.982 45.75 36.0311 45.7594 36.0822C45.7917 36.2571 45.7294 36.3186 45.5551 36.2766C45.3559 36.2285 45.1632 36.1613 44.9963 36.0371C44.8452 35.9244 44.8422 35.8668 44.9854 35.7498C45.0582 35.6909 45.1219 35.6282 45.1707 35.5475C45.4336 35.1127 45.8236 34.9155 46.3268 34.934ZM49.3171 32.7072C49.4277 32.9643 49.4884 33.1908 49.4239 33.4393C49.323 33.8293 49.1352 33.9879 48.7294 34.0071C48.4156 34.0219 48.1163 33.9307 47.8107 33.8879C47.5609 33.8528 47.3164 33.8387 47.0678 33.8979C46.7907 33.9637 46.6737 33.8586 46.6815 33.5707C46.6823 33.5444 46.6823 33.518 46.6846 33.4916C46.7134 33.1395 46.8057 33.0783 47.1211 33.2315C47.5433 33.4362 47.9963 33.5117 48.4531 33.569C48.7966 33.6121 49.0309 33.4561 49.0733 33.1952C49.0962 33.0541 49.0609 32.9303 48.9649 32.8309C48.7913 32.6508 48.6139 32.4846 48.3409 32.4522C48.0083 32.4127 47.6798 32.3406 47.3487 32.2868C47.1852 32.2602 47.0251 32.2621 46.8627 32.3193C46.6782 32.384 46.5916 32.3114 46.5908 32.1123C46.5908 32.0467 46.5957 31.9803 46.6051 31.9152C46.6594 31.5473 46.7134 31.5317 47.0386 31.6963C47.3397 31.8486 47.6813 31.8801 48.0072 31.9561C48.5153 32.0742 49.0253 32.0719 49.5357 31.9697C49.5807 31.9606 49.6272 31.959 49.6733 31.9559C49.9598 31.9358 49.9737 31.9477 49.9658 32.2406C49.9621 32.3783 49.9501 32.5158 49.9411 32.6534C49.9298 32.8264 49.8267 32.8598 49.6804 32.8188C49.5694 32.7877 49.4603 32.7514 49.3171 32.7072ZM48.5041 23.9479C48.3694 23.8572 48.2416 23.8047 48.1422 23.7065C47.8328 23.4 47.8759 22.9952 48.2528 22.7811C48.3781 22.71 48.5134 22.6504 48.6511 22.6108C48.9087 22.5363 49.1344 22.4285 49.3204 22.2229C49.5139 22.0092 49.6564 22.0566 49.6861 22.3162C49.7014 22.4516 49.7517 22.5848 49.7539 22.7235C49.7573 22.9063 49.6755 22.9606 49.5042 22.8977C49.2061 22.7885 48.6994 22.9311 48.4909 23.1766C48.3987 23.2852 48.4201 23.3758 48.5059 23.4731C48.7879 23.7928 49.4993 23.8164 49.8072 23.5145C50.0318 23.2944 50.1237 23.3156 50.2268 23.6127C50.2358 23.6375 50.2425 23.6631 50.2493 23.6885C50.3505 24.0621 50.3157 24.0871 49.9287 24.1272C49.4056 24.1811 48.8862 24.2723 48.3642 24.3397C47.6832 24.4275 47.0022 24.5084 46.3358 24.2444C46.2466 24.2088 46.1412 24.2164 46.044 24.1983C45.9346 24.1776 45.8157 24.161 45.7576 24.0504C45.6567 23.8592 45.9214 23.3774 46.1367 23.3479C46.2432 23.3332 46.3058 23.4002 46.3321 23.4797C46.4851 23.9442 46.8679 24.0194 47.2771 24.0412C47.6791 24.0629 48.0807 24.0559 48.5041 23.9479ZM47.5403 39.9926C47.5193 40.2615 47.4972 40.5289 47.5493 40.7985C47.5782 40.9463 47.5114 41.0246 47.3479 40.9954C47.1222 40.9549 46.923 40.8596 46.7487 40.7119C46.6519 40.6298 46.6572 40.5435 46.7483 40.461C46.812 40.4036 46.8777 40.3489 46.9444 40.2953C47.1297 40.1464 47.1908 39.927 47.1049 39.7155C47.0401 39.5554 46.8841 39.4853 46.6373 39.5066C46.3774 39.5288 46.1389 39.6173 45.9106 39.7399C45.6897 39.8584 45.4647 39.9653 45.2134 40.0058C44.8767 40.0605 44.5403 39.8558 44.4079 39.5085C44.2774 39.1661 44.3974 38.7788 44.6895 38.604C44.826 38.5223 44.9761 38.469 45.1294 38.433C45.3316 38.3854 45.4962 38.3033 45.5817 38.0974C45.6158 38.0156 45.6691 37.9223 45.7831 37.941C45.8993 37.9601 45.9316 38.0558 45.9473 38.1589C45.9777 38.3606 46.014 38.5616 46.0399 38.7638C46.0598 38.9213 45.9803 38.9854 45.8277 38.9543C45.7058 38.9291 45.5866 38.8898 45.4643 38.8703C45.3248 38.8478 45.1875 38.8673 45.0661 38.9471C44.9401 39.0304 44.8673 39.1478 44.8988 39.2978C44.9284 39.4391 45.0574 39.4613 45.1778 39.4718C45.3856 39.4898 45.5828 39.4425 45.7756 39.3671C46.0204 39.2711 46.2608 39.1654 46.5128 39.0851C47.0802 38.904 47.4799 39.2666 47.5396 39.795C47.5471 39.8603 47.5403 39.9266 47.5403 39.9926ZM38.6547 11.9268C38.4387 11.8701 38.2253 11.7701 38.0581 11.5938C37.9801 11.5113 38.0134 11.4291 38.0959 11.3567C39.0151 10.5525 39.6061 9.51214 40.1734 8.45607C40.2544 8.3055 40.2931 8.13829 40.3081 7.96467C40.3321 7.68945 40.4052 7.64708 40.6444 7.76839C40.7899 7.84219 40.9306 7.92833 41.0671 8.01818C41.2294 8.12483 41.2392 8.19552 41.094 8.32463C40.3523 8.98538 39.8217 9.8088 39.3023 10.641C39.0889 10.983 38.8898 11.3313 38.8613 11.7473C38.8531 11.8635 38.7961 11.9309 38.6547 11.9268ZM47.0723 17.9223C47.2988 18.0612 47.4837 18.2305 47.6198 18.453C47.6817 18.5537 47.8114 18.524 47.9082 18.5606C48.1066 18.6358 48.1354 18.7409 47.9869 18.8914C47.9457 18.9334 47.9003 18.9723 47.8531 19.0073C47.5388 19.2389 47.3776 19.1731 47.3082 18.7856C47.2579 18.5051 46.9298 18.2537 46.5994 18.2711C46.0969 18.2973 45.6578 18.4979 45.2674 18.809C45.1714 18.8856 45.1459 19.0113 45.0743 19.1057C44.9599 19.2563 44.8688 19.2649 44.7334 19.1334C44.7004 19.1016 44.6689 19.0662 44.6453 19.0275C44.5628 18.894 44.4398 18.7555 44.5077 18.5942C44.5782 18.4268 44.7679 18.4887 44.9082 18.4498C45.5783 18.2637 46.2109 17.9967 46.7026 17.4821C46.8034 17.3762 46.8544 17.2227 46.9294 17.0914C46.9988 16.9694 47.0813 16.9498 47.1735 17.0666C47.2797 17.2006 47.3881 17.3334 47.4852 17.4737C47.5868 17.6201 47.5508 17.7071 47.3798 17.7666C47.2748 17.8031 47.1698 17.8399 47.0723 17.9223ZM32.2576 5.79942C32.3449 5.80392 32.4436 5.80628 32.542 5.81445C32.791 5.83519 32.8432 5.91683 32.723 6.12735C32.5193 6.48402 32.3797 6.86505 32.268 7.25745C32.167 7.61213 32.108 7.9752 32.0717 8.34203C32.0519 8.54123 32.0801 8.73225 32.1314 8.9262C32.1916 9.15334 32.126 9.22755 31.8928 9.23712C31.735 9.24375 31.5766 9.24495 31.4203 9.21507C31.1955 9.17209 31.1539 9.06975 31.3033 8.892C31.4139 8.76038 31.5246 8.63145 31.5895 8.47073C31.7529 8.06524 31.8104 7.63343 31.8994 7.2096C31.9846 6.80393 32.0043 6.40294 31.8062 6.01624C31.7377 5.88225 31.7973 5.80178 31.95 5.79964C32.0486 5.79825 32.1475 5.79942 32.2576 5.79942ZM43.7172 13.2299C43.7187 13.2967 43.6658 13.3401 43.6208 13.3877C43.5357 13.4791 43.4483 13.5684 43.3639 13.6608C43.2166 13.8225 43.104 13.817 43.0306 13.6125C42.8599 13.1367 42.5247 12.7877 42.1812 12.4406C42.0304 12.2881 41.8681 12.17 41.6483 12.1254C41.4304 12.0811 41.4004 11.9674 41.5381 11.7867C41.6258 11.6711 41.7203 11.5608 41.8351 11.4709C42.0042 11.3383 42.0781 11.344 42.1324 11.5485C42.2787 12.0975 42.6799 12.4293 43.0969 12.7559C43.2346 12.8633 43.3999 12.9098 43.5511 12.9863C43.6493 13.0359 43.7371 13.0908 43.7172 13.2299ZM20.1744 9.24417C19.9887 9.24435 19.8859 9.14085 19.8857 8.95335C19.8857 8.76428 20.0781 8.6082 20.3133 8.60648C20.4625 8.60528 20.557 8.71898 20.5568 8.89924C20.5568 9.12405 20.4236 9.24398 20.1744 9.24417ZM16.4189 10.1504C16.4217 10.367 16.2744 10.5043 16.0385 10.5053C15.8746 10.5061 15.7547 10.3744 15.7576 10.1967C15.7604 10.0266 15.9658 9.84552 16.1658 9.83674C16.3068 9.83048 16.4166 9.96642 16.4189 10.1504ZM32.4336 4.87932C32.6406 4.88734 32.7287 4.95882 32.7201 5.12112C32.7123 5.26857 32.6336 5.35238 32.4817 5.34964C32.2613 5.34552 32.1121 5.2377 32.1221 5.09592C32.133 4.94007 32.2316 4.87129 32.4336 4.87932ZM31.208 7.88832C31.1275 7.59045 31.1113 7.29162 31.1555 6.98734C31.1941 6.71974 31.226 6.45098 31.2004 6.18008C31.1738 5.89669 31.0568 5.6721 30.7656 5.58244C30.4982 5.5002 30.2338 5.50354 29.9812 5.64124C29.9473 5.63322 29.9062 5.63809 29.8928 5.59279C29.9131 5.50275 29.9359 5.4135 29.9527 5.32287C29.9857 5.14395 29.9357 5.08009 29.7502 5.07619C29.5922 5.07285 29.4338 5.08497 29.2758 5.08185C29.1059 5.07852 29.0486 5.16604 29.0756 5.31897C29.1133 5.53264 29.1699 5.74358 29.1986 5.95823C29.2992 6.7137 29.2221 7.4502 28.9342 8.15922C28.8773 8.29924 28.8908 8.37833 29.0547 8.41662C29.1851 8.44729 29.3149 8.46094 29.4461 8.45625C29.6467 8.44924 29.7254 8.33655 29.6416 8.1543C29.5834 8.02774 29.5678 7.90392 29.5775 7.7709C29.5934 7.55412 29.5971 7.33557 29.6277 7.12073C29.677 6.7752 29.6492 6.4086 29.9264 6.12383C30.109 5.93614 30.2834 5.85098 30.4814 5.92695C30.694 6.0084 30.7707 6.19163 30.7736 6.4002C30.7807 6.87053 30.7289 7.3344 30.56 7.77795C30.4004 8.19649 30.4756 8.29729 30.932 8.26369C31.1906 8.24475 31.2752 8.13713 31.208 7.88832ZM35.3729 7.21583C35.2025 7.29398 35.0642 7.41544 34.9258 7.53732C34.8824 7.52423 34.8934 7.48148 34.8797 7.45215C34.8863 7.40667 34.8904 7.36077 34.9 7.31584C34.9863 6.91272 34.7965 6.642 34.3897 6.59063C34.3217 6.58204 34.2533 6.57795 34.174 6.57072C34.2355 6.34984 34.3986 6.22815 34.5235 6.07913C34.6469 5.93187 34.6322 5.85353 34.4576 5.77992C34.2498 5.6922 34.031 5.64672 33.8041 5.64454C33.565 5.64222 33.5242 5.69337 33.6053 5.92797C33.6619 6.09143 33.7193 6.25062 33.665 6.426C33.4236 7.20645 33.2908 8.03265 32.6918 8.6592C32.5486 8.80902 32.5895 8.94259 32.7822 9.02775C32.8783 9.07032 32.9762 9.11115 33.0767 9.14123C33.3371 9.21915 33.4404 9.13399 33.4117 8.86309C33.3935 8.69085 33.3826 8.52113 33.4465 8.35568C33.5955 7.96898 33.7375 7.57932 33.9166 7.20492C34.0004 7.02953 34.1273 6.97032 34.3352 7.02072C34.4922 7.05882 34.5346 7.18148 34.5324 7.32327C34.5264 7.72598 34.458 8.10765 34.1611 8.41332C34.0779 8.49885 34.0293 8.61465 34.1123 8.7174C34.2166 8.84652 34.3701 8.90959 34.5355 8.87659C34.6586 8.85195 34.6822 8.73225 34.6805 8.62425C34.6785 8.48753 34.7063 8.36097 34.7795 8.24805C34.9283 8.01934 35.1096 7.81995 35.3398 7.67052C35.5012 7.56585 35.675 7.44398 35.866 7.57152C36.0504 7.69474 36.0068 7.90215 35.9692 8.07953C35.8601 8.59144 35.6121 9.03987 35.2897 9.44592C34.9433 9.88185 34.9447 9.90274 35.4641 10.1147C35.665 10.1967 35.7506 10.1516 35.7563 9.92933C35.7629 9.66525 35.8453 9.42795 35.9463 9.18968C36.1285 8.75997 36.3326 8.334 36.3535 7.85625C36.3783 7.2879 35.8947 6.9762 35.3729 7.21583ZM50.4983 28.0022C50.3573 28.0371 50.2579 27.9227 50.1991 27.6776C50.1867 27.6264 50.1766 27.5744 50.1709 27.5221C50.1398 27.2166 50.247 27.1266 50.5448 27.1988C50.6273 27.2188 50.6438 27.2819 50.6573 27.3438C50.6772 27.4332 50.6847 27.5254 50.694 27.5942C50.6772 27.7715 50.7045 27.9512 50.4983 28.0022ZM49.6508 27.3615C49.6107 27.6239 49.5458 27.8762 49.3977 28.1008C49.1899 28.416 48.9162 28.5963 48.5205 28.5375C48.0799 28.4719 47.7597 28.2549 47.6307 27.8145C47.4709 27.2705 47.5186 27.2104 48.0713 27.2035C48.2622 27.2012 48.4531 27.2031 48.6439 27.2031V27.2008C48.9263 27.2008 49.2094 27.2072 49.4922 27.1979C49.6212 27.1936 49.6714 27.2276 49.6508 27.3615ZM51.2689 26.5559C51.2254 26.5287 51.1834 26.544 51.1369 26.5561C50.9779 26.5977 50.8178 26.6361 50.6569 26.6684C50.0258 26.7942 49.3838 26.7801 48.7456 26.8063C48.1069 26.8326 47.4657 26.8496 46.8357 26.7039C46.5938 26.6481 46.5241 26.6936 46.5158 26.9461C46.5136 27.0119 46.5143 27.0785 46.5218 27.1438C46.5458 27.3512 46.6069 27.3942 46.8076 27.3528C46.8848 27.3369 46.9628 27.3219 47.0404 27.3086C47.1458 27.2906 47.2013 27.3215 47.1934 27.4432C47.1803 27.6491 47.2163 27.8494 47.2778 28.0465C47.4522 28.6041 47.9119 28.9961 48.4411 29.0344C49.0332 29.0772 49.452 28.8119 49.7284 28.2178C49.7794 28.1078 49.827 27.9961 49.8829 27.8709C49.9639 28.0162 50.0221 28.1489 50.1053 28.2629C50.3116 28.5449 50.6528 28.5446 50.8741 28.2705C50.9772 28.1432 51.0169 27.9926 51.0383 27.833C51.0657 27.6293 51.0301 27.426 51.0353 27.2211C51.2746 27.2682 51.3413 27.2518 51.3814 27.1399C51.4317 26.9985 51.3578 26.6114 51.2689 26.5559ZM26.8779 5.79338C26.6848 5.83125 26.4908 5.86624 26.2973 5.90138C26.2201 5.91544 26.2057 5.87307 26.2184 5.8092C26.2959 5.41778 26.3267 5.01799 26.4705 4.6221C26.6246 4.98128 26.7777 5.34064 26.934 5.69884C26.9629 5.76488 26.9254 5.784 26.8779 5.79338ZM28.4549 8.04495C28.3199 8.01799 28.2629 7.93148 28.2101 7.81703C27.868 7.0752 27.5699 6.31504 27.2953 5.5467C27.1283 5.08009 26.8723 4.6377 26.8699 4.11897C26.8693 3.97932 26.7547 3.9381 26.6309 3.93848C26.4164 3.93908 26.2142 3.99769 26.0189 4.08008C25.874 4.14124 25.8166 4.242 25.8937 4.39553C25.9551 4.51778 25.9584 4.64708 25.9422 4.78107C25.8096 5.88713 25.608 6.9795 25.3061 8.05238C25.2719 8.17347 25.2221 8.27659 25.1074 8.35628C24.941 8.47208 24.9738 8.61447 25.1686 8.68692C25.3336 8.74845 25.5067 8.7342 25.6774 8.73402C25.8113 8.73379 25.8629 8.65977 25.8029 8.54123C25.7351 8.40687 25.7467 8.27599 25.7762 8.1381C25.8654 7.72013 25.9471 7.30039 26.0408 6.88343C26.1877 6.2295 26.1908 6.23029 26.907 6.18282C27.0984 6.0846 27.149 6.24375 27.2111 6.41097C27.4199 6.97328 27.5828 7.54924 27.7342 8.12892C27.7666 8.25372 27.7709 8.3709 27.7332 8.49709C27.6695 8.70979 27.7586 8.80118 27.977 8.74182C28.2381 8.67053 28.4158 8.48243 28.5588 8.26448C28.632 8.15295 28.5723 8.06858 28.4549 8.04495ZM18.8642 8.6418C18.8385 8.9049 18.732 9.13302 18.4742 9.23614C18.2156 9.33987 17.9709 9.27169 17.7574 9.09867C17.6233 8.99007 17.5192 8.85394 17.4358 8.70353C17.0977 8.09337 16.8666 7.44923 16.8201 6.82032C16.8258 6.57582 16.8244 6.40568 16.8947 6.24278C17.0832 5.80549 17.4838 5.71369 17.8219 6.04613C18.1949 6.41292 18.4373 6.86622 18.6043 7.35492C18.7102 7.66448 18.7764 7.9881 18.8488 8.30802C18.8732 8.41527 18.875 8.53167 18.8642 8.6418ZM19.2232 8.6256C19.2203 8.23009 19.1283 7.90647 19.0408 7.58243C18.8689 6.94632 18.6139 6.35119 18.1631 5.85687C17.9396 5.61192 17.6752 5.45625 17.3273 5.50215C16.5652 5.60254 16.0658 6.28868 16.1768 7.06857C16.2486 7.57425 16.4068 8.0547 16.5949 8.52522C16.7404 8.88945 16.9639 9.20625 17.2553 9.47288C17.6549 9.83869 18.0901 9.86584 18.5678 9.63615C19.0203 9.41858 19.2531 9.07815 19.2232 8.6256ZM38.5561 8.74572C38.4286 8.99494 38.2156 9.09769 37.9414 9.11974C37.7704 9.09709 37.6024 9.04827 37.4608 8.93029C37.3426 8.83185 37.2963 8.70548 37.3428 8.55979C37.3898 8.41253 37.49 8.31173 37.6519 8.29103C37.9692 8.2506 38.2478 8.34672 38.5039 8.52972C38.5902 8.59103 38.6041 8.65197 38.5561 8.74572ZM39.4099 8.10664C39.2779 8.04825 39.1474 7.98342 39.0102 7.94123C38.7038 7.8471 38.6948 7.8582 38.6956 8.18479C38.6959 8.20902 38.6997 8.23928 38.6472 8.2506C38.6044 8.21955 38.5546 8.17894 38.5009 8.14474C38.1608 7.92953 37.8031 7.81017 37.3976 7.93733C37.083 8.03614 36.7943 8.334 36.7828 8.59242C36.767 8.9463 37.009 9.11565 37.2803 9.25939C37.5271 9.39027 37.8031 9.43399 38.0884 9.52579C38.0543 9.57679 38.0326 9.61778 38.0033 9.65235C37.6268 10.0963 37.7142 10.0639 38.1923 10.3059C38.4282 10.4254 38.5366 10.3623 38.5651 10.1006C38.6063 9.72638 38.7319 9.3834 38.9453 9.07639C39.1103 8.83909 39.2907 8.61214 39.4699 8.38519C39.5678 8.26114 39.5554 8.17073 39.4099 8.10664ZM48.4501 21.1113C48.3582 21.1535 48.2614 21.1664 48.1527 21.175C47.8159 21.1762 47.4754 20.8414 47.4687 20.4922C47.4634 20.2285 47.7379 20.0438 47.9813 20.1609C48.3199 20.324 48.4557 20.6366 48.5397 20.9783C48.5569 21.0481 48.5108 21.0838 48.4501 21.1113ZM49.4892 21.192C49.4269 21.0323 49.3501 20.8793 49.2488 20.7401C49.1232 20.5674 49.0819 20.5688 48.9432 20.7407C48.9136 20.7776 48.8959 20.8385 48.8299 20.8233C48.7928 20.7008 48.7632 20.5793 48.7197 20.4627C48.5194 19.9235 48.0709 19.6293 47.5504 19.691C47.1859 19.7342 47.001 19.9571 47.0292 20.3256C47.0464 20.5481 47.1417 20.7438 47.2534 20.9311C47.3468 21.0879 47.4496 21.2391 47.5538 21.4016C47.4912 21.4233 47.4443 21.442 47.3959 21.4553C46.9073 21.5904 46.9073 21.5903 47.1263 22.0709C47.2328 22.3047 47.3513 22.3315 47.5452 22.1539C47.8125 21.9092 48.1201 21.742 48.4658 21.6363C48.7561 21.5477 49.0549 21.5024 49.3512 21.4449C49.5173 21.4127 49.5417 21.3266 49.4892 21.192ZM49.7209 30.833C49.6328 30.8822 49.5398 30.8618 49.4648 30.7967C49.3313 30.6811 49.2893 30.526 49.2908 30.3452C49.3081 30.283 49.2593 30.1818 49.3444 30.1412C49.4378 30.0965 49.5181 30.1623 49.5908 30.2201C49.7164 30.3195 49.7697 30.4604 49.8008 30.6088C49.8188 30.6936 49.8053 30.7862 49.7209 30.833ZM49.0478 30.8072C49.0414 30.8075 49.0351 30.8075 49.0283 30.8075V30.3106C49.0351 30.3084 49.0414 30.3063 49.0478 30.3041V30.8072ZM50.0438 30.2338C49.8297 29.6153 48.9739 29.2789 48.3409 29.5483C48.1673 29.6223 48.0469 29.7391 47.9783 29.9154C47.8572 30.227 47.7616 30.551 47.5017 30.7901C47.406 30.878 47.43 30.9782 47.5591 31.0139C47.7878 31.0768 48.0203 31.1287 48.2599 31.0656C48.4272 31.0215 48.4523 30.9539 48.3458 30.8233C48.3087 30.7776 48.2648 30.7367 48.2209 30.6973C48.0949 30.5844 48.0837 30.4502 48.1429 30.3014C48.2573 30.0131 48.6068 29.8168 48.9109 29.8653C49.0156 29.8818 49.0651 29.9168 49.0227 30.0338C48.9679 30.1844 48.9732 30.3447 48.9679 30.5024C48.9571 30.7166 48.9781 30.925 49.0879 31.1149C49.1974 31.3035 49.3609 31.3881 49.5807 31.3785C49.7903 31.3694 49.9257 31.2619 50.0082 31.0809C50.1346 30.8045 50.1409 30.5145 50.0438 30.2338Z" fill="black"/>
<path d="M47.3593 37.9455C47.2985 38.1233 47.156 38.193 46.9715 38.1791C46.5823 38.1664 46.3565 37.887 46.4848 37.5803C46.5365 37.4559 46.6243 37.4076 46.751 37.4434C46.8905 37.4826 47.0274 37.5334 47.1485 37.614C47.2659 37.6924 47.4227 37.7603 47.3593 37.9455ZM46.7585 36.8643C46.2898 36.8604 46.0333 37.1112 46.0295 37.578C46.0254 38.061 46.4687 38.4825 46.9899 38.4911C47.393 38.4979 47.753 38.1611 47.7602 37.7689C47.7695 37.278 47.3169 36.8692 46.7585 36.8643ZM32.2773 4.95178C32.3768 4.91038 32.4434 4.92755 32.51 4.95178H32.2773Z" fill="black"/>
<path d="M38.6073 17.5681C38.8781 17.7179 39.0952 17.931 39.3202 18.1364C39.5111 18.3187 39.5411 18.4931 39.3644 18.704C39.1458 18.9653 39.1192 19.2214 39.1923 19.556C39.3142 20.113 39.2636 20.6761 39.0044 21.2023V21.2021C38.9373 21.3949 38.8466 21.5728 38.6932 21.7128C38.5372 21.9323 38.3171 22.0786 38.0999 22.2277C37.8813 22.4296 37.6443 22.6062 37.3789 22.7427C36.8059 23.2093 35.9967 23.2228 35.5875 22.6939C35.3607 22.4011 35.1986 22.4405 34.9277 22.5521C34.6051 22.6849 34.2582 22.745 33.9049 22.7427L33.8876 22.742C33.8582 22.7409 33.8286 22.7397 33.7992 22.7384C33.7672 22.7419 33.7354 22.7452 33.7033 22.7488C33.6594 22.7497 33.6156 22.7499 33.5719 22.7507C33.2523 22.8085 32.9291 22.7802 32.6074 22.7855C32.5861 22.7993 32.5687 22.8193 32.5588 22.8497C32.5267 22.947 32.5377 23.0458 32.6301 23.1171C32.7293 23.1939 32.8383 23.2552 32.9461 23.3181C33.6898 23.7513 34.4285 24.1933 35.133 24.6884C35.5416 24.9755 35.9439 25.2747 36.2647 25.6652C36.4088 25.8407 36.5094 26.0347 36.5084 26.2739C36.5076 26.4544 36.6308 26.5661 36.7834 26.6253C37.0539 26.7302 37.3144 26.8534 37.5697 26.99C37.5712 26.9908 37.5731 26.9917 37.5749 26.9927L37.5761 26.9698C37.8757 27.0888 38.1397 27.2638 38.3752 27.4829C38.5642 27.588 38.7089 27.7417 38.8143 27.9251C38.9838 28.2194 38.8147 28.5107 38.4764 28.5202C38.0756 28.5316 37.7422 28.3382 37.4045 28.1607C36.9676 27.9308 36.5586 27.6485 36.0986 27.463C35.7135 27.3077 35.4895 27.4361 35.4182 27.8415L35.4179 27.8432C35.4099 27.888 35.4019 27.9333 35.4008 27.9784C35.3951 28.2284 35.324 28.4583 35.1969 28.6722L35.1967 28.6724H35.1969C35.1523 28.813 35.0658 28.9115 34.9186 28.9487C34.8244 29.0193 34.7275 29.0847 34.6107 29.1128C34.3058 29.2724 33.974 29.3052 33.6385 29.3171C32.7256 29.3499 31.8455 29.2027 31.0076 28.8296C30.7336 28.72 30.4795 28.5755 30.2717 28.3644C30.0363 28.1257 29.8775 28.1087 29.6064 28.3132C29.4982 28.3948 29.4031 28.4999 29.2559 28.5126C29.0443 28.6146 28.9142 28.7353 28.976 29.0167C29.0342 29.2828 28.9248 29.5505 28.8314 29.804C28.6965 30.171 28.5154 30.5142 28.2633 30.8165C28.1209 30.9872 28.1123 31.1683 28.2101 31.3681C28.5951 32.1544 28.7822 32.9908 28.823 33.8624C28.8258 33.9214 28.8139 33.9876 28.8621 34.031C29.0437 34.1948 29.0443 34.4214 29.0597 34.6339C29.0969 35.1413 29.0658 35.6482 29.006 36.1531C28.9559 36.5788 29.0014 36.9931 29.1463 37.3972C29.227 37.6226 29.2566 37.8573 29.2588 38.0958C29.2666 38.9658 29.2928 39.8366 29.1758 40.7028C29.1389 40.7546 29.0851 40.7486 29.0326 40.7426C28.4818 40.6788 27.9367 40.5907 27.4219 40.3706C27.3613 40.3447 27.2971 40.3241 27.2453 40.2832L27.2255 40.2674C26.8194 39.9464 26.4132 39.6254 26.0281 39.2793C26.0101 39.2489 25.99 39.2208 25.9685 39.1946L24.3625 38.0651C24.359 38.0628 24.3554 38.0602 24.3517 38.0572C23.9244 37.8138 23.4969 37.5701 23.0695 37.3265C23.124 37.2943 23.1287 37.2437 23.1176 37.1892C23.0572 36.8929 23.0137 36.5927 22.9037 36.3085C22.8043 36.2347 22.8148 36.1111 22.7803 36.0116C22.641 35.6119 22.4369 35.247 22.2154 34.89C21.8941 34.4701 21.7691 34.006 21.9017 33.4851C21.9213 33.4083 21.9338 33.3322 21.9404 33.2528C21.975 32.8364 22.4138 32.5693 22.817 32.6947C23.1773 32.8066 23.551 32.8199 23.9256 32.7695C24.1455 32.7398 24.3644 32.7253 24.5742 32.6276C24.9607 32.4474 25.3021 32.2058 25.5805 31.8898C25.8791 31.5505 26.1838 31.2138 26.4408 30.84C26.7338 30.414 26.8031 29.7062 26.5299 29.238C26.4559 29.1109 26.3998 28.9689 26.3299 28.8365C26.1475 28.6232 25.8928 28.5116 25.6656 28.3609C25.4098 28.1908 25.3344 28.0306 25.4275 27.7507C25.5576 27.3609 25.5605 26.9859 25.3875 26.6119L25.3879 26.6134C25.1762 26.3749 24.9644 26.1367 24.7527 25.8982L24.7545 25.9003C24.5082 25.7814 24.3154 25.5833 24.0816 25.4447C23.9977 25.3951 23.874 25.3888 23.8406 25.2675C23.6183 25.254 23.456 25.0919 23.2508 25.0282C23.0574 24.9683 22.8674 24.9042 22.6664 24.874C22.1375 24.7946 21.7838 24.4794 21.534 24.0265C21.5086 23.9804 21.4846 23.9339 21.46 23.8876C21.4267 23.8267 21.4016 23.7648 21.3814 23.7015C21.2982 23.4878 21.2775 23.2622 21.2869 23.0292C21.2664 22.721 21.2701 22.4122 21.2676 22.1038C21.2558 21.9071 21.2453 21.7105 21.2465 21.5138C21.242 21.4517 21.2363 21.3896 21.2293 21.3275C21.2059 21.1212 21.052 21.1724 20.9533 21.1792C20.3977 21.2189 19.9226 21.4532 19.51 21.821C19.4662 21.8601 19.4291 21.9101 19.3605 21.9032V21.9034C19.0922 22.1226 18.8875 22.4015 18.6572 22.6562C18.6301 22.6862 18.6076 22.7208 18.5818 22.7519C18.5647 22.7785 18.548 22.8054 18.532 22.8329C18.2986 23.2124 18.0031 23.5474 17.7539 23.9163C17.5674 24.1923 17.3728 24.464 17.1777 24.7347C17.1463 24.7726 17.1172 24.812 17.0891 24.8521C16.9922 25.0497 16.8543 25.2208 16.7121 25.3894C16.6642 25.4645 16.6163 25.5396 16.5685 25.6147L16.5123 25.7029C16.3494 26.0634 16.1351 26.3921 15.8963 26.706C15.8922 26.7154 15.8857 26.7244 15.876 26.7329C15.7586 26.897 15.6527 27.0679 15.5642 27.2491C15.4918 27.4531 15.4152 27.6544 15.2451 27.8019C15.2205 27.9613 15.1369 28.0958 15.0531 28.2267C14.865 28.5202 14.7609 28.856 14.5758 29.1503C14.5721 29.1603 14.5699 29.1708 14.5693 29.1814V29.1816C14.575 29.3249 14.5035 29.4472 14.4605 29.5773C14.3662 29.8642 14.316 30.1613 14.2496 30.4546C14.1605 30.8478 14.1879 31.2392 14.1806 31.6324C14.1781 31.771 14.1137 31.853 13.9779 31.8796C13.8121 32.0242 13.673 32.1988 13.6236 32.4085C13.5504 32.7206 13.3373 32.8781 13.0844 33.0062C13.059 33.0228 13.0334 33.039 13.0074 33.0552C12.9865 33.0683 12.9656 33.0818 12.9447 33.095C12.5849 33.3525 12.2244 33.6093 11.8656 33.8687C11.6957 33.9915 11.5299 34.1206 11.3623 34.247C11.3621 34.247 11.3621 34.2472 11.3621 34.2472C11.3563 34.2599 11.3492 34.2673 11.3414 34.2712C11.1887 34.4509 11.0178 34.6101 10.8127 34.7304C10.813 34.7537 10.8135 34.7773 10.814 34.8007L10.8142 34.8115C10.8127 34.8659 10.8109 34.922 10.8095 34.9763C10.7773 34.9726 10.749 34.962 10.7342 34.93C10.6969 34.9296 10.6863 34.9128 10.6562 34.8782C10.1131 34.5505 9.63516 34.14 9.18456 33.698C8.35974 32.8888 7.70196 31.962 7.24959 30.8947C7.20782 30.865 7.21131 30.8191 7.20703 30.7759C7.46661 30.505 7.64589 30.172 7.89081 29.8894C7.98103 29.7853 8.05311 29.6599 8.15859 29.5755C8.44903 29.3433 8.52343 29.0365 8.56562 28.6833C8.64902 27.9835 8.86348 27.3421 9.39336 26.8181C10.0982 26.1206 10.7586 25.3781 11.4392 24.656C11.515 24.5757 11.5902 24.4927 11.6926 24.4433C11.8779 24.3034 12.0045 24.0927 12.2279 23.9987C12.4674 23.92 12.5693 23.7288 12.6635 23.5109C12.8668 23.0404 13.1396 22.6068 13.4269 22.1829C13.5609 21.9037 13.7361 21.6575 13.993 21.4767C14.0154 21.4482 14.0377 21.4196 14.0602 21.391C14.1449 21.213 14.2779 21.0829 14.4527 20.9941C14.4965 20.9556 14.5402 20.9171 14.584 20.8786C14.9541 20.555 15.3525 20.2687 15.7467 19.9759C16.2549 19.5984 16.3461 19.0777 16.0111 18.54C15.7996 18.2001 15.6562 17.8388 15.647 17.4328C15.5568 16.3593 16.0881 15.5327 17.1 15.172C17.3945 15.0005 17.6933 14.8359 17.9824 14.656C18.3826 14.407 18.7832 14.1568 19.1272 13.8294C19.1924 13.746 19.2457 13.6482 19.3676 13.6349V13.6355C19.4486 13.5023 19.5629 13.4093 19.7037 13.3429C19.8908 13.255 20.035 13.2849 20.1297 13.4691C20.1959 13.598 20.2752 13.607 20.3834 13.5495C20.5049 13.4851 20.6238 13.4169 20.7307 13.3275C21.4475 12.7269 22.2859 12.3882 23.1934 12.2105C23.8107 12.0896 24.434 12.0037 25.066 12.0105C25.7246 12.0107 26.3842 11.9874 27.0414 12.0169C28.0172 12.0609 28.9961 12.0745 29.9658 12.2095C30.6604 12.3062 31.3189 12.5179 31.9416 12.8437C32.1658 12.9609 32.4129 13.0386 32.5816 13.2435C32.6257 13.2785 32.6697 13.3135 32.7137 13.3484L32.7787 13.4001C32.9266 13.436 33.014 13.5335 33.0594 13.6744V13.6738C33.2109 13.7796 33.276 13.9325 33.2963 14.1097C33.367 14.2333 33.3836 14.3677 33.3756 14.507C33.4019 14.5329 33.4285 14.5589 33.4549 14.5847C33.6347 14.5783 33.8098 14.6089 33.9836 14.6497C33.9953 14.648 34.0068 14.6503 34.018 14.6578C34.5316 14.7841 34.708 15.188 34.8006 15.6413C34.8728 15.9952 34.9019 16.3573 34.8812 16.7203C34.873 16.862 34.9248 16.9218 35.0736 16.9212C35.5277 16.9191 35.9834 16.8929 36.4351 16.957C36.7375 16.9997 37.0525 16.9732 37.3371 17.1163C37.7763 17.223 38.2079 17.3472 38.6073 17.5681Z" fill="#F8BF18"/>
</svg>
