<svg width="40" height="40" viewBox="0 0 40 40" fill="none" xmlns="http://www.w3.org/2000/svg">
<g clip-path="url(#clip0_3614_32284)">
<rect width="40" height="40" rx="20" fill="#FAFAFA"/>
<path d="M12.9732 14.1257C14.2377 15.3751 14.2499 17.4131 13.0005 18.6776C11.7511 19.942 9.71316 19.9543 8.44867 18.7048C7.18418 17.4554 7.17197 15.4175 8.42139 14.153C9.67081 12.8885 11.7087 12.8763 12.9732 14.1257Z" fill="#0B7B69"/>
<path d="M28.1003 14.954C29.1704 13.5345 31.1885 13.2511 32.6081 14.3211C34.0276 15.3912 34.3109 17.4093 33.2409 18.8288C32.1709 20.2484 30.1527 20.5317 28.7332 19.4617C27.3137 18.3917 27.0303 16.3735 28.1003 14.954Z" fill="#0B7B69"/>
<path d="M18.9319 9.05871C20.1964 10.3081 20.2086 12.3461 18.9592 13.6105C17.7098 14.875 15.6718 14.8872 14.4073 13.6378C13.1429 12.3884 13.1306 10.3505 14.3801 9.08599C15.6295 7.8215 17.6674 7.80929 18.9319 9.05871Z" fill="#0B7B69"/>
<path d="M22.2126 9.65239C23.2826 8.23286 25.3008 7.94953 26.7203 9.01954C28.1399 10.0895 28.4232 12.1077 27.3532 13.5272C26.2832 14.9468 24.265 15.2301 22.8455 14.1601C21.426 13.0901 21.1426 11.0719 22.2126 9.65239Z" fill="#0B7B69"/>
<path d="M20.342 31.5196C19.3655 32.8366 17.7909 33.6217 15.9872 33.6325C14.5513 33.6395 13.1714 33.0767 12.15 32.0675C11.1287 31.0583 10.5494 29.6852 10.5391 28.2494C10.5025 22.1351 19.5387 17.1316 19.9235 16.9249C20.0249 16.8695 20.1385 16.8402 20.2541 16.8395C20.3696 16.8388 20.4835 16.8668 20.5856 16.9209C20.9729 17.123 30.0684 22.0178 30.105 28.1321C30.112 29.568 29.5492 30.9479 28.54 31.9693C27.5308 32.9906 26.1577 33.5699 24.7219 33.5802C22.9182 33.591 21.3343 32.8248 20.342 31.5196Z" fill="#0B7B69"/>
</g>
<defs>
<clipPath id="clip0_3614_32284">
<rect width="40" height="40" rx="20" fill="white"/>
</clipPath>
</defs>
</svg>
