<svg width="259" height="94" viewBox="0 0 259 94" fill="none" xmlns="http://www.w3.org/2000/svg">
    <path d="M42.5692 94C35.8455 94 30.0823 93.2579 25.2796 91.7737C20.5642 90.2895 16.6347 88.393 13.4912 86.0842C10.4349 83.7754 7.98992 81.3018 6.15617 78.6632C4.32241 76.0246 2.96893 73.5509 2.09572 71.2421C1.2225 68.9333 0.654911 67.0368 0.392947 65.5526C0.130982 64.0684 0 63.3263 0 63.3263H25.4106C25.4106 63.3263 25.5852 63.9035 25.9345 65.0579C26.2838 66.2123 27.026 67.5728 28.1612 69.1395C29.3837 70.6237 31.2174 71.943 33.6624 73.0974C36.1074 74.2518 39.4257 74.8289 43.6171 74.8289C48.7691 74.8289 52.3492 73.9219 54.3576 72.1079C56.4534 70.2114 57.5012 68.1912 57.5012 66.0474C57.5012 64.0684 56.7153 62.5018 55.1435 61.3474C53.6591 60.1105 51.0394 59.2035 47.2846 58.6263L34.3174 56.6474C28.7288 55.7404 23.4458 54.2974 18.4685 52.3184C13.4912 50.3395 9.43072 47.4947 6.28715 43.7842C3.2309 40.0737 1.70277 35.2088 1.70277 29.1895C1.70277 23.4175 3.2309 18.3465 6.28715 13.9763C9.43072 9.60614 13.8841 6.18421 19.6473 3.71053C25.4106 1.23684 32.2653 0 40.2116 0C46.4114 0 51.6943 0.700878 56.0604 2.10263C60.4265 3.42193 64.0503 5.19474 66.9319 7.42105C69.8135 9.56491 72.1276 11.8325 73.874 14.2237C75.6204 16.6149 76.9302 18.9237 77.8035 21.15C78.6767 23.2939 79.2443 25.0667 79.5062 26.4684C79.7682 27.7877 79.8992 28.4474 79.8992 28.4474H55.1435C55.1435 28.4474 54.9689 27.9939 54.6196 27.0868C54.3576 26.0974 53.7027 25.0254 52.6549 23.8711C51.607 22.6342 50.0352 21.5623 47.9395 20.6553C45.9311 19.6658 43.1805 19.1711 39.6876 19.1711C36.3694 19.1711 33.7061 19.6246 31.6977 20.5316C29.7766 21.4386 28.3795 22.5518 27.5063 23.8711C26.7204 25.1904 26.3274 26.5097 26.3274 27.8289C26.3274 30.2202 27.5063 31.993 29.864 33.1474C32.309 34.2193 35.2779 35.0439 38.7707 35.6211L52.3929 37.7237C57.8068 38.5482 62.7842 40.0325 67.3249 42.1763C71.9529 44.2377 75.6641 47.1237 78.4584 50.8342C81.2527 54.4623 82.6498 59.0386 82.6498 64.5632C82.6498 70.2526 81.078 75.3237 77.9344 79.7763C74.7909 84.229 70.2502 87.7333 64.3123 90.2895C58.3744 92.7632 51.1267 94 42.5692 94Z" fill="#22D695"/>
    <path d="M129.841 94C121.458 94 114.123 92.6807 107.836 90.0421C101.549 87.3211 96.3098 83.7342 92.1184 79.2816C87.927 74.7465 84.7397 69.6754 82.5567 64.0684C80.461 58.4614 79.4131 52.7307 79.4131 46.8763C79.4131 41.0219 80.461 35.3325 82.5567 29.8079C84.7397 24.2009 87.927 19.1711 92.1184 14.7184C96.3098 10.2658 101.549 6.72018 107.836 4.08159C114.123 1.36053 121.458 0 129.841 0C138.224 0 145.559 1.36053 151.846 4.08159C158.133 6.72018 163.373 10.2658 167.564 14.7184C171.843 19.1711 175.03 24.2009 177.126 29.8079C179.222 35.3325 180.269 41.0219 180.269 46.8763C180.269 52.7307 179.222 58.4614 177.126 64.0684C175.03 69.6754 171.843 74.7465 167.564 79.2816C163.373 83.7342 158.133 87.3211 151.846 90.0421C145.559 92.6807 138.224 94 129.841 94ZM129.841 72.85C135.255 72.85 139.752 71.6132 143.332 69.1395C146.913 66.5833 149.576 63.3263 151.322 59.3684C153.156 55.3281 154.073 51.164 154.073 46.8763C154.073 42.5886 153.156 38.4658 151.322 34.5079C149.576 30.55 146.913 27.3342 143.332 24.8605C139.752 22.3044 135.255 21.0263 129.841 21.0263C124.515 21.0263 120.061 22.3044 116.481 24.8605C112.901 27.3342 110.194 30.55 108.36 34.5079C106.614 38.4658 105.741 42.5886 105.741 46.8763C105.741 51.164 106.614 55.3281 108.36 59.3684C110.194 63.3263 112.901 66.5833 116.481 69.1395C120.061 71.6132 124.515 72.85 129.841 72.85Z" fill="#22D695"/>
    <path d="M218.919 94C212.196 94 206.432 93.2579 201.63 91.7737C196.914 90.2895 192.985 88.393 189.841 86.0842C186.785 83.7754 184.34 81.3018 182.506 78.6632C180.673 76.0246 179.319 73.5509 178.446 71.2421C177.573 68.9333 177.005 67.0368 176.743 65.5526C176.481 64.0684 176.35 63.3263 176.35 63.3263H201.761C201.761 63.3263 201.935 63.9035 202.285 65.0579C202.634 66.2123 203.376 67.5728 204.511 69.1395C205.734 70.6237 207.568 71.943 210.013 73.0974C212.458 74.2518 215.776 74.8289 219.967 74.8289C225.119 74.8289 228.699 73.9219 230.708 72.1079C232.804 70.2114 233.851 68.1912 233.851 66.0474C233.851 64.0684 233.066 62.5018 231.494 61.3474C230.009 60.1105 227.39 59.2035 223.635 58.6263L210.668 56.6474C205.079 55.7404 199.796 54.2974 194.819 52.3184C189.841 50.3395 185.781 47.4947 182.637 43.7842C179.581 40.0737 178.053 35.2088 178.053 29.1895C178.053 23.4175 179.581 18.3465 182.637 13.9763C185.781 9.60614 190.234 6.18421 195.998 3.71053C201.761 1.23684 208.615 0 216.562 0C222.762 0 228.045 0.700878 232.411 2.10263C236.777 3.42193 240.401 5.19474 243.282 7.42105C246.164 9.56491 248.478 11.8325 250.224 14.2237C251.971 16.6149 253.28 18.9237 254.154 21.15C255.027 23.2939 255.594 25.0667 255.856 26.4684C256.118 27.7877 256.249 28.4474 256.249 28.4474H231.494C231.494 28.4474 231.319 27.9939 230.97 27.0868C230.708 26.0974 230.053 25.0254 229.005 23.8711C227.957 22.6342 226.385 21.5623 224.29 20.6553C222.281 19.6658 219.531 19.1711 216.038 19.1711C212.72 19.1711 210.056 19.6246 208.048 20.5316C206.127 21.4386 204.73 22.5518 203.856 23.8711C203.071 25.1904 202.678 26.5097 202.678 27.8289C202.678 30.2202 203.856 31.993 206.214 33.1474C208.659 34.2193 211.628 35.0439 215.121 35.6211L228.743 37.7237C234.157 38.5482 239.134 40.0325 243.675 42.1763C248.303 44.2377 252.014 47.1237 254.809 50.8342C257.603 54.4623 259 59.0386 259 64.5632C259 70.2526 257.428 75.3237 254.285 79.7763C251.141 84.229 246.6 87.7333 240.663 90.2895C234.725 92.7632 227.477 94 218.919 94Z" fill="#22D695"/>
</svg>
