<svg width="141" height="140" viewBox="0 0 141 140" fill="none" xmlns="http://www.w3.org/2000/svg">
<path d="M54.9062 56.7639C60.3817 55.8342 64.4426 50.8523 65.0606 44.9008C65.6881 38.8484 67.1028 14.5258 57.9635 16.073C34.2564 20.0899 35.9202 59.9803 54.9062 56.7639ZM86.0981 56.7639C105.079 59.9803 106.743 20.0899 83.0361 16.0706C73.8991 14.5235 75.3115 38.846 75.9366 44.8985C76.557 50.8523 80.6226 55.8342 86.0981 56.7639ZM45.1676 75.5575C45.1676 72.3928 44.0372 69.5239 42.216 67.4367C39.2197 63.5254 29.695 55.6159 27.3567 57.642C22.4757 61.882 22.6331 72.3177 25.573 79.9009C27.0841 84.1174 30.7337 87.0826 34.999 87.0826C40.6132 87.0826 45.1676 81.9223 45.1676 75.5575ZM113.641 57.642C111.307 55.6159 101.782 63.5254 98.786 67.4367C96.9647 69.5239 95.832 72.3928 95.832 75.5575C95.832 81.9223 100.391 87.0826 106.001 87.0826C110.268 87.0826 113.92 84.1174 115.431 79.9009C118.364 72.3177 118.526 61.882 113.641 57.642ZM94.5207 93.5083C85.8819 89.2049 86.1498 80.9174 84.1852 73.3554C82.6224 67.324 77.0881 62.8633 70.501 62.8633C67.4455 62.8552 64.4699 63.8376 62.0211 65.663C59.5722 67.4884 57.7823 70.0584 56.9201 72.9868C54.8168 80.2225 56.0835 88.6462 46.6669 93.452C39.0176 95.9429 35.9202 99.5772 35.9202 108.172C35.9202 115.154 41.9199 122.63 49.6632 123.559C58.302 124.86 65.0418 123.16 70.501 120.052C75.9601 123.16 82.6953 124.858 91.3481 123.559C99.0868 122.63 105.089 115.183 105.089 108.172C105.086 99.3894 102.186 96.1167 94.5207 93.5083ZM84.3286 104.012H75.3726L75.3843 113.403H65.6176L65.6317 104.012H56.1282V94.6212H65.6341L65.62 85.2302H75.3867L75.3749 94.6212H84.3286V104.012Z" fill="url(#paint0_linear_866_4891)"/>
<defs>
<linearGradient id="paint0_linear_866_4891" x1="70.5" y1="16" x2="70.5" y2="124" gradientUnits="userSpaceOnUse">
<stop stop-color="#A7CF48"/>
<stop offset="1" stop-color="#48CF8E"/>
</linearGradient>
</defs>
</svg>
