<svg width="141" height="140" viewBox="0 0 141 140" fill="none" xmlns="http://www.w3.org/2000/svg">
<path fill-rule="evenodd" clip-rule="evenodd" d="M115.642 37.9863C117.382 37.9863 118.984 38.3269 120.448 39.0083C124.792 41.2238 127.357 45.4345 127.389 50.1298V82.4722C126.575 87.6138 120.766 86.2157 120.626 82.4722V51.9333C120.108 50.1918 116.789 50.9138 116.71 51.9333V122.029C115.866 129.186 106.738 127.085 106.505 121.908V78.9855C105.922 76.217 102.08 77.475 101.996 79.1058C102.13 90.8628 102.124 102.62 102.117 114.378C102.116 116.888 102.115 119.398 102.115 121.908C101.204 129.029 92.1207 127.207 91.9099 122.029L91.7913 51.9333C91.2593 50.2293 88.184 50.8829 88.1127 51.9333V82.4722C87.2978 87.6138 81.4898 86.2157 81.3491 82.4722V50.1298C81.4312 45.6347 83.0571 41.1315 86.9262 39.0083C88.1919 38.3269 89.7345 37.9862 91.5539 37.9862L115.642 37.9863ZM115.522 23.2985C115.522 29.5385 110.53 34.5971 104.371 34.5971C98.213 34.5971 93.2206 29.5385 93.2206 23.2985C93.2205 17.0586 98.2129 12 104.371 12C110.53 12 115.522 17.0586 115.522 23.2985ZM47.8357 89.1614L50.3605 74.1438C50.5682 72.9094 51.6503 71.9999 52.9181 71.9999C53.7379 71.9999 54.503 72.3789 54.9948 73.0285L56.842 75.4647H62.5365C63.9246 75.4647 65.258 76.0169 66.2417 76.9914L68.2091 78.9295H74.3298C75.7835 78.9295 76.953 80.088 76.953 81.528V84.1266C76.953 88.9123 73.0401 92.7885 68.2091 92.7885H60.6347L60.0772 96.0909L47.8357 89.1614ZM59.4651 99.7289V123.971C59.4651 125.888 57.9022 127.436 55.9676 127.436H52.47C50.5354 127.436 48.9724 125.888 48.9724 123.971V111.498C46.3492 112.83 43.3763 113.577 40.2285 113.577C37.0807 113.577 34.1077 112.83 31.4846 111.498V123.971C31.4846 125.888 29.9216 127.436 27.987 127.436H24.4894C22.5548 127.436 20.9918 125.888 20.9918 123.971V99.0468C17.844 97.8666 15.3739 95.2247 14.5213 91.8465L14.106 90.1683C13.636 88.3168 14.7727 86.4329 16.6527 85.9673C18.5326 85.5017 20.4235 86.6277 20.8935 88.4901L21.3197 90.1683C21.7023 91.7058 23.1013 92.7885 24.708 92.7885H47.2018L59.4651 99.7289ZM64.7115 80.6618C64.7115 80.2024 64.5273 79.7618 64.1993 79.4369C63.8713 79.112 63.4265 78.9295 62.9627 78.9295C62.4989 78.9295 62.0541 79.112 61.7261 79.4369C61.3982 79.7618 61.2139 80.2024 61.2139 80.6618C61.2139 81.1213 61.3982 81.5619 61.7261 81.8868C62.0541 82.2117 62.4989 82.3942 62.9627 82.3942C63.4265 82.3942 63.8713 82.2117 64.1993 81.8868C64.5273 81.5619 64.7115 81.1213 64.7115 80.6618ZM55.7434 54.4174L57.4834 55.9999L59.2234 54.4174C65.4034 48.8185 69.4834 45.1138 69.4834 40.5939C69.4834 36.8893 66.5794 33.9999 62.8834 33.9999C60.7954 33.9999 58.7914 34.9711 57.4834 36.4937C56.1754 34.9711 54.1714 33.9999 52.0834 33.9999C48.3874 33.9999 45.4834 36.8893 45.4834 40.5939C45.4834 45.1138 49.5634 48.8185 55.7434 54.4174Z" fill="url(#paint0_linear_866_4880)"/>
<defs>
<linearGradient id="paint0_linear_866_4880" x1="70.6947" y1="12" x2="70.6947" y2="127.436" gradientUnits="userSpaceOnUse">
<stop stop-color="#A7CF48"/>
<stop offset="1" stop-color="#48CF8E"/>
</linearGradient>
</defs>
</svg>
