<svg width="141" height="140" viewBox="0 0 141 140" fill="none" xmlns="http://www.w3.org/2000/svg">
<path fill-rule="evenodd" clip-rule="evenodd" d="M78.9717 58.1676V28.593C78.9717 24.4168 75.5325 21 71.3291 21H23.1426C18.9392 21 15.5 24.4168 15.5 28.593V69.8355C15.5 74.0116 18.9392 77.4284 23.1426 77.4284H71.3291C75.5325 77.4284 78.9717 74.0116 78.9717 69.8355C77.5849 69.6058 76.1285 69.4676 74.6929 69.3314C68.4547 68.7395 62.6096 68.1849 64.5718 60.3253C65.8583 54.9722 72.9468 55.567 78.9717 58.1676ZM115.255 30.9911C115.255 36.509 110.752 40.9822 105.198 40.9822C99.6442 40.9822 95.1419 36.509 95.1419 30.9911C95.1419 25.4732 99.6442 21 105.198 21C110.752 21 115.255 25.4732 115.255 30.9911ZM114.089 43.4563C114.089 43.4563 122.362 41.7036 126.4 52.3717V80.9086H126.388C126.394 80.9656 126.4 81.0225 126.4 81.0795C126.4 82.4019 124.84 83.4776 122.917 83.4776C120.993 83.4776 119.433 82.4019 119.433 81.0795C119.433 81.0511 119.436 81.0227 119.439 80.9943L119.439 80.9941L119.442 80.9697C119.443 80.9579 119.444 80.946 119.445 80.9342C119.445 80.9257 119.446 80.9171 119.446 80.9086H119.433V54.5673C119.433 54.5673 118.484 52.8906 118.242 54.5673V116.602C118.242 117.924 115.682 119 112.529 119C109.376 119 106.816 117.924 106.816 116.602V83.3131H104.326V116.602C104.326 117.924 101.823 119 98.7341 119C95.6453 119 93.1423 117.924 93.1423 116.602V56.706L85.9583 69.0636L68.1574 66.0327V66.0011C66.8773 65.7353 66.113 63.97 66.4506 62.0085C66.7881 60.0469 68.0937 58.6296 69.393 58.8068H69.4439L81.4364 60.8505L89.5694 46.8542C89.5694 46.8542 92.3653 41.2227 99.3647 44.4624C99.3647 44.4624 109.141 46.8858 114.089 43.4563ZM30.7849 82.7815H65.858H65.8644C67.9852 82.7815 69.7239 84.3381 69.7239 86.2363C69.7239 88.1346 67.9852 89.6911 65.8644 89.6911H54.8145L61.1515 115.931C61.4253 117.07 60.6674 118.222 59.4574 118.481C58.2473 118.747 57.0308 118.026 56.757 116.88L50.1907 89.6911H46.6433L40.077 116.88C39.7968 118.019 38.5867 118.741 37.3766 118.481C36.1666 118.222 35.4087 117.076 35.6825 115.931L42.0195 89.6911H30.7849C28.6641 89.6911 26.9254 88.1346 26.9254 86.2363C26.9254 84.3381 28.6641 82.7815 30.7849 82.7815Z" fill="url(#paint0_linear_866_4909)"/>
<defs>
<linearGradient id="paint0_linear_866_4909" x1="70.9502" y1="21" x2="70.9502" y2="119" gradientUnits="userSpaceOnUse">
<stop stop-color="#A7CF48"/>
<stop offset="1" stop-color="#48CF8E"/>
</linearGradient>
</defs>
</svg>
