<svg width="24" height="25" viewBox="0 0 24 25" fill="none" xmlns="http://www.w3.org/2000/svg">
<path d="M12 0.5C18.6276 0.5 24 5.8724 24 12.5C24 19.1276 18.6276 24.5 12 24.5C9.87934 24.5034 7.796 23.9422 5.96401 22.874L0.00481688 24.5L1.62722 18.5384C0.558128 16.7058 -0.00352605 14.6216 1.66563e-05 12.5C1.66563e-05 5.8724 5.37241 0.5 12 0.5ZM7.91041 6.86L7.67041 6.8696C7.51504 6.87906 7.36319 6.91988 7.22401 6.9896C7.09384 7.06331 6.97501 7.15547 6.87121 7.2632C6.72721 7.3988 6.64561 7.5164 6.55801 7.6304C6.11416 8.20748 5.87518 8.91597 5.87881 9.64399C5.88121 10.232 6.03481 10.8044 6.27481 11.3396C6.76561 12.422 7.57321 13.568 8.63881 14.63C8.89561 14.8856 9.14761 15.1424 9.41881 15.3812C10.7429 16.5469 12.3207 17.3876 14.0268 17.8364L14.7084 17.9408C14.9304 17.9528 15.1524 17.936 15.3756 17.9252C15.7251 17.9071 16.0663 17.8125 16.3752 17.648C16.5324 17.567 16.6857 17.479 16.8348 17.384C16.8348 17.384 16.8864 17.3504 16.9848 17.276C17.1468 17.156 17.2464 17.0708 17.3808 16.9304C17.4804 16.8272 17.5668 16.706 17.6328 16.568C17.7264 16.3724 17.82 15.9992 17.8584 15.6884C17.8872 15.4508 17.8788 15.3212 17.8752 15.2408C17.8704 15.1124 17.7636 14.9792 17.6472 14.9228L16.9488 14.6096C16.9488 14.6096 15.9048 14.1548 15.2664 13.8644C15.1996 13.8352 15.128 13.8185 15.0552 13.8152C14.9731 13.8068 14.8901 13.816 14.8119 13.8423C14.7337 13.8686 14.662 13.9113 14.6016 13.9676C14.5956 13.9652 14.5152 14.0336 13.6476 15.0848C13.5978 15.1517 13.5292 15.2023 13.4506 15.2301C13.3719 15.2578 13.2868 15.2616 13.206 15.2408C13.1278 15.2198 13.0512 15.1934 12.9768 15.1616C12.828 15.0992 12.7764 15.0752 12.6744 15.032C11.9857 14.7314 11.348 14.3254 10.7844 13.8284C10.6332 13.6964 10.4928 13.5524 10.3488 13.4132C9.87671 12.9611 9.46528 12.4496 9.12481 11.8916L9.05401 11.7776C9.00316 11.701 8.96204 11.6184 8.93161 11.5316C8.88601 11.3552 9.00481 11.2136 9.00481 11.2136C9.00481 11.2136 9.29641 10.8944 9.43201 10.7216C9.56401 10.5536 9.67561 10.3904 9.74761 10.274C9.88921 10.046 9.93361 9.81199 9.85921 9.63079C9.52321 8.80999 9.17521 7.99279 8.81761 7.1816C8.74681 7.0208 8.53681 6.9056 8.34601 6.8828C8.28121 6.8756 8.21641 6.8684 8.15161 6.8636C7.99046 6.85559 7.82897 6.85719 7.66801 6.8684L7.91041 6.86Z" fill="black"/>
</svg>
